<?xml version="1.0" standalone="no"?>
<!DOCTYPE svg PUBLIC "-//W3C//DTD SVG 1.1//EN" "http://www.w3.org/Graphics/SVG/1.1/DTD/svg11.dtd" >
<svg>
<metadata>
Created by FontForge 20090622 at Fri Oct 16 19:24:15 2015
 By deploy user
Copyright (c) 2015 by moriztype. All rights reserved.
</metadata>
<defs>
<font id="Amsterdayscript" horiz-adv-x="278" >
  <font-face 
    font-family="Amsterday script"
    font-weight="400"
    font-stretch="normal"
    units-per-em="1000"
    panose-1="2 0 5 6 3 0 0 2 0 3"
    ascent="800"
    descent="-200"
    x-height="494"
    cap-height="868"
    bbox="-1421.57 -297 1831.29 1041.28"
    underline-thickness="50"
    underline-position="-50"
    unicode-range="U+0020-U+FB02"
  />
<missing-glyph horiz-adv-x="199" 
 />
    <glyph glyph-name="d_b" unicode="db" horiz-adv-x="588" 
d="M194 266q-4 8 2 10q3 0 6 -9q6 -31 -16 -38q-20 -5 -28 14q-2 5 -3 10q-3 23 12.5 34.5t35 6t27.5 -23.5q9 -22 -2.5 -46t-34.5 -33q-32 -11 -70.5 -2.5t-63.5 30.5q-66 55 -53 149q10 73 58 112q54 43 107 -5q7 -7 15 -16v142q-48 -10 -95 -1t-66 36q-31 44 -3 83
q23 31 57 27q27 -3 42 -31q17 -31 -5 -52q-21 -20 -45 -2q-12 9 -20 27q-6 15 -3 18q6 2 13 -12q15 -28 33 -19q16 8 10 27q-3 7 -9 13q-19 19 -40 10t-24.5 -30.5t12.5 -42.5q18 -21 60 -27.5t83 1.5q3 129 19 175q26 77 88 10q19 -22 26 -51q21 117 94 43
q50 -58 28.5 -116.5t-87.5 -82.5v-45.5v-54.5v-46q52 64 110 30q49 -28 67 -98q23 -88 -29 -151q-8 -10 -18 -19q-27 -25 -75 -32.5t-74 9.5q-21 14 -20 37.5t18.5 33.5t40.5 -1q19 -13 10 -33t-32 -10q-5 3 -11 7q-7 7 -5 9q0 1 10 -2q18 -12 25 0q6 12 -7 19q-2 1 -5 2
q-17 5 -26 -5.5t-5 -25.5t20 -20q45 -15 89.5 19t51.5 91q9 77 -34 120q-35 36 -72 13q-45 -28 -55 -130q0 -1 -1 -4q0 -2 -1 -3q-4 -2 -7 -4q-9 0 -5 11q-5 183 -4 295v50q-6 -11 -17 -21q-18 -15 -64 -33q-1 -45 -0.5 -135.5t-0.5 -136.5q0 -24 -4 -25q-3 -1 -6 0
q-1 1 -3 7q-13 117 -68 135q-39 13 -70 -28q-37 -48 -20 -116q12 -51 55.5 -84.5t78.5 -15.5q25 14 28 37q3 16 -8.5 26.5t-25.5 6.5t-16 -21q-4 -15 9 -18.5t16 11.5q1 5 0 11zM354 629q53 21 68 64.5t-25 90.5q-47 45 -43 -155zM230 637q47 17 63 41q15 24 9 59t-24 54
q-29 31 -41 -40q-7 -43 -7 -114z" />
    <glyph glyph-name="l_b" unicode="lb" horiz-adv-x="518" 
d="M14 195l4 26q-1 122 -1 366q-49 -10 -96.5 -1.5t-68.5 34.5q-32 46 -2 86q24 31 59 25q25 -4 39 -30q19 -31 -4 -52q-21 -20 -46 -2q-11 9 -19 26q-5 15 -1 17q5 5 12 -10q16 -29 34 -19q14 9 7 27q-3 7 -8 12q-25 25 -49 5q-23 -19 -14 -49q4 -10 12 -19
q19 -20 61 -26.5t83 2.5q2 128 16 173q26 81 91 11q27 -30 29.5 -80.5t-31.5 -84.5l-9 -6q49 -25 128 -10q2 112 10 151q23 109 93 36q50 -58 28.5 -116.5t-87.5 -82.5v-45.5v-54.5v-46q52 64 110 30q49 -28 67 -98q23 -88 -29 -151q-8 -10 -18 -19q-27 -25 -75 -32.5
t-74 9.5q-21 14 -20 37.5t18.5 33.5t40.5 -1q19 -13 10 -33t-32 -10q-5 3 -11 7q-7 7 -5 9q0 1 10 -2q18 -12 25 0q6 12 -7 19q-2 1 -5 2q-17 5 -26 -5.5t-5 -25.5t20 -20q45 -15 89.5 19t51.5 91q9 77 -34 120q-35 36 -72 13q-45 -28 -55 -130q0 -1 -1 -4q0 -2 -1 -3
q-4 -2 -7 -4q-9 0 -5 11q-4 127 -4 270q-43 -8 -85 -2t-66 23l-29 -13q-1 -65 -0.5 -199t0.5 -165v-2q1 -1 1 -2q33 15 70.5 12t67.5 -30t30 -66q-2 -32 -34.5 -40t-43.5 26q-4 16 6.5 27t24 6t18.5 -27q0 -10 -4 -11q-5 0 -5 8q-5 22 -18 17t-9 -20l2 -4q18 -21 37.5 -3
t6.5 42q-11 18 -39 28q-27 8 -51 4t-41 -13t-34 -9t-31 17zM284 629q53 21 68 64.5t-25 90.5q-47 45 -43 -155zM60 623q48 20 62 42q14 24 7.5 58.5t-24.5 53.5q-46 44 -45 -154z" />
    <glyph glyph-name="t_b" unicode="tb" horiz-adv-x="494" 
d="M37 570q-4 60 -43 81q-19 10 -38 15q-12 39 17 41q33 2 69 -36q44 -47 41 -111v-3q31 -8 59.5 1t32.5 30q5 17 -6 30q-7 9 -17.5 7.5t-14 -9.5t2.5 -18q9 -9 16 -2t-6 16q-6 3 -4 6q1 1 7 -2q20 -11 11 -25t-25 -3q-19 13 -7.5 32t31.5 13q15 -6 22 -21q11 0 31 4
q2 112 10 151q23 109 93 36q50 -58 28.5 -116.5t-87.5 -82.5v-45.5v-54.5v-46q52 64 110 30q49 -28 67 -98q23 -88 -29 -151q-8 -10 -18 -19q-27 -25 -75 -32.5t-74 9.5q-21 14 -20 37.5t18.5 33.5t40.5 -1q19 -13 10 -33t-32 -10q-5 3 -11 7q-7 7 -5 9q0 1 10 -2
q18 -12 25 0q6 12 -7 19q-2 1 -5 2q-17 5 -26 -5.5t-5 -25.5t20 -20q45 -15 89.5 19t51.5 91q9 77 -34 120q-35 36 -72 13q-45 -28 -55 -130q0 -1 -1 -4q0 -2 -1 -3q-4 -2 -7 -4q-9 0 -5 11q-4 127 -4 270q-18 -4 -27 -4q0 -2 -0.5 -4t-0.5 -3q-6 -20 -28 -36t-44 -20
q-18 -3 -35 0q-1 -12 -6.5 -70t-7.5 -88.5t-4 -77.5t1 -77.5t10 -48.5q6 -15 20 -17t23 8.5t2 26.5q-6 15 -18 11q-13 -5 -4 -21l4 -6q6 -8 4 -10q-4 -3 -9 5q-22 23 -7 41q13 15 30 1q3 -2 5 -5q21 -27 -1 -51q-21 -22 -45 -9q-10 5 -17 18q-25 47 -29 118t1.5 163.5
t3.5 134.5zM260 629q53 21 68 64.5t-25 90.5q-47 45 -43 -155z" />
    <glyph glyph-name="d_h" unicode="dh" horiz-adv-x="571" 
d="M194 266q-4 8 2 10q3 0 6 -9q6 -31 -16 -38q-20 -5 -28 14q-2 5 -3 10q-3 23 12.5 34.5t35 6t27.5 -23.5q9 -22 -2.5 -46t-34.5 -33q-32 -11 -70.5 -2.5t-63.5 30.5q-66 55 -53 149q10 73 58 112q54 43 107 -5q7 -7 15 -16v142q-48 -10 -95 -1t-66 36q-31 44 -3 83
q23 31 57 27q27 -3 42 -31q17 -31 -5 -52q-21 -20 -45 -2q-12 9 -20 27q-6 15 -3 18q6 2 13 -12q15 -28 33 -19q16 8 10 27q-3 7 -9 13q-19 19 -40 10t-24.5 -30.5t12.5 -42.5q18 -21 60 -27.5t83 1.5q3 129 19 175q26 77 88 10q5 -6 15 -22q26 87 91 17q28 -31 30 -82
t-32 -83q-22 -19 -64 -36q0 -47 -2 -147q29 34 60.5 40t54.5 -8.5t39 -40.5q14 -23 15.5 -63.5t-3.5 -78.5t-2.5 -84.5t18.5 -79.5q7 -15 22 -16.5t24.5 9.5t2.5 26t-20 10q-15 -5 -3 -23q1 -2 3 -4q6 -7 4 -9q-4 -2 -10 4q-23 23 -7 40q14 15 33 2q3 -2 5 -5q21 -24 0 -48
q-20 -23 -47 -12q-12 5 -21 18q-20 33 -27.5 69t-9 95.5t-2.5 74.5q-4 57 -43 78q-40 22 -75 -18q-32 -36 -41 -112q0 -1 -1 -4q0 -2 -1 -3q-4 -1 -6.5 1.5t-3.5 9.5t-1.5 13.5t-0.5 15.5v13q1 37 1 127t2 126v22q-22 -17 -61 -31q-1 -45 -0.5 -135.5t-0.5 -136.5
q0 -24 -4 -25q-3 -1 -6 0q-1 1 -3 7q-13 117 -68 135q-39 13 -70 -28q-37 -48 -20 -116q12 -51 55.5 -84.5t78.5 -15.5q25 14 28 37q3 16 -8.5 26.5t-25.5 6.5t-16 -21q-4 -15 9 -18.5t16 11.5q1 5 0 11zM334 632q46 14 65 42q14 22 8 57.5t-24 54.5q-45 49 -49 -144v-10z
M230 637q44 15 62 39q2 40 7 73q-8 28 -21 42q-29 31 -41 -40q-7 -43 -7 -114z" />
    <glyph glyph-name="d_k" unicode="dk" horiz-adv-x="608" 
d="M194 266q-4 8 2 10q3 0 6 -9q6 -31 -16 -38q-20 -5 -28 14q-2 5 -3 10q-3 23 12.5 34.5t35 6t27.5 -23.5q9 -22 -2.5 -46t-34.5 -33q-32 -11 -70.5 -2.5t-63.5 30.5q-66 55 -53 149q10 73 58 112q54 43 107 -5q7 -7 15 -16v142q-48 -10 -95 -1t-66 36q-31 44 -3 83
q23 31 57 27q27 -3 42 -31q17 -31 -5 -52q-21 -20 -45 -2q-12 9 -20 27q-6 15 -3 18q6 2 13 -12q15 -28 33 -19q16 8 10 27q-3 7 -9 13q-19 19 -40 10t-24.5 -30.5t12.5 -42.5q18 -21 60 -27.5t83 1.5q3 129 19 175q26 77 88 10q31 -34 31 -88q4 35 11 61t19 46t31.5 17.5
t44.5 -30.5q28 -30 29.5 -81.5t-33.5 -83.5q-28 -20 -62 -32l-3 -220q62 90 139 99q53 6 74 -30q23 -37 -16 -88q-17 -18 -42 -13t-31 33q-5 25 16 35q20 9 32 -13q5 -8 6 -19q3 -11 -2 -12q-3 -1 -4.5 2.5t-1.5 7.5q-5 22 -18 21q-13 -2 -13 -16q0 -6 3 -12
q12 -20 30 -14.5t23 24.5q6 24 -19 39.5t-48 9.5q-37 -11 -74 -45.5t-50 -72.5q18 4 24 3q51 -4 81 -27.5t42 -59t19 -72t22 -74t41 -58.5q8 -6 17 -3t10 10.5t-6 14.5q-11 8 -15 -1q-3 -7 9 -12q6 -3 5 -5h-6q-20 7 -16 20.5t21 7.5q15 -7 15 -21t-11 -20t-27 2
q-28 17 -48 48.5t-32 63t-26 61.5t-38.5 50.5t-59.5 23.5q-18 0 -26 -3q-1 -12 -1 -36v-22q-5 -63 -49 -10q4 14 5 22q-1 37 0 125t3 180l2 91q0 36 2 61q-6 -31 -29 -51q-18 -15 -64 -33q-1 -45 -0.5 -135.5t-0.5 -136.5q0 -24 -4 -25q-3 -1 -6 0q-1 1 -3 7
q-13 117 -68 135q-39 13 -70 -28q-37 -48 -20 -116q12 -51 55.5 -84.5t78.5 -15.5q25 14 28 37q3 16 -8.5 26.5t-25.5 6.5t-16 -21q-4 -15 9 -18.5t16 11.5q1 5 0 11zM364 645q46 16 64 40q14 22 8.5 57.5t-23.5 55.5q-45 50 -49 -142v-11zM230 637q47 17 63 41q15 24 9 59
t-24 54q-29 31 -41 -40q-7 -43 -7 -114z" />
    <glyph glyph-name="d_l" unicode="dl" horiz-adv-x="498" 
d="M194 266q-4 8 2 10q3 0 6 -9q6 -31 -16 -38q-20 -5 -28 14q-2 5 -3 10q-3 23 12.5 34.5t35 6t27.5 -23.5q9 -22 -2.5 -46t-34.5 -33q-32 -11 -70.5 -2.5t-63.5 30.5q-66 55 -53 149q10 73 58 112q54 43 107 -5q7 -7 15 -16v142q-48 -10 -95 -1t-66 36q-31 44 -3 83
q23 31 57 27q27 -3 42 -31q17 -31 -5 -52q-21 -20 -45 -2q-12 9 -20 27q-6 15 -3 18q6 2 13 -12q15 -28 33 -19q16 8 10 27q-3 7 -9 13q-19 19 -40 10t-24.5 -30.5t12.5 -42.5q18 -21 60 -27.5t83 1.5q3 129 19 175q26 77 88 10q12 -13 21 -35q24 94 93 21
q27 -30 29.5 -80.5t-31.5 -84.5q-22 -17 -61 -33q-1 -65 -0.5 -199t0.5 -165v-2q1 -1 1 -2q33 15 70.5 12t67.5 -30t30 -66q-2 -32 -34.5 -40t-43.5 26q-4 16 6.5 27t24 6t18.5 -27q0 -10 -4 -11q-5 0 -5 8q-5 22 -18 17t-9 -20l2 -4q18 -21 37.5 -3t6.5 42q-11 18 -39 28
q-27 8 -51 4t-41 -13t-34 -9t-31 17l4 26q0 43 -0.5 182t-1.5 210v39l-7 -7q-18 -15 -64 -33q-1 -45 -0.5 -135.5t-0.5 -136.5q0 -24 -4 -25q-3 -1 -6 0q-1 1 -3 7q-13 117 -68 135q-39 13 -70 -28q-37 -48 -20 -116q12 -51 55.5 -84.5t78.5 -15.5q25 14 28 37
q3 16 -8.5 26.5t-25.5 6.5t-16 -21q-4 -15 9 -18.5t16 11.5q1 5 0 11zM230 637q47 17 63 41q15 24 9 59t-24 54q-29 31 -41 -40q-7 -43 -7 -114zM344 623q48 20 62 42q14 24 7.5 58.5t-24.5 53.5q-46 44 -45 -154z" />
    <glyph glyph-name="d_t" unicode="dt" horiz-adv-x="474" 
d="M194 266q-4 8 2 10q3 0 6 -9q6 -31 -16 -38q-20 -5 -28 14q-2 5 -3 10q-3 23 12.5 34.5t35 6t27.5 -23.5q9 -22 -2.5 -46t-34.5 -33q-32 -11 -70.5 -2.5t-63.5 30.5q-66 55 -53 149q10 73 58 112q54 43 107 -5q7 -7 15 -16v142q-48 -10 -95 -1t-66 36q-31 44 -3 83
q23 31 57 27q27 -3 42 -31q17 -31 -5 -52q-21 -20 -45 -2q-12 9 -20 27q-6 15 -3 18q6 2 13 -12q15 -28 33 -19q16 8 10 27q-3 7 -9 13q-19 19 -40 10t-24.5 -30.5t12.5 -42.5q18 -21 60 -27.5t83 1.5q3 129 19 175q26 77 88 10q21 -23 28.5 -61t-5.5 -72q52 -45 51 -118v-3
q31 -8 59.5 1t32.5 30q5 17 -6 30q-7 9 -17.5 7.5t-14 -9.5t2.5 -18q9 -9 16 -2t-6 16q-6 3 -4 6q1 1 7 -2q20 -11 11 -25t-25 -3q-19 13 -7.5 32t31.5 13q15 -5 22.5 -21t2.5 -32q-6 -20 -28 -36t-44 -20q-18 -3 -35 0q-1 -12 -6.5 -70t-7.5 -88.5t-4 -77.5t1 -77.5
t10 -48.5q6 -15 20 -17t23 8.5t2 26.5q-6 15 -18 11q-13 -5 -4 -21l4 -6q6 -8 4 -10q-4 -3 -9 5q-22 23 -7 41q13 15 30 1q3 -2 5 -5q21 -27 -1 -51q-21 -22 -45 -9q-10 5 -17 18q-25 47 -29 118t1.5 163.5t3.5 134.5q-4 49 -31 73q-22 -17 -61 -31q-1 -45 -0.5 -135.5
t-0.5 -136.5q0 -24 -4 -25q-3 -1 -6 0q-1 1 -3 7q-13 117 -68 135q-39 13 -70 -28q-37 -48 -20 -116q12 -51 55.5 -84.5t78.5 -15.5q25 14 28 37q3 16 -8.5 26.5t-25.5 6.5t-16 -21q-4 -15 9 -18.5t16 11.5q1 5 0 11zM230 637q47 17 63 41q15 24 9 59t-24 54q-29 31 -41 -40
q-7 -43 -7 -114z" />
    <glyph glyph-name="g_f" unicode="gf" horiz-adv-x="587" 
d="M467 334q24 12 22 26q-2 12 -17 3q-3 -1 -6 -4q-25 -20 -17 -39q8 -17 30 -5l8 6q25 20 34 50q12 41 -23.5 60t-86.5 4q-3 -1 -4 -10q-3 -31 -3 -209q97 -8 120 2q8 3 9 10.5t-5 12t-14 1.5q-9 -4 -4.5 -10.5t13.5 0.5q4 4 5 2q2 -2 -2 -5q-15 -13 -23 -1q-7 8 3 16
q16 13 29 -2t-3 -27q-2 -2 -4 -3q-35 -20 -123 -16q0 -187 -46 -265q-25 -28 -51.5 -24t-32 27.5t11.5 48.5q17 21 35 9q20 -13 8 -38q-3 -8 -11 -16q-6 -9 -11 -6q-2 2 4 12q17 20 5 31q-11 9 -22 -4q-2 -3 -3 -6q-8 -19 1.5 -32.5t26.5 -11.5t25 20q18 40 18 154
q-18 20 -57.5 27t-83.5 1v-11q-1 -216 -62 -207q-21 3 -49 35q-28 31 -29.5 82t33.5 83q26 21 63 32l3 87q-54 -63 -112 -26q-48 30 -63 101q-20 89 35 150q8 9 18 17q26 21 64.5 29.5t70.5 -3.5q16 -8 29 -25.5t13 -33.5q2 -35 -29 -45q-27 -8 -43 12q-8 11 -6 27
q2 22 21 25q20 3 25 -18q2 -8 0 -19q-3 -9 -5 -9q-3 0 -3 10q3 23 -12 22q-11 0 -13 -12q-1 -4 0 -8q3 -17 17 -20t25 7.5t8 26.5q-3 15 -17 27.5t-29 15.5q-36 6 -75.5 -30.5t-47.5 -85.5q-12 -76 29 -116q34 -34 73 -9q46 29 59 126q1 16 9 5l3 -6q0 -142 -2 -211
q89 15 140 -19l-2 69q-35 2 -50 1q-13 -2 -20 -4q-19 19 -11.5 24t36.5 4q6 0 21.5 -1.5t22.5 -1.5q-9 173 -9 195q0 89 24 90q12 0 30 -20q52 20 89 6q27 -10 42.5 -41t6.5 -67q-6 -27 -28.5 -53.5t-45.5 -32.5q-27 -6 -32 19q-6 29 23 53q7 5 14 9q23 13 28 -5
q6 -20 -20 -39q-6 -4 -14 -8q-10 -3 -11 -1q0 6 10 9zM177 112q-46 -15 -64 -40q-15 -22 -9.5 -57.5t23.5 -55.5q44 -46 49 80q1 20 1 54v19z" />
    <glyph glyph-name="j_f" unicode="jf" horiz-adv-x="503" 
d="M383 334q24 12 22 26q-2 12 -17 3q-3 -1 -6 -4q-25 -20 -17 -39q8 -17 30 -5l8 6q25 20 34 50q12 41 -23.5 60t-86.5 4q-3 -1 -4 -10q-3 -31 -3 -209q97 -8 120 2q8 3 9 10.5t-5 12t-14 1.5q-9 -4 -4.5 -10.5t13.5 0.5q4 4 5 2q2 -2 -2 -5q-15 -13 -23 -1q-7 8 3 16
q16 13 29 -2t-3 -27q-2 -2 -4 -3q-35 -20 -123 -16q0 -187 -46 -265q-21 -35 -53 -22q-27 10 -31 38q-2 19 12 36q17 21 35 9q20 -13 8 -38q-3 -8 -11 -16q-6 -9 -11 -6q-2 2 4 12q17 20 5 31q-11 9 -22 -4q-2 -3 -3 -6q-8 -19 1.5 -32.5t26.5 -11.5t25 20q29 65 18 129
q-7 42 -149 30q4 -225 -59 -216q-20 3 -46 30q-29 30 -32 81.5t31 83.5q29 22 62 34v178t1 157q-24 -17 -34 -18q-37 -4 -49 27q-11 28 10 44q11 8 27 8q22 0 26.5 -19.5t-15.5 -26.5q-9 -3 -20 -2q-10 0 -10 5q0 3 10 3q21 -1 22 12q1 11 -11 14q-5 1 -10 -1
q-17 -4 -19 -18t9 -24.5t28 -6.5q27 6 44 53l33 1v-65q1 -65 1 -160.5t1 -148.5q41 9 83.5 4t65.5 -24q0 29 -2 93q-35 2 -50 1q-13 -2 -20 -4q-19 19 -11.5 24t36.5 4q6 0 21.5 -1.5t22.5 -1.5q-9 173 -9 195q0 89 24 90q12 0 30 -20q52 20 89 6q27 -10 42.5 -41t6.5 -67
q-6 -27 -28.5 -53.5t-45.5 -32.5q-27 -6 -32 19q-6 29 23 53q7 5 14 9q23 13 28 -5q6 -20 -20 -39q-6 -4 -14 -8q-10 -3 -11 -1q0 6 10 9zM41 -67q47 -47 46 155q-45 -16 -64 -42q-13 -23 -6.5 -57.5t24.5 -55.5zM125 580q0 12 3 11q4 -1 4 -13q0 -28 -16 -35
q-11 -6 -21.5 4t-9.5 29q2 20 18.5 34t32.5 -3q9 -13 2 -16q-5 -3 -11 7q-17 4 -21 -16t5 -25q5 -4 10 8q2 6 4 15z" />
    <glyph glyph-name="q_f" unicode="qf" horiz-adv-x="599" 
d="M107 100q-48 -19 -65 -48q-13 -24 -4.5 -59.5t28.5 -54.5q45 -41 41 141v21zM78 433q-13 -19 -26 -52q-29 -83 18 -138q33 -40 77 -34q46 7 58 65q3 14 3 30q0 28 -4 43q-15 45 -39 52q-12 3 -21 -4.5t-7.5 -18t13.5 -14.5q12 -3 16 6q-1 12 -16 14q-7 0 -7 2l7 4
q24 1 26 -16q3 -15 -14 -19q-3 -1 -6 -1q-25 0 -27.5 23.5t18.5 32.5q9 3 20 2q35 -4 53.5 -37t17.5 -70q-1 -50 -26 -84t-63 -37v-42q48 12 95.5 6t69.5 -32q35 -42 9 -83q-21 -34 -57 -33q-28 1 -46 28q-19 29 1 53q20 21 46 6q14 -8 24 -26q6 -14 2 -17q-1 -2 -3.5 -0.5
t-4 2.5t-3 3.5t-2.5 3.5q-18 28 -35 18q-16 -9 -8 -28q3 -7 9 -12q21 -18 41.5 -8t23 32.5t-14.5 43.5q-20 19 -62.5 23t-84.5 -7q3 -105 -1 -139q-16 -134 -97 -57q-30 30 -36.5 81.5t26.5 87.5q27 24 66 39v61q-66 16 -92.5 75t-0.5 132q16 48 54.5 80.5t85.5 22.5
q35 -8 36 -41q1 -29 -22 -39q-13 -6 -29 0q-23 9 -19 30t27 18q8 -1 16 -5q9 -3 8 -8q-1 -4 -10 0q-22 8 -26 -6q-4 -12 10 -16q3 -1 6 -1q18 -1 24.5 11.5t-0.5 26.5t-24 15q-20 1 -40 -14t-33 -34zM467 334q24 12 22 26q-2 12 -17 3q-3 -1 -6 -4q-25 -20 -17 -39
q8 -17 30 -5l8 6q25 20 34 50q12 41 -23.5 60t-86.5 4q-3 -1 -4 -10q-3 -31 -3 -209q97 -8 120 2q8 3 9 10.5t-5 12t-14 1.5q-9 -4 -4.5 -10.5t13.5 0.5q4 4 5 2q2 -2 -2 -5q-15 -13 -23 -1q-7 8 3 16q16 13 29 -2t-3 -27q-2 -2 -4 -3q-35 -20 -123 -16q0 -187 -46 -265
q-21 -35 -53 -22q-27 10 -31 38q-2 19 12 36q17 21 35 9q20 -13 8 -38q-3 -8 -11 -16q-6 -9 -11 -6q-2 2 4 12q17 20 5 31q-11 9 -22 -4q-2 -3 -3 -6q-8 -19 1.5 -32.5t26.5 -11.5t25 20q24 52 16 257q-35 2 -50 1q-13 -2 -20 -4q-19 19 -11.5 24t36.5 4q6 0 21.5 -1.5
t22.5 -1.5q-9 173 -9 195q0 89 24 90q12 0 30 -20q52 20 89 6q27 -10 42.5 -41t6.5 -67q-6 -27 -28.5 -53.5t-45.5 -32.5q-27 -6 -32 19q-6 29 23 53q7 5 14 9q23 13 28 -5q6 -20 -20 -39q-6 -4 -14 -8q-10 -3 -11 -1q0 6 10 9z" />
    <glyph glyph-name="y_f" unicode="yf" horiz-adv-x="601" 
d="M481 334q24 12 22 26q-2 12 -17 3q-3 -1 -6 -4q-25 -20 -17 -39q8 -17 30 -5l8 6q25 20 34 50q12 41 -23.5 60t-86.5 4q-3 -1 -4 -10q-3 -31 -3 -209q97 -8 120 2q8 3 9 10.5t-5 12t-14 1.5q-9 -4 -4.5 -10.5t13.5 0.5q4 4 5 2q2 -2 -2 -5q-15 -13 -23 -1q-7 8 3 16
q16 13 29 -2t-3 -27q-2 -2 -4 -3q-35 -20 -123 -16q0 -187 -46 -265q-21 -35 -53 -22q-27 10 -31 38q-2 19 12 36q17 21 35 9q20 -13 8 -38q-3 -8 -11 -16q-6 -9 -11 -6q-2 2 4 12q17 20 5 31q-11 9 -22 -4q-2 -3 -3 -6q-8 -19 1.5 -32.5t26.5 -11.5t25 20q18 40 18 142
l-3 5q-19 22 -63.5 29.5t-87.5 -0.5q0 -7 -1 -26q-6 -161 -40 -184q-24 -16 -63 29q-27 31 -28 82t34 83q21 17 59 31q-1 21 2.5 64t3.5 51q-26 -45 -59 -59t-59.5 0t-44.5 45t-17 67q0 15 4.5 53t6 59.5t-3.5 50.5q-4 16 -19 20t-26 -5t-6 -25t18 -14q14 3 7 20q-1 4 -3 7
q-7 7 -2 10q2 1 9 -6q20 -27 0 -41q-17 -12 -33 4l-4 6q-18 28 12 49q27 20 54 6q12 -7 18 -21q10 -24 10.5 -53t-2.5 -64.5t-2 -58.5q4 -59 40 -78t66 23q25 35 33 104q6 97 -2 123q45 48 49 11v-3q3 -142 -9 -335q102 19 152 -23q0 25 -2 79q-35 2 -50 1q-13 -2 -20 -4
q-19 19 -11.5 24t36.5 4q6 0 21.5 -1.5t22.5 -1.5q-9 173 -9 195q0 89 24 90q12 0 30 -20q52 20 89 6q27 -10 42.5 -41t6.5 -67q-6 -27 -28.5 -53.5t-45.5 -32.5q-27 -6 -32 19q-6 29 23 53q7 5 14 9q23 13 28 -5q6 -20 -20 -39q-6 -4 -14 -8q-10 -3 -11 -1q0 6 10 9z
M185 107q-46 -15 -63 -39q-14 -22 -9 -57.5t23 -55.5q31 -36 43 42q8 51 6 110z" />
    <glyph glyph-name="g_p" unicode="gp" horiz-adv-x="578" 
d="M338 417q0 -10 -2 -10q-4 0 -6 10q-5 30 15 37q18 6 28 -12q2 -6 3 -12q4 -35 -29 -40.5t-46 24.5q-9 20 2.5 44.5t33.5 33.5q33 12 71 3t64 -31q66 -55 54 -149q-10 -72 -57 -111q-54 -44 -107 3q-9 7 -17 17q0 -55 1 -81q52 9 98.5 -1t65.5 -37q31 -45 1 -84
q-24 -31 -59 -25q-26 5 -40 32q-17 31 6 51q21 20 45 0q11 -9 19 -27q9 -12 3 -17q-5 -3 -11 10q-1 1 -1 2q-16 30 -35 19q-15 -8 -8 -26q2 -7 8 -12q18 -19 39 -11t25.5 29.5t-11.5 42.5q-19 21 -61.5 28.5t-83.5 -0.5q0 -143 -21 -189q-27 -61 -88 8q-16 18 -24 47
q-24 -130 -102 -43q-28 31 -29.5 82t33.5 83q26 21 63 32l3 87q-54 -63 -112 -26q-48 30 -63 101q-20 89 35 150q8 9 18 17q26 21 64.5 29.5t70.5 -3.5q16 -8 29 -25.5t13 -33.5q2 -35 -29 -45q-27 -8 -43 12q-8 11 -6 27q2 22 21 25q20 3 25 -18q2 -8 0 -19q-3 -9 -5 -9
q-3 0 -3 10q3 23 -12 22q-11 0 -13 -12q-1 -4 0 -8q3 -17 17 -20t25 7.5t8 26.5q-3 15 -17 27.5t-29 15.5q-36 6 -75.5 -30.5t-47.5 -85.5q-12 -76 29 -116q34 -34 73 -9q46 29 59 126q1 16 9 5l3 -6q0 -124 -3 -245q0 -21 -1 -37q7 13 21 24q24 18 62 32q-2 141 0 211v5
v6.5v5t1 4.5t2 3t3 1.5t5 -0.5l2 -7q12 -116 67 -136q38 -13 70 27q37 49 20 117q-13 51 -56.5 84.5t-77.5 15.5q-23 -13 -27 -37q-4 -23 18 -32q21 -8 30 11l2 8q3 16 -9 19q-12 4 -16 -11q-1 -5 0 -11zM177 112q-46 -15 -64 -40q-15 -22 -9.5 -57.5t23.5 -55.5
q44 -46 49 80q1 20 1 54v19zM304 108q-45 -16 -65 -40q-14 -23 -8.5 -57.5t22.5 -54.5q46 -52 51 146v6z" />
    <glyph glyph-name="g_q" unicode="gq" horiz-adv-x="568" 
d="M356 433q-13 -19 -26 -52q-29 -83 18 -138q33 -40 77 -34q46 7 58 65q3 14 3 30q0 28 -4 43q-15 45 -39 52q-12 3 -21 -4.5t-7.5 -18t13.5 -14.5q12 -3 16 6q-1 12 -16 14q-7 0 -7 2l7 4q24 1 26 -16q3 -15 -14 -19q-3 -1 -6 -1q-25 0 -27.5 23.5t18.5 32.5q9 3 20 2
q35 -4 53.5 -37t17.5 -70q-1 -50 -26 -84t-63 -37v-42q48 12 95.5 6t69.5 -32q35 -42 9 -83q-21 -34 -57 -33q-28 1 -46 28q-19 29 1 53q20 21 46 6q14 -8 24 -26q6 -14 2 -17q-1 -2 -3.5 -0.5t-4 2.5t-3 3.5t-2.5 3.5q-18 28 -35 18q-16 -9 -8 -28q3 -7 9 -12
q21 -18 41.5 -8t23 32.5t-14.5 43.5q-20 19 -62.5 23t-84.5 -7q3 -105 -1 -139q-16 -134 -97 -57q-30 30 -36.5 81.5t26.5 87.5q15 13 28 21q-44 27 -125 16v-11q-1 -216 -62 -207q-21 3 -49 35q-28 31 -29.5 82t33.5 83q26 21 63 32l3 87q-54 -63 -112 -26q-48 30 -63 101
q-20 89 35 150q8 9 18 17q26 21 64.5 29.5t70.5 -3.5q16 -8 29 -25.5t13 -33.5q2 -35 -29 -45q-27 -8 -43 12q-8 11 -6 27q2 22 21 25q20 3 25 -18q2 -8 0 -19q-3 -9 -5 -9q-3 0 -3 10q3 23 -12 22q-11 0 -13 -12q-1 -4 0 -8q3 -17 17 -20t25 7.5t8 26.5q-3 15 -17 27.5
t-29 15.5q-36 6 -75.5 -30.5t-47.5 -85.5q-12 -76 29 -116q34 -34 73 -9q46 29 59 126q1 16 9 5l3 -6q0 -142 -2 -211q44 8 86 1t65 -29q2 1 5.5 2.5t5.5 2.5v61q-66 16 -92.5 75t-0.5 132q16 48 54.5 80.5t85.5 22.5q35 -8 36 -41q1 -29 -22 -39q-13 -6 -29 0q-23 9 -19 30
t27 18q8 -1 16 -5q9 -3 8 -8q-1 -4 -10 0q-22 8 -26 -6q-4 -12 10 -16q3 -1 6 -1q18 -1 24.5 11.5t-0.5 26.5t-24 15q-20 1 -40 -14t-33 -34zM177 112q-46 -15 -64 -40q-15 -22 -9.5 -57.5t23.5 -55.5q44 -46 49 80q1 20 1 54v19zM385 100q-48 -19 -65 -48
q-13 -24 -4.5 -59.5t28.5 -54.5q45 -41 41 141v21z" />
    <glyph glyph-name="l_h" unicode="lh" horiz-adv-x="501" 
d="M14 195l4 26q-1 122 -1 366q-49 -10 -96.5 -1.5t-68.5 34.5q-32 46 -2 86q24 31 59 25q25 -4 39 -30q19 -31 -4 -52q-21 -20 -46 -2q-11 9 -19 26q-5 15 -1 17q5 5 12 -10q16 -29 34 -19q14 9 7 27q-3 7 -8 12q-25 25 -49 5q-23 -19 -14 -49q4 -10 12 -19
q19 -20 61 -26.5t83 2.5q2 128 16 173q26 81 91 11q27 -30 29.5 -80.5t-31.5 -84.5l-8 -6q34 -19 107 -5q4 156 30 198q28 43 79 -13q28 -31 30 -82t-32 -83q-22 -19 -64 -36q0 -47 -2 -147q29 34 60.5 40t54.5 -8.5t39 -40.5q14 -23 15.5 -63.5t-3.5 -78.5t-2.5 -84.5
t18.5 -79.5q7 -15 22 -16.5t24.5 9.5t2.5 26t-20 10q-15 -5 -3 -23q1 -2 3 -4q6 -7 4 -9q-4 -2 -10 4q-23 23 -7 40q14 15 33 2q3 -2 5 -5q21 -24 0 -48q-20 -23 -47 -12q-12 5 -21 18q-20 33 -27.5 69t-9 95.5t-2.5 74.5q-4 57 -43 78q-40 22 -75 -18q-32 -36 -41 -112
q0 -1 -1 -4q0 -2 -1 -3q-4 -1 -6.5 1.5t-3.5 9.5t-1.5 13.5t-0.5 15.5v13q0 77 2 227q-102 -19 -139 13l-20 -9q-1 -65 -0.5 -199t0.5 -165v-2q1 -1 1 -2q33 15 70.5 12t67.5 -30t30 -66q-2 -32 -34.5 -40t-43.5 26q-4 16 6.5 27t24 6t18.5 -27q0 -10 -4 -11q-5 0 -5 8
q-5 22 -18 17t-9 -20l2 -4q18 -21 37.5 -3t6.5 42q-11 18 -39 28q-27 8 -51 4t-41 -13t-34 -9t-31 17zM264 632q46 14 65 42q14 22 8 57.5t-24 54.5q-45 49 -49 -144v-10zM60 623q48 20 62 42q14 24 7.5 58.5t-24.5 53.5q-46 44 -45 -154z" />
    <glyph glyph-name="t_h" unicode="th" horiz-adv-x="477" 
d="M37 570q-4 60 -43 81q-19 10 -38 15q-12 39 17 41q33 2 69 -36q44 -47 41 -111v-3q31 -8 59.5 1t32.5 30q5 17 -6 30q-7 9 -17.5 7.5t-14 -9.5t2.5 -18q9 -9 16 -2t-6 16q-6 3 -4 6q1 1 7 -2q20 -11 11 -25t-25 -3q-19 13 -7.5 32t31.5 13q9 -4 19 -15q2 0 7.5 1.5
t6.5 1.5q4 156 30 198q28 43 79 -13q28 -31 30 -82t-32 -83q-22 -19 -64 -36q0 -47 -2 -147q29 34 60.5 40t54.5 -8.5t39 -40.5q14 -23 15.5 -63.5t-3.5 -78.5t-2.5 -84.5t18.5 -79.5q7 -15 22 -16.5t24.5 9.5t2.5 26t-20 10q-15 -5 -3 -23q1 -2 3 -4q6 -7 4 -9q-4 -2 -10 4
q-23 23 -7 40q14 15 33 2q3 -2 5 -5q21 -24 0 -48q-20 -23 -47 -12q-12 5 -21 18q-20 33 -27.5 69t-9 95.5t-2.5 74.5q-4 57 -43 78q-40 22 -75 -18q-32 -36 -41 -112q0 -1 -1 -4q0 -2 -1 -3q-4 -1 -6.5 1.5t-3.5 9.5t-1.5 13.5t-0.5 15.5v13q0 77 2 227l-6 -2q0 -9 -1 -13
q-6 -20 -28 -36t-44 -20q-18 -3 -35 0q-1 -12 -6.5 -70t-7.5 -88.5t-4 -77.5t1 -77.5t10 -48.5q6 -15 20 -17t23 8.5t2 26.5q-6 15 -18 11q-13 -5 -4 -21l4 -6q6 -8 4 -10q-4 -3 -9 5q-22 23 -7 41q13 15 30 1q3 -2 5 -5q21 -27 -1 -51q-21 -22 -45 -9q-10 5 -17 18
q-25 47 -29 118t1.5 163.5t3.5 134.5zM240 632q46 14 65 42q14 22 8 57.5t-24 54.5q-45 49 -49 -144v-10z" />
    <glyph glyph-name="j_j" unicode="jj" horiz-adv-x="388" 
d="M226 469q21 -1 22 12q1 11 -11 14q-5 1 -10 -1q-17 -4 -19 -18t9 -24.5t28 -6.5q27 6 44 53l33 1v-65q1 -65 1 -160.5t1 -148.5q48 11 95.5 2.5t66.5 -35.5q32 -44 4 -83q-23 -32 -58 -27q-26 3 -41 30q-17 30 4 51q21 20 46 2q12 -8 21 -26q6 -12 1 -17q-5 -3 -12 11
q-17 29 -35 18q-16 -10 -7 -29q2 -5 7 -10q19 -19 40 -10t24.5 31.5t-12.5 43.5q-19 20 -61 25.5t-83 -2.5q4 -225 -59 -216q-20 3 -46 30q-29 30 -32 81t31 84q9 7 24 17q-44 16 -112 4q4 -225 -59 -216q-20 3 -46 30q-29 30 -32 81t31 84q29 22 62 34v178t1 157
q-24 -17 -34 -18q-37 -4 -49 27q-11 28 10 44q11 8 27 8q22 0 26.5 -19.5t-15.5 -26.5q-9 -3 -20 -2q-10 0 -10 5q0 3 10 3q21 -1 22 12q1 11 -11 14q-5 1 -10 -1q-17 -4 -19 -18t9 -24.5t28 -6.5q27 6 44 53l33 1v-65q1 -65 1 -160.5t1 -148.5q90 17 141 -15l9 3v177.5
t1 157.5q-24 -17 -34 -18q-37 -4 -49 27q-11 28 10 44q11 8 27 8q22 0 26.5 -19.5t-15.5 -26.5q-9 -3 -20 -2q-10 0 -10 5q0 3 10 3zM235 -67q47 -47 46 155q-45 -16 -64 -42q-13 -23 -6.5 -57.5t24.5 -55.5zM41 -67q47 -47 46 155q-45 -16 -64 -42q-13 -23 -6.5 -57.5
t24.5 -55.5zM319 580q0 12 3 11q4 -1 4 -13q0 -28 -16 -35q-11 -6 -21.5 4t-9.5 29q2 20 18.5 34t32.5 -3q9 -13 2 -16q-5 -3 -11 7q-17 4 -21 -16t5 -25q5 -4 10 8q2 6 4 15zM125 580q0 12 3 11q4 -1 4 -13q0 -28 -16 -35q-11 -6 -21.5 4t-9.5 29q2 20 18.5 34t32.5 -3
q9 -13 2 -16q-5 -3 -11 7q-17 4 -21 -16t5 -25q5 -4 10 8q2 6 4 15z" />
    <glyph glyph-name="g_j" unicode="gj" horiz-adv-x="472" 
d="M310 469q21 -1 22 12q1 11 -11 14q-5 1 -10 -1q-17 -4 -19 -18t9 -24.5t28 -6.5q27 6 44 53l33 1v-65q1 -65 1 -160.5t1 -148.5q48 11 95.5 2.5t66.5 -35.5q32 -44 4 -83q-23 -32 -58 -27q-26 3 -41 30q-17 30 4 51q21 20 46 2q12 -8 21 -26q6 -12 1 -17q-5 -3 -12 11
q-17 29 -35 18q-16 -10 -7 -29q2 -5 7 -10q19 -19 40 -10t24.5 31.5t-12.5 43.5q-19 20 -61 25.5t-83 -2.5q4 -225 -59 -216q-20 3 -46 30q-29 30 -32 81t31 84q23 18 47 28q-44 27 -127 16v-11q-1 -216 -62 -207q-21 3 -49 35q-28 31 -29.5 82t33.5 83q26 21 63 32l3 87
q-54 -63 -112 -26q-48 30 -63 101q-20 89 35 150q8 9 18 17q26 21 64.5 29.5t70.5 -3.5q16 -8 29 -25.5t13 -33.5q2 -35 -29 -45q-27 -8 -43 12q-8 11 -6 27q2 22 21 25q20 3 25 -18q2 -8 0 -19q-3 -9 -5 -9q-3 0 -3 10q3 23 -12 22q-11 0 -13 -12q-1 -4 0 -8q3 -17 17 -20
t25 7.5t8 26.5q-3 15 -17 27.5t-29 15.5q-36 6 -75.5 -30.5t-47.5 -85.5q-12 -76 29 -116q34 -34 73 -9q46 29 59 126q1 16 9 5l3 -6q0 -142 -2 -211q90 15 141 -20v170.5t1 149.5q-24 -17 -34 -18q-37 -4 -49 27q-11 28 10 44q11 8 27 8q22 0 26.5 -19.5t-15.5 -26.5
q-9 -3 -20 -2q-10 0 -10 5q0 3 10 3zM177 112q-46 -15 -64 -40q-15 -22 -9.5 -57.5t23.5 -55.5q44 -46 49 80q1 20 1 54v19zM319 -67q47 -47 46 155q-45 -16 -64 -42q-13 -23 -6.5 -57.5t24.5 -55.5zM403 580q0 12 3 11q4 -1 4 -13q0 -28 -16 -35q-11 -6 -21.5 4t-9.5 29
q2 20 18.5 34t32.5 -3q9 -13 2 -16q-5 -3 -11 7q-17 4 -21 -16t5 -25q5 -4 10 8q2 6 4 15z" />
    <glyph glyph-name="j_p" unicode="jp" horiz-adv-x="494" 
d="M254 417q0 -10 -2 -10q-4 0 -6 10q-5 30 15 37q18 6 28 -12q2 -6 3 -12q4 -35 -29 -40.5t-46 24.5q-9 20 2.5 44.5t33.5 33.5q33 12 71 3t64 -31q66 -55 54 -149q-10 -72 -57 -111q-54 -44 -107 3q-9 7 -17 17q0 -55 1 -81q52 9 98.5 -1t65.5 -37q31 -45 1 -84
q-24 -31 -59 -25q-26 5 -40 32q-17 31 6 51q21 20 45 0q11 -9 19 -27q9 -12 3 -17q-5 -3 -11 10q-1 1 -1 2q-16 30 -35 19q-15 -8 -8 -26q2 -7 8 -12q18 -19 39 -11t25.5 29.5t-11.5 42.5q-19 21 -61.5 28.5t-83.5 -0.5q0 -143 -21 -189q-27 -61 -88 8q-20 21 -26 57
q-3 -33 -9.5 -56t-18 -40t-30.5 -13t-44 30q-29 30 -32 81t31 84q29 22 62 34v178t1 157q-24 -17 -34 -18q-37 -4 -49 27q-11 28 10 44q11 8 27 8q22 0 26.5 -19.5t-15.5 -26.5q-9 -3 -20 -2q-10 0 -10 5q0 3 10 3q21 -1 22 12q1 11 -11 14q-5 1 -10 -1q-17 -4 -19 -18
t9 -24.5t28 -6.5q27 6 44 53l33 1v-65q1 -65 1 -160.5t1 -148.5q44 7 78 4q8 2 12 4q-2 141 0 211v5v6.5v5t1 4.5t2 3t3 1.5t5 -0.5l2 -7q12 -116 67 -136q38 -13 70 27q37 49 20 117q-13 51 -56.5 84.5t-77.5 15.5q-23 -13 -27 -37q-4 -23 18 -32q21 -8 30 11l2 8
q3 16 -9 19q-12 4 -16 -11q-1 -5 0 -11zM41 -67q47 -47 46 155q-45 -16 -64 -42q-13 -23 -6.5 -57.5t24.5 -55.5zM220 108q-45 -16 -65 -40q-14 -23 -8.5 -57.5t22.5 -54.5q46 -52 51 146v6zM125 580q0 12 3 11q4 -1 4 -13q0 -28 -16 -35q-11 -6 -21.5 4t-9.5 29
q2 20 18.5 34t32.5 -3q9 -13 2 -16q-5 -3 -11 7q-17 4 -21 -16t5 -25q5 -4 10 8q2 6 4 15zM161 104l-31 -4v-40q8 25 28 41z" />
    <glyph glyph-name="y_j" unicode="yj" horiz-adv-x="486" 
d="M324 469q21 -1 22 12q1 11 -11 14q-5 1 -10 -1q-17 -4 -19 -18t9 -24.5t28 -6.5q27 6 44 53l33 1v-65q1 -65 1 -160.5t1 -148.5q48 11 95.5 2.5t66.5 -35.5q32 -44 4 -83q-23 -32 -58 -27q-26 3 -41 30q-17 30 4 51q21 20 46 2q12 -8 21 -26q6 -12 1 -17q-5 -3 -12 11
q-17 29 -35 18q-16 -10 -7 -29q2 -5 7 -10q19 -19 40 -10t24.5 31.5t-12.5 43.5q-19 20 -61 25.5t-83 -2.5q4 -225 -59 -216q-20 3 -46 30q-29 30 -32 81t31 84q16 13 38 24q-50 28 -131 14q0 -7 -1 -26q-6 -161 -40 -184q-24 -16 -63 29q-27 31 -28 82t34 83q21 17 59 31
q-1 21 2.5 64t3.5 51q-26 -45 -59 -59t-59.5 0t-44.5 45t-17 67q0 15 4.5 53t6 59.5t-3.5 50.5q-4 16 -19 20t-26 -5t-6 -25t18 -14q14 3 7 20q-1 4 -3 7q-7 7 -2 10q2 1 9 -6q20 -27 0 -41q-17 -12 -33 4l-4 6q-18 28 12 49q27 20 54 6q12 -7 18 -21q10 -24 10.5 -53
t-2.5 -64.5t-2 -58.5q4 -59 40 -78t66 23q25 35 33 104q6 97 -2 123q45 48 49 11v-3q3 -142 -9 -335q101 19 153 -23v175t1 154q-24 -17 -34 -18q-37 -4 -49 27q-11 28 10 44q11 8 27 8q22 0 26.5 -19.5t-15.5 -26.5q-9 -3 -20 -2q-10 0 -10 5q0 3 10 3zM333 -67
q47 -47 46 155q-45 -16 -64 -42q-13 -23 -6.5 -57.5t24.5 -55.5zM185 107q-46 -15 -63 -39q-14 -22 -9 -57.5t23 -55.5q31 -36 43 42q8 51 6 110zM417 580q0 12 3 11q4 -1 4 -13q0 -28 -16 -35q-11 -6 -21.5 4t-9.5 29q2 20 18.5 34t32.5 -3q9 -13 2 -16q-5 -3 -11 7
q-17 4 -21 -16t5 -25q5 -4 10 8q2 6 4 15z" />
    <glyph glyph-name="l_k" unicode="lk" horiz-adv-x="538" 
d="M14 195l4 26q-1 122 -1 366q-49 -10 -96.5 -1.5t-68.5 34.5q-32 46 -2 86q24 31 59 25q25 -4 39 -30q19 -31 -4 -52q-21 -20 -46 -2q-11 9 -19 26q-5 15 -1 17q5 5 12 -10q16 -29 34 -19q14 9 7 27q-3 7 -8 12q-25 25 -49 5q-23 -19 -14 -49q4 -10 12 -19
q19 -20 61 -26.5t83 2.5q2 128 16 173q26 81 91 11q24 -27 29 -72t-19 -81q48 -21 117 -9q-2 116 24 177q30 68 86 5q28 -30 29.5 -81.5t-33.5 -83.5q-28 -20 -62 -32l-3 -220q62 90 139 99q53 6 74 -30q23 -37 -16 -88q-17 -18 -42 -13t-31 33q-5 25 16 35q20 9 32 -13
q5 -8 6 -19q3 -11 -2 -12q-3 -1 -4.5 2.5t-1.5 7.5q-5 22 -18 21q-13 -2 -13 -16q0 -6 3 -12q12 -20 30 -14.5t23 24.5q6 24 -19 39.5t-48 9.5q-37 -11 -74 -45.5t-50 -72.5q18 4 24 3q51 -4 81 -27.5t42 -59t19 -72t22 -74t41 -58.5q8 -6 17 -3t10 10.5t-6 14.5
q-11 8 -15 -1q-3 -7 9 -12q6 -3 5 -5h-6q-20 7 -16 20.5t21 7.5q15 -7 15 -21t-11 -20t-27 2q-28 17 -48 48.5t-32 63t-26 61.5t-38.5 50.5t-59.5 23.5q-18 0 -26 -3q-1 -12 -1 -36v-22q-5 -63 -49 -10q4 14 5 22v20q-1 -1 -7 -8t-9 -11q-23 28 17 66q4 302 4 303
q-87 -15 -138 16q-24 -15 -52 -26q-1 -65 -0.5 -199t0.5 -165v-2q1 -1 1 -2q33 15 70.5 12t67.5 -30t30 -66q-2 -32 -34.5 -40t-43.5 26q-4 16 6.5 27t24 6t18.5 -27q0 -10 -4 -11q-5 0 -5 8q-5 22 -18 17t-9 -20l2 -4q18 -21 37.5 -3t6.5 42q-11 18 -39 28q-27 8 -51 4
t-41 -13t-34 -9t-31 17zM294 645q46 16 64 40q14 22 8.5 57.5t-23.5 55.5q-45 50 -49 -142v-11zM60 623q48 20 62 42q14 24 7.5 58.5t-24.5 53.5q-46 44 -45 -154z" />
    <glyph glyph-name="t_k" unicode="tk" horiz-adv-x="514" 
d="M295 339q51 -4 81 -27.5t42 -59t19 -72t22 -74t41 -58.5q8 -6 17 -3t10 10.5t-6 14.5q-11 8 -15 -1q-3 -7 9 -12q6 -3 5 -5h-6q-20 7 -16 20.5t21 7.5q15 -7 15 -21t-11 -20t-27 2q-28 17 -48 48.5t-32 63t-26 61.5t-38.5 50.5t-59.5 23.5q-18 0 -26 -3q-1 -12 -1 -36
v-22q-5 -63 -49 -10q4 14 5 22v20q-1 -1 -7 -8t-9 -11q-23 28 17 66q4 302 4 303q-26 -4 -38 -4q3 -13 0 -25q-6 -20 -27.5 -36t-44.5 -20q-18 -3 -35 0q-1 -12 -6.5 -70t-7.5 -88.5t-4 -77.5t1 -77.5t10 -48.5q6 -15 20 -17t23 8.5t2 26.5q-6 15 -18 11q-13 -5 -4 -21l4 -6
q6 -8 4 -10q-4 -3 -9 5q-22 23 -7 41q13 15 30 1q3 -2 5 -5q21 -27 -1 -51q-21 -22 -45 -9q-10 5 -17 18q-25 47 -29 118t1.5 163.5t3.5 134.5q-4 60 -43 81q-19 10 -38 15q-12 39 17 41q33 2 69 -36q44 -47 41 -111v-3q30 -9 59 -0.5t33 29.5q2 9 0 19q-82 0 -111 42
q-31 45 -1 84q25 31 59 24q25 -4 39 -31q16 -30 -5 -51q-21 -20 -46 -1q-12 9 -20 27q-6 14 -1 17q5 4 12 -10q16 -30 35 -20q15 8 8 27q-3 6 -8 12q-19 19 -40 11t-25 -30t11 -43q19 -21 60.5 -28.5t83.5 0.5q-2 116 24 177q30 68 86 5q28 -30 29.5 -81.5t-33.5 -83.5
q-28 -20 -62 -32l-3 -220q62 90 139 99q53 6 74 -30q23 -37 -16 -88q-17 -18 -42 -13t-31 33q-5 25 16 35q20 9 32 -13q5 -8 6 -19q3 -11 -2 -12q-3 -1 -4.5 2.5t-1.5 7.5q-5 22 -18 21q-13 -2 -13 -16q0 -6 3 -12q12 -20 30 -14.5t23 24.5q6 24 -19 39.5t-48 9.5
q-37 -11 -74 -45.5t-50 -72.5q18 4 24 3zM270 645q46 16 64 40q14 22 8.5 57.5t-23.5 55.5q-45 50 -49 -142v-11z" />
    <glyph glyph-name="t_l" unicode="tl" horiz-adv-x="404" 
d="M37 570q-4 60 -43 81q-19 10 -38 15q-12 39 17 41q33 2 69 -36q44 -47 41 -111v-3q31 -8 59.5 1t32.5 30q5 17 -6 30q-7 9 -17.5 7.5t-14 -9.5t2.5 -18q9 -9 16 -2t-6 16q-6 3 -4 6q1 1 7 -2q20 -11 11 -25t-25 -3q-19 13 -7.5 32t31.5 13q16 -6 23 -24q14 2 20 4
q2 128 16 173q26 81 91 11q27 -30 29.5 -80.5t-31.5 -84.5q-22 -17 -61 -33q-1 -65 -0.5 -199t0.5 -165v-2q1 -1 1 -2q33 15 70.5 12t67.5 -30t30 -66q-2 -32 -34.5 -40t-43.5 26q-4 16 6.5 27t24 6t18.5 -27q0 -10 -4 -11q-5 0 -5 8q-5 22 -18 17t-9 -20l2 -4
q18 -21 37.5 -3t6.5 42q-11 18 -39 28q-27 8 -51 4t-41 -13t-34 -9t-31 17l4 26q-1 122 -1 366q-9 -3 -18 -3q-1 -2 -1 -4q-6 -20 -28 -36t-44 -20q-18 -3 -35 0q-1 -12 -6.5 -70t-7.5 -88.5t-4 -77.5t1 -77.5t10 -48.5q6 -15 20 -17t23 8.5t2 26.5q-6 15 -18 11
q-13 -5 -4 -21l4 -6q6 -8 4 -10q-4 -3 -9 5q-22 23 -7 41q13 15 30 1q3 -2 5 -5q21 -27 -1 -51q-21 -22 -45 -9q-10 5 -17 18q-25 47 -29 118t1.5 163.5t3.5 134.5zM250 623q48 20 62 42q14 24 7.5 58.5t-24.5 53.5q-46 44 -45 -154z" />
    <glyph glyph-name="y_p" unicode="yp" horiz-adv-x="592" 
d="M352 417q0 -10 -2 -10q-4 0 -6 10q-5 30 15 37q18 6 28 -12q2 -6 3 -12q4 -35 -29 -40.5t-46 24.5q-9 20 2.5 44.5t33.5 33.5q33 12 71 3t64 -31q66 -55 54 -149q-10 -72 -57 -111q-54 -44 -107 3q-9 7 -17 17q0 -55 1 -81q52 9 98.5 -1t65.5 -37q31 -45 1 -84
q-24 -31 -59 -25q-26 5 -40 32q-17 31 6 51q21 20 45 0q11 -9 19 -27q9 -12 3 -17q-5 -3 -11 10q-1 1 -1 2q-16 30 -35 19q-15 -8 -8 -26q2 -7 8 -12q18 -19 39 -11t25.5 29.5t-11.5 42.5q-19 21 -61.5 28.5t-83.5 -0.5q0 -143 -21 -189q-27 -61 -88 8q-28 31 -29 82t34 83
q24 18 62 32q-2 141 0 211v5v6.5v5t1 4.5t2 3t3 1.5t5 -0.5l2 -7q12 -116 67 -136q38 -13 70 27q37 49 20 117q-13 51 -56.5 84.5t-77.5 15.5q-23 -13 -27 -37q-4 -23 18 -32q21 -8 30 11l2 8q3 16 -9 19q-12 4 -16 -11q-1 -5 0 -11zM48 297q4 -59 40 -78t66 23
q25 35 33 104q6 97 -2 123q45 48 49 11v-3q2 -70 -7 -335q-3 -108 -8 -141q-22 -154 -100 -65q-27 31 -28 82t34 83q21 17 59 31q-1 21 2.5 64t3.5 51q-26 -45 -59 -59t-59.5 0t-44.5 45t-17 67q0 15 4.5 53t6 59.5t-3.5 50.5q-4 16 -19 20t-26 -5t-6 -25t18 -14q14 3 7 20
q-1 4 -3 7q-7 7 -2 10q2 1 9 -6q20 -27 0 -41q-17 -12 -33 4l-4 6q-18 28 12 49q27 20 54 6q12 -7 18 -21q10 -24 10.5 -53t-2.5 -64.5t-2 -58.5zM318 108q-45 -16 -65 -40q-14 -23 -8.5 -57.5t22.5 -54.5q46 -52 51 146v6zM185 107q-43 -14 -62 -41q-14 -22 -9.5 -57
t22.5 -54q31 -36 43 42q8 51 6 110z" />
    <glyph glyph-name="j_q" unicode="jq" horiz-adv-x="484" 
d="M272 433q-13 -19 -26 -52q-29 -83 18 -138q33 -40 77 -34q46 7 58 65q3 14 3 30q0 28 -4 43q-15 45 -39 52q-12 3 -21 -4.5t-7.5 -18t13.5 -14.5q12 -3 16 6q-1 12 -16 14q-7 0 -7 2l7 4q24 1 26 -16q3 -15 -14 -19q-3 -1 -6 -1q-25 0 -27.5 23.5t18.5 32.5q9 3 20 2
q35 -4 53.5 -37t17.5 -70q-1 -50 -26 -84t-63 -37v-42q48 12 95.5 6t69.5 -32q35 -42 9 -83q-21 -34 -57 -33q-28 1 -46 28q-19 29 1 53q20 21 46 6q14 -8 24 -26q6 -14 2 -17q-1 -2 -3.5 -0.5t-4 2.5t-3 3.5t-2.5 3.5q-18 28 -35 18q-16 -9 -8 -28q3 -7 9 -12
q21 -18 41.5 -8t23 32.5t-14.5 43.5q-20 19 -62.5 23t-84.5 -7q3 -105 -1 -139q-16 -134 -97 -57q-30 30 -36.5 81.5t26.5 87.5q6 6 10 8q-46 18 -115 6q4 -225 -59 -216q-20 3 -46 30q-29 30 -32 81t31 84q29 22 62 34v178t1 157q-24 -17 -34 -18q-37 -4 -49 27
q-11 28 10 44q11 8 27 8q22 0 26.5 -19.5t-15.5 -26.5q-9 -3 -20 -2q-10 0 -10 5q0 3 10 3q21 -1 22 12q1 11 -11 14q-5 1 -10 -1q-17 -4 -19 -18t9 -24.5t28 -6.5q27 6 44 53l33 1v-65q1 -65 1 -160.5t1 -148.5q91 17 140 -14q20 10 31 14v61q-66 16 -92.5 75t-0.5 132
q16 48 54.5 80.5t85.5 22.5q35 -8 36 -41q1 -29 -22 -39q-13 -6 -29 0q-23 9 -19 30t27 18q8 -1 16 -5q9 -3 8 -8q-1 -4 -10 0q-22 8 -26 -6q-4 -12 10 -16q3 -1 6 -1q18 -1 24.5 11.5t-0.5 26.5t-24 15q-20 1 -40 -14t-33 -34zM301 100q-48 -19 -65 -48q-13 -24 -4.5 -59.5
t28.5 -54.5q45 -41 41 141v21zM41 -67q47 -47 46 155q-45 -16 -64 -42q-13 -23 -6.5 -57.5t24.5 -55.5zM125 580q0 12 3 11q4 -1 4 -13q0 -28 -16 -35q-11 -6 -21.5 4t-9.5 29q2 20 18.5 34t32.5 -3q9 -13 2 -16q-5 -3 -11 7q-17 4 -21 -16t5 -25q5 -4 10 8q2 6 4 15z" />
    <glyph glyph-name="q_p" unicode="qp" horiz-adv-x="590" 
d="M350 417q0 -10 -2 -10q-4 0 -6 10q-5 30 15 37q18 6 28 -12q2 -6 3 -12q4 -35 -29 -40.5t-46 24.5q-9 20 2.5 44.5t33.5 33.5q33 12 71 3t64 -31q66 -55 54 -149q-10 -72 -57 -111q-54 -44 -107 3q-9 7 -17 17q0 -55 1 -81q52 9 98.5 -1t65.5 -37q31 -45 1 -84
q-24 -31 -59 -25q-26 5 -40 32q-17 31 6 51q21 20 45 0q11 -9 19 -27q9 -12 3 -17q-5 -3 -11 10q-1 1 -1 2q-16 30 -35 19q-15 -8 -8 -26q2 -7 8 -12q18 -19 39 -11t25.5 29.5t-11.5 42.5q-19 21 -61.5 28.5t-83.5 -0.5q0 -143 -21 -189q-27 -61 -88 8q-28 31 -29.5 83
t34.5 82l16 11q-51 17 -121 1q3 -105 -1 -139q-16 -134 -97 -57q-31 30 -37 82t27 87q27 24 66 39v61q-66 16 -92.5 75t-0.5 132q16 48 54.5 80.5t85.5 22.5q35 -8 36 -41q1 -29 -22 -39q-13 -6 -29 0q-23 9 -19 30t27 18q8 -1 16 -5q9 -3 8 -8q-1 -4 -10 0q-22 8 -26 -6
q-4 -12 10 -16q3 -1 6 -1q18 -1 24.5 11.5t-0.5 26.5t-24 15q-20 1 -40 -14t-33 -34t-26 -52q-29 -83 18 -138q33 -40 77 -34q46 7 58 65q3 14 3 30q0 28 -4 43q-15 45 -39 52q-12 3 -21 -4.5t-7.5 -18t13.5 -14.5q12 -3 16 6q-1 12 -16 14q-7 0 -7 2l7 4q24 1 26 -16
q3 -15 -14 -19q-3 -1 -6 -1q-25 0 -27.5 23.5t18.5 32.5q9 3 20 2q35 -4 53.5 -37t17.5 -70q-1 -50 -26 -84t-63 -37v-42q86 18 149 -14q6 3 18 7q-2 141 0 211v5v6.5v5t1 4.5t2 3t3 1.5t5 -0.5l2 -7q12 -116 67 -136q38 -13 70 27q37 49 20 117q-13 51 -56.5 84.5
t-77.5 15.5q-23 -13 -27 -37q-4 -23 18 -32q21 -8 30 11l2 8q3 16 -9 19q-12 4 -16 -11q-1 -5 0 -11zM107 100q-48 -19 -65 -48q-13 -24 -4.5 -59.5t28.5 -54.5q45 -42 41 141v21zM316 108q-49 -17 -65 -40q-14 -23 -8.5 -57.5t22.5 -54.5q30 -36 43 42q6 35 8 110z" />
    <glyph glyph-name="l_l" unicode="ll" horiz-adv-x="428" 
d="M14 195l4 26q-1 122 -1 366q-49 -10 -97 -2t-68 35q-35 52 -5 91q24 30 61 22q25 -6 40 -32q18 -32 -5 -53q-20 -20 -45 -1q-11 9 -19 26q-5 15 -1 17q5 5 12 -10q16 -29 34 -19q14 9 7 27q-3 7 -8 12q-19 19 -39.5 10.5t-24 -30.5t12.5 -43q19 -20 61 -26.5t83 2.5
q2 128 16 173q26 81 91 11q35 -35 33 -91.5t-50 -84.5q48 -23 124 -8q2 121 14 164q24 93 93 20q27 -29 30 -73t-22 -81t-71 -44q-1 -65 -0.5 -199t0.5 -165v-2q1 -1 1 -2q33 15 70.5 12t67.5 -30t30 -66q-2 -32 -34.5 -40t-43.5 26q-4 16 6.5 27t24 6t18.5 -27
q0 -10 -4 -11q-5 0 -5 8q-5 22 -18 17t-9 -20l2 -4q18 -21 37.5 -3t6.5 42q-11 18 -39 28q-27 8 -51 4t-41 -13t-34 -9t-31 17l4 26q-1 122 -1 366q-99 -19 -152 20l-19 -8q-1 -65 -0.5 -199t0.5 -165v-2q1 -1 1 -2q33 15 70.5 12t67.5 -30t30 -66q-2 -32 -34.5 -40
t-43.5 26q-4 16 6.5 27t24 6t18.5 -27q0 -10 -4 -11q-5 0 -5 8q-5 22 -18 17t-9 -20l2 -4q18 -21 37.5 -3t6.5 42q-11 18 -39 28q-27 8 -51 4t-41 -13t-34 -9t-31 17zM274 623q36 5 55.5 33t16 62.5t-26.5 58.5q-46 44 -45 -154zM60 623q52 20 67.5 66t-22.5 88
q-46 44 -45 -154z" />
    <glyph glyph-name="B_b" unicode="Bb" horiz-adv-x="792" 
d="M112 593q13 0 13 -3q0 -5 -12 -7q-37 -9 -46 16q-9 21 11 36q8 5 18 7q29 4 44 -15.5t8.5 -44.5t-30.5 -36q-27 -13 -57.5 1.5t-43.5 43.5q-16 41 -5.5 89.5t37.5 83.5q37 45 89.5 65t102.5 11t92.5 -34.5t64 -71.5t11.5 -100q-1 -6 -5 -16q46 -15 110 -2q2 112 10 151
q23 109 93 36q50 -58 28.5 -116.5t-87.5 -82.5v-146q52 64 110 30q49 -28 67 -98q23 -88 -29 -151q-8 -10 -18 -19q-27 -25 -75 -32.5t-74 9.5q-21 14 -20 37.5t18.5 33.5t40.5 -1q19 -13 10 -33t-32 -10q-5 3 -11 7q-7 7 -5 9q0 1 10 -2q18 -12 25 0q6 12 -7 19q-2 1 -5 2
q-17 5 -26 -5.5t-5 -25.5t20 -20q45 -15 89.5 19t51.5 91q9 77 -34 120q-35 36 -72 13q-45 -28 -55 -130q0 -1 -1 -4q0 -2 -1 -3q-4 -2 -7 -4q-9 0 -5 11q-4 127 -4 270q-64 -14 -122 7q-23 -30 -67 -47.5t-85 -18.5v-34q61 4 123.5 -20.5t79.5 -73.5q16 -46 0 -92.5
t-56 -78.5t-90.5 -49t-109 -5t-105.5 54q-36 32 -57.5 85.5t-9.5 96.5q9 33 39.5 55t63.5 13q27 -7 38 -33.5t-1.5 -50.5t-44.5 -24q-31 -1 -39 24q-7 25 17 37q12 6 30 5q14 0 14 -5t-14 -5q-29 -1 -29 -19q0 -15 17 -18q7 -2 14 1q23 8 25 27.5t-14.5 33.5t-38.5 6
q-32 -9 -47 -45q-18 -56 29 -124.5t118 -75.5q90 -9 155 51q54 51 47 108q-9 65 -96 87q-26 7 -58 9q0 -109 -32 -163q-12 -20 -31 -17t-25.5 19.5t5.5 34.5q14 16 27 4q16 -14 -2 -34l-2 -2q-5 -5 -8 -4q-2 2 3 8q13 15 3 22q-10 5 -17 -8q-6 -13 1 -22t18.5 -8t16.5 14
q16 33 14 157q-12 0 -18 -1q-7 0 -10 1q0 15 28 21l-2 40q-21 5 -23 16q4 3 10 3l12 2q-4 72 -4 92q0 22 2.5 35.5t7 22t14 3.5t23.5 -23q-4 -10 -8 -32q-3 -28 -3 -92q109 26 124 94q13 53 -37 98q-57 51 -137 38q-10 -1 -20 -4q-64 -17 -106.5 -82.5t-18.5 -110.5
q7 -13 20.5 -23t27.5 -11q21 -3 33.5 12t8 32.5t-25.5 20.5t-26 -13q-4 -15 14 -19q7 -1 15 0zM558 629q53 21 68 64.5t-25 90.5q-47 45 -43 -155z" />
    <glyph glyph-name="B_h" unicode="Bh" horiz-adv-x="775" 
d="M112 593q13 0 13 -3q0 -5 -12 -7q-37 -9 -46 16q-9 21 11 36q8 5 18 7q29 4 44 -15.5t8.5 -44.5t-30.5 -36q-27 -13 -57.5 1.5t-43.5 43.5q-16 41 -5.5 89.5t37.5 83.5q37 45 89.5 65t102.5 11t92.5 -34.5t64 -71.5t11.5 -100q-4 -16 -8 -23q41 -8 91 2q2 128 16 173
q26 81 91 11q27 -30 29.5 -80.5t-31.5 -84.5q-22 -17 -61 -33q-1 -12 -1 -141q29 34 60.5 40t54.5 -8.5t39 -40.5q14 -23 15.5 -63.5t-3.5 -78.5t-2.5 -84.5t18.5 -79.5q7 -15 22 -16.5t24.5 9.5t2.5 26t-20 10q-15 -5 -3 -23q1 -2 3 -4q6 -7 4 -9q-4 -2 -10 4q-23 23 -7 40
q14 15 33 2q3 -2 5 -5q21 -24 0 -48q-20 -23 -47 -12q-12 5 -21 18q-20 33 -27.5 69t-9 95.5t-2.5 74.5q-4 57 -43 78q-40 22 -75 -18q-32 -36 -41 -112q0 -1 -1 -4q0 -2 -1 -3q-4 -1 -6.5 1.5t-3.5 9.5t-1.5 13.5t-0.5 15.5v13q0 130 2 219q-63 -12 -110 0q-25 -25 -66 -40
t-77 -15v-34q61 4 123.5 -20.5t79.5 -73.5q16 -46 0 -92.5t-56 -78.5t-90.5 -49t-109 -5t-105.5 54q-36 32 -57.5 85.5t-9.5 96.5q9 33 39.5 55t63.5 13q27 -7 38 -33.5t-1.5 -50.5t-44.5 -24q-31 -1 -39 24q-7 25 17 37q12 6 30 5q14 0 14 -5t-14 -5q-29 -1 -29 -19
q0 -15 17 -18q7 -2 14 1q23 8 25 27.5t-14.5 33.5t-38.5 6q-32 -9 -47 -45q-18 -56 29 -124.5t118 -75.5q90 -9 155 51q54 51 47 108q-9 65 -96 87q-26 7 -58 9q0 -109 -32 -163q-12 -20 -31 -17t-25.5 19.5t5.5 34.5q14 16 27 4q16 -14 -2 -34l-2 -2q-5 -5 -8 -4q-2 2 3 8
q13 15 3 22q-10 5 -17 -8q-6 -13 1 -22t18.5 -8t16.5 14q16 33 14 157q-12 0 -18 -1q-7 0 -10 1q0 15 28 21l-2 40q-21 5 -23 16q4 3 10 3l12 2q-4 72 -4 92q0 22 2.5 35.5t7 22t14 3.5t23.5 -23q-4 -10 -8 -32q-3 -28 -3 -92q109 26 124 94q13 53 -37 98q-57 51 -137 38
q-10 -1 -20 -4q-64 -17 -106.5 -82.5t-18.5 -110.5q7 -13 20.5 -23t27.5 -11q21 -3 33.5 12t8 32.5t-25.5 20.5t-26 -13q-4 -15 14 -19q7 -1 15 0zM536 623q48 20 62 42q14 24 7.5 58.5t-24.5 53.5q-46 44 -45 -154z" />
    <glyph glyph-name="B_k" unicode="Bk" horiz-adv-x="812" 
d="M112 593q13 0 13 -3q0 -5 -12 -7q-37 -9 -46 16q-9 21 11 36q8 5 18 7q29 4 44 -15.5t8.5 -44.5t-30.5 -36q-27 -13 -57.5 1.5t-43.5 43.5q-16 41 -5.5 89.5t37.5 83.5q45 56 112.5 71t124.5 -5t95 -71.5t29 -116.5q46 -19 114 -7q-2 116 24 177q30 68 86 5
q28 -30 29.5 -81.5t-33.5 -83.5q-28 -20 -62 -32l-3 -220q62 90 139 99q53 6 74 -30q23 -37 -16 -88q-17 -18 -42 -13t-31 33q-5 25 16 35q20 9 32 -13q5 -8 6 -19q3 -11 -2 -12q-3 -1 -4.5 2.5t-1.5 7.5q-5 22 -18 21q-13 -2 -13 -16q0 -6 3 -12q12 -20 30 -14.5t23 24.5
q6 24 -19 39.5t-48 9.5q-37 -11 -74 -45.5t-50 -72.5q18 4 24 3q51 -4 81 -27.5t42 -59t19 -72t22 -74t41 -58.5q8 -6 17 -3t10 10.5t-6 14.5q-11 8 -15 -1q-3 -7 9 -12q6 -3 5 -5h-6q-20 7 -16 20.5t21 7.5q15 -7 15 -21t-11 -20t-27 2q-28 17 -48 48.5t-32 63t-26 61.5
t-38.5 50.5t-59.5 23.5q-18 0 -26 -3q-1 -12 -1 -36v-22q-5 -63 -49 -10q4 14 5 22v20q-1 -1 -7 -8t-9 -11q-23 28 17 66q4 302 4 303q-66 -12 -121 7q-17 -38 -66 -60.5t-97 -23.5v-34q61 4 123.5 -20.5t79.5 -73.5q16 -46 0 -92.5t-56 -78.5t-90.5 -49t-109 -5t-105.5 54
q-36 32 -57.5 85.5t-9.5 96.5q9 33 39.5 55t63.5 13q27 -7 38 -33.5t-1.5 -50.5t-44.5 -24q-31 -1 -39 24q-7 25 17 37q12 6 30 5q14 0 14 -5t-14 -5q-29 -1 -29 -19q0 -15 17 -18q7 -2 14 1q23 8 25 27.5t-14.5 33.5t-38.5 6q-32 -9 -47 -45q-18 -56 29 -124.5t118 -75.5
q90 -9 155 51q54 51 47 108q-9 65 -96 87q-26 7 -58 9q0 -109 -32 -163q-12 -20 -31 -17t-25.5 19.5t5.5 34.5q14 16 27 4q16 -14 -2 -34l-2 -2q-5 -5 -8 -4q-2 2 3 8q13 15 3 22q-10 5 -17 -8q-6 -13 1 -22t18.5 -8t16.5 14q16 33 14 157q-12 0 -18 -1q-7 0 -10 1
q0 15 28 21l-2 40q-21 5 -23 16q4 3 10 3l12 2q-4 72 -4 92q0 22 2.5 35.5t7 22t14 3.5t23.5 -23q-4 -10 -8 -32q-3 -28 -3 -92q109 26 124 94q13 53 -37 98q-57 51 -137 38q-10 -1 -20 -4q-64 -17 -106.5 -82.5t-18.5 -110.5q7 -13 20.5 -23t27.5 -11q21 -3 33.5 12t8 32.5
t-25.5 20.5t-26 -13q-4 -15 14 -19q7 -1 15 0zM568 645q46 16 64 40q14 22 8.5 57.5t-23.5 55.5q-45 50 -49 -142v-11z" />
    <glyph glyph-name="B_l" unicode="Bl" horiz-adv-x="702" 
d="M112 593q13 0 13 -3q0 -5 -12 -7q-37 -9 -46 16q-9 21 11 36q8 5 18 7q29 4 44 -15.5t8.5 -44.5t-30.5 -36q-27 -13 -57.5 1.5t-43.5 43.5q-16 41 -5.5 89.5t37.5 83.5q37 45 89.5 65t102.5 11t92.5 -34.5t64 -71.5t11.5 -100q-4 -14 -7 -21q46 -11 102 0q2 128 16 173
q26 81 91 11q27 -30 29.5 -80.5t-31.5 -84.5q-22 -17 -61 -33q-1 -65 -0.5 -199t0.5 -165v-2q1 -1 1 -2q33 15 70.5 12t67.5 -30t30 -66q-2 -32 -34.5 -40t-43.5 26q-4 16 6.5 27t24 6t18.5 -27q0 -10 -4 -11q-5 0 -5 8q-5 22 -18 17t-9 -20l2 -4q18 -21 37.5 -3t6.5 42
q-11 18 -39 28q-27 8 -51 4t-41 -13t-34 -9t-31 17l4 26q-1 122 -1 366q-68 -13 -119 4q-24 -27 -66 -43t-80 -16v-34q61 4 123.5 -20.5t79.5 -73.5q16 -46 0 -92.5t-56 -78.5t-90.5 -49t-109 -5t-105.5 54q-36 32 -57.5 85.5t-9.5 96.5q9 33 39.5 55t63.5 13
q27 -7 38 -33.5t-1.5 -50.5t-44.5 -24q-31 -1 -39 24q-7 25 17 37q12 6 30 5q14 0 14 -5t-14 -5q-29 -1 -29 -19q0 -15 17 -18q7 -2 14 1q23 8 25 27.5t-14.5 33.5t-38.5 6q-32 -9 -47 -45q-18 -56 29 -124.5t118 -75.5q90 -9 155 51q54 51 47 108q-9 65 -96 87q-26 7 -58 9
q0 -109 -32 -163q-12 -20 -31 -17t-25.5 19.5t5.5 34.5q14 16 27 4q16 -14 -2 -34l-2 -2q-5 -5 -8 -4q-2 2 3 8q13 15 3 22q-10 5 -17 -8q-6 -13 1 -22t18.5 -8t16.5 14q16 33 14 157q-12 0 -18 -1q-7 0 -10 1q0 15 28 21l-2 40q-21 5 -23 16q4 3 10 3l12 2q-4 72 -4 92
q0 22 2.5 35.5t7 22t14 3.5t23.5 -23q-4 -10 -8 -32q-3 -28 -3 -92q109 26 124 94q13 53 -37 98q-57 51 -137 38q-10 -1 -20 -4q-64 -17 -106.5 -82.5t-18.5 -110.5q7 -13 20.5 -23t27.5 -11q21 -3 33.5 12t8 32.5t-25.5 20.5t-26 -13q-4 -15 14 -19q7 -1 15 0zM548 623
q48 20 62 42q14 24 7.5 58.5t-24.5 53.5q-46 44 -45 -154z" />
    <glyph glyph-name="B_t" unicode="Bt" horiz-adv-x="678" 
d="M112 593q13 0 13 -3q0 -5 -12 -7q-37 -9 -46 16q-9 21 11 36q8 5 18 7q29 4 44 -15.5t8.5 -44.5t-30.5 -36q-27 -13 -57.5 1.5t-43.5 43.5q-16 41 -5.5 89.5t37.5 83.5q37 45 89.5 65t102.5 11t92.5 -34.5t64 -71.5t11.5 -100q-8 -45 -61.5 -73t-107.5 -29v-34
q61 4 123.5 -20.5t79.5 -73.5q16 -46 0 -92.5t-56 -78.5t-90.5 -49t-109 -5t-105.5 54q-36 32 -57.5 85.5t-9.5 96.5q9 33 39.5 55t63.5 13q27 -7 38 -33.5t-1.5 -50.5t-44.5 -24q-31 -1 -39 24q-7 25 17 37q12 6 30 5q14 0 14 -5t-14 -5q-29 -1 -29 -19q0 -15 17 -18
q7 -2 14 1q23 8 25 27.5t-14.5 33.5t-38.5 6q-32 -9 -47 -45q-18 -56 29 -124.5t118 -75.5q90 -9 155 51q54 51 47 108q-9 65 -96 87q-26 7 -58 9q0 -109 -32 -163q-12 -20 -31 -17t-25.5 19.5t5.5 34.5q14 16 27 4q16 -14 -2 -34l-2 -2q-5 -5 -8 -4q-2 2 3 8q13 15 3 22
q-10 5 -17 -8q-6 -13 1 -22t18.5 -8t16.5 14q16 33 14 157q-12 0 -18 -1q-7 0 -10 1q0 15 28 21q0 7 -0.5 20t-1.5 20q-21 5 -23 16q4 3 10 3q2 1 6 1t6 1q-4 72 -4 92q0 22 2.5 35.5t7 22t14 3.5t23.5 -23q-4 -10 -8 -32q-3 -28 -3 -92q109 26 124 94q13 53 -37 98
q-57 51 -137 38q-10 -1 -20 -4q-64 -17 -106.5 -82.5t-18.5 -110.5q7 -13 20.5 -23t27.5 -11q21 -3 33.5 12t8 32.5t-25.5 20.5t-26 -13q-4 -15 14 -19q7 -1 15 0zM525 570q-4 60 -43 81q-19 10 -38 15q-12 39 17 41q33 2 69 -36q44 -47 41 -111v-3q31 -8 59.5 1t32.5 30
q5 17 -6 30q-7 9 -17.5 7.5t-14 -9.5t2.5 -18q9 -9 16 -2t-6 16q-6 3 -4 6q1 1 7 -2q20 -11 11 -25t-25 -3q-19 13 -7.5 32t31.5 13q15 -5 22.5 -21t2.5 -32q-6 -20 -28 -36t-44 -20q-18 -3 -35 0q-1 -12 -6.5 -70t-7.5 -88.5t-4 -77.5t1 -77.5t10 -48.5q6 -15 20 -17
t23 8.5t2 26.5q-6 15 -18 11q-13 -5 -4 -21l4 -6q6 -8 4 -10q-4 -3 -9 5q-22 23 -7 41q13 15 30 1q3 -2 5 -5q21 -27 -1 -51q-21 -22 -45 -9q-10 5 -17 18q-25 47 -29 118t1.5 163.5t3.5 134.5z" />
    <glyph glyph-name="D_b" unicode="Db" horiz-adv-x="749" 
d="M81 790q-35 -8 -44.5 -40.5t11 -57t57.5 -13.5q29 9 29 34q0 21 -21 24q-16 3 -38 -12q-18 -11 -22 -4t13 20q49 37 82 10q25 -21 15 -54q-7 -21 -28 -35q-31 -20 -61 -13.5t-45.5 31t-19 55t19.5 57.5q30 38 91 51t107 -3q70 -22 112.5 -83.5t53.5 -144.5q34 -4 78 4
q2 112 10 151q23 109 93 36q50 -58 28.5 -116.5t-87.5 -82.5v-146q52 64 110 30q49 -28 67 -98q23 -88 -29 -151q-8 -10 -18 -19q-27 -25 -75 -32.5t-74 9.5q-21 14 -20 37.5t18.5 33.5t40.5 -1q19 -13 10 -33t-32 -10q-5 3 -11 7q-7 7 -5 9q0 1 10 -2q18 -12 25 0
q6 12 -7 19q-2 1 -5 2q-17 5 -26 -5.5t-5 -25.5t20 -20q45 -15 89.5 19t51.5 91q9 77 -34 120q-35 36 -72 13q-45 -28 -55 -130q0 -1 -1 -4q0 -2 -1 -3q-5 -2 -7 -4q-9 0 -5 11q-4 127 -4 270q-38 -8 -75 -3q8 -91 -22 -181q-35 -104 -115 -174t-179 -48q-63 14 -76 70
q-12 48 20 83q34 37 86 18q40 -15 42 -51q2 -34 -28 -47q-27 -12 -64 5q-19 11 -18 17q3 10 23 0q42 -15 53 10q9 19 -10 34q-10 8 -24 9q-45 3 -56 -34q-10 -35 17 -62q16 -15 40 -18q108 -13 181 97q65 97 68 230q2 138 -70 207q-68 65 -183 37zM171 687q16 17 26 20.5
t13.5 -4.5t4.5 -23t-1 -36t-9.5 -77t-12 -99t-7 -96t6.5 -68q5 -13 17 -15t19.5 6.5t2.5 22.5q-5 13 -15 10q-12 -3 -4 -18q1 -3 3 -5q4 -8 3 -9q-2 -1 -3 -0.5t-2.5 2.5t-2.5 2q-17 21 -4 35t27 -1q2 -1 3 -3q13 -18 3 -35.5t-27.5 -17.5t-30.5 20q-20 40 -21 101.5
t7.5 139.5t7.5 114q0 14 -4 34zM515 629q53 21 68 64.5t-25 90.5q-47 45 -43 -155z" />
    <glyph glyph-name="D_h" unicode="Dh" horiz-adv-x="732" 
d="M81 790q-35 -8 -44.5 -40.5t11 -57t57.5 -13.5q29 9 29 34q0 21 -21 24q-16 3 -38 -12q-18 -11 -22 -4t13 20q49 37 82 10q25 -21 15 -54q-7 -21 -28 -35q-31 -20 -61 -13.5t-45.5 31t-19 55t19.5 57.5q30 38 91 51t107 -3q71 -22 113.5 -85t53.5 -147q32 0 55 5
q2 128 16 173q26 81 91 11q27 -30 29.5 -80.5t-31.5 -84.5q-22 -17 -61 -33q-1 -12 -1 -141q29 34 60.5 40t54.5 -8.5t39 -40.5q14 -23 15.5 -63.5t-3.5 -78.5t-2.5 -84.5t18.5 -79.5q7 -15 22 -16.5t24.5 9.5t2.5 26t-20 10q-15 -5 -3 -23q1 -2 3 -4q7 -7 4 -9q-4 -2 -10 4
q-23 23 -7 40q14 15 33 2q3 -2 5 -5q21 -24 0 -48q-20 -23 -47 -12q-12 5 -21 18q-20 33 -27.5 69t-9 95.5t-2.5 74.5q-4 57 -43 78q-40 22 -75 -18q-32 -36 -41 -112q0 -1 -1 -4q0 -2 -1 -3q-4 -1 -6.5 1.5t-3.5 9.5t-1.5 13.5t-0.5 15.5v13q0 130 2 219q-27 -6 -54 -6
q6 -87 -22 -174q-35 -104 -115 -174t-179 -48q-63 14 -76 70q-12 48 20 83q34 37 86 18q40 -15 42 -51q2 -34 -28 -47q-27 -12 -64 5q-19 11 -18 17q3 10 23 0q42 -15 53 10q9 19 -10 34q-10 8 -24 9q-45 3 -56 -34q-10 -35 17 -62q16 -15 40 -18q108 -13 181 97
q65 97 68 230q2 138 -70 207q-68 65 -183 37zM171 687q16 17 26 20.5t13.5 -4.5t4.5 -23t-1 -36t-9.5 -77t-12 -99t-7 -96t6.5 -68q5 -13 17 -15t19.5 6.5t2.5 22.5q-5 13 -15 10q-12 -3 -4 -18q1 -3 3 -5q4 -8 3 -9q-2 -1 -3 -0.5t-2.5 2.5t-2.5 2q-17 21 -4 35t27 -1
q2 -1 3 -3q13 -18 3 -35.5t-27.5 -17.5t-30.5 20q-20 40 -21 101.5t7.5 139.5t7.5 114q0 14 -4 34zM493 623q48 20 62 42q14 24 7.5 58.5t-24.5 53.5q-46 44 -45 -154z" />
    <glyph glyph-name="D_k" unicode="Dk" horiz-adv-x="769" 
d="M81 790q-35 -8 -44.5 -40.5t11 -57t57.5 -13.5q29 9 29 34q0 21 -21 24q-16 3 -38 -12q-18 -11 -22 -4t13 20q49 37 82 10q25 -21 15 -54q-7 -21 -28 -35q-31 -20 -61 -13.5t-45.5 31t-19 55t19.5 57.5q30 38 91 51t107 -3q64 -20 105.5 -74.5t56.5 -129.5q41 -9 92 -1
q-2 116 24 177q30 68 86 5q28 -30 29.5 -81.5t-33.5 -83.5q-28 -20 -62 -32l-3 -220q62 90 139 99q53 6 74 -30q23 -37 -16 -88q-17 -18 -42 -13t-31 33q-5 25 16 35q20 9 32 -13q5 -8 6 -19q3 -11 -2 -12q-3 -1 -4.5 2.5t-1.5 7.5q-5 22 -18 21q-13 -2 -13 -16q0 -6 3 -12
q12 -20 30 -14.5t23 24.5q6 24 -19 39.5t-48 9.5q-37 -11 -74 -45.5t-50 -72.5q18 4 24 3q51 -4 81 -27.5t42 -59t19 -72t22 -74t41 -58.5q8 -6 17 -3t10 10.5t-6 14.5q-11 8 -15 -1q-3 -7 9 -12q6 -3 5 -5h-6q-20 7 -16 20.5t21 7.5q15 -7 15 -21t-11 -20t-27 2
q-28 17 -48 48.5t-32 63t-26 61.5t-38.5 50.5t-59.5 23.5q-18 0 -26 -3q-1 -12 -1 -36v-22q-5 -63 -49 -10q4 14 5 22v20q-1 -1 -7 -8t-9 -11q-23 28 17 66q4 302 4 303q-47 -8 -87 -2q12 -101 -20 -200q-35 -104 -115 -174t-179 -48q-63 14 -76 70q-12 48 20 83
q34 37 86 18q40 -15 42 -51q2 -34 -28 -47q-27 -12 -64 5q-19 11 -18 17q3 10 23 0q42 -15 53 10q9 19 -10 34q-10 8 -24 9q-45 3 -56 -34q-10 -35 17 -62q16 -15 40 -18q108 -13 181 97q65 97 68 230q2 138 -70 207q-68 65 -183 37zM171 687q16 17 26 20.5t13.5 -4.5
t4.5 -23t-1 -36t-9.5 -77t-12 -99t-7 -96t6.5 -68q5 -13 17 -15t19.5 6.5t2.5 22.5q-5 13 -15 10q-12 -3 -4 -18q1 -3 3 -5q4 -8 3 -9q-2 -1 -3 -0.5t-2.5 2.5t-2.5 2q-17 21 -4 35t27 -1q2 -1 3 -3q13 -18 3 -35.5t-27.5 -17.5t-30.5 20q-20 40 -21 101.5t7.5 139.5
t7.5 114q0 14 -4 34zM525 645q46 16 64 40q14 22 8.5 57.5t-23.5 55.5q-45 50 -49 -142v-11z" />
    <glyph glyph-name="D_l" unicode="Dl" horiz-adv-x="659" 
d="M81 790q-35 -8 -44.5 -40.5t11 -57t57.5 -13.5q29 9 29 34q0 21 -21 24q-16 3 -38 -12q-18 -11 -22 -4t13 20q49 37 82 10q25 -21 15 -54q-7 -21 -28 -35q-31 -20 -61 -13.5t-45.5 31t-19 55t19.5 57.5q30 38 91 51t107 -3q71 -22 113 -84.5t53 -147.5q32 -3 68 5
q2 128 16 173q26 81 91 11q27 -30 29.5 -80.5t-31.5 -84.5q-22 -17 -61 -33q-1 -65 -0.5 -199t0.5 -165q0 -1 1 -4q33 15 70.5 12t67.5 -30t30 -66q-2 -32 -34.5 -40t-43.5 26q-4 16 6.5 27t24 6t18.5 -27q0 -10 -4 -11q-5 0 -5 8q-5 22 -18 17t-9 -20l2 -4q18 -21 37.5 -3
t6.5 42q-11 18 -39 28q-27 8 -51 4t-41 -13t-34 -9t-31 17l4 26q-1 122 -1 366q-35 -6 -66 -5q6 -88 -22 -175q-35 -104 -115 -174t-179 -48q-63 14 -76 70q-12 48 20 83q34 37 86 18q40 -15 42 -51q2 -34 -28 -47q-27 -12 -64 5q-19 11 -18 17q3 10 23 0q42 -15 53 10
q9 19 -10 34q-10 8 -24 9q-45 3 -56 -34q-10 -35 17 -62q16 -15 40 -18q108 -13 181 97q65 97 68 230q2 138 -70 207q-68 65 -183 37zM171 687q16 17 26 20.5t13.5 -4.5t4.5 -23t-1 -36t-9.5 -77t-12 -99t-7 -96t6.5 -68q5 -13 17 -15t19.5 6.5t2.5 22.5q-5 13 -15 10
q-12 -3 -4 -18q1 -3 3 -5q4 -8 3 -9q-2 -1 -3 -0.5t-2.5 2.5t-2.5 2q-17 21 -4 35t27 -1q2 -1 3 -3q13 -18 3 -35.5t-27.5 -17.5t-30.5 20q-20 40 -21 101.5t7.5 139.5t7.5 114q0 14 -4 34zM505 623q48 20 62 42q14 24 7.5 58.5t-24.5 53.5q-46 44 -45 -154z" />
    <glyph glyph-name="D_t" unicode="Dt" horiz-adv-x="635" 
d="M171 687q16 17 26 20.5t13.5 -4.5t4.5 -23t-1 -36t-9.5 -77t-12 -99t-7 -96t6.5 -68q5 -13 17 -15t19.5 6.5t2.5 22.5q-5 13 -15 10q-12 -3 -4 -18q1 -3 3 -5q4 -8 3 -9q-2 -1 -3 -0.5t-2.5 2.5t-2.5 2q-17 21 -4 35t27 -1q2 -1 3 -3q13 -18 3 -35.5t-27.5 -17.5
t-30.5 20q-20 40 -21 101.5t7.5 139.5t7.5 114q0 14 -4 34zM81 790q-35 -8 -44.5 -40.5t11 -57t57.5 -13.5q29 9 29 34q0 21 -21 24q-16 3 -38 -12q-18 -11 -22 -4t13 20q49 37 82 10q25 -21 15 -54q-7 -21 -28 -35q-31 -20 -61 -13.5t-45.5 31t-19 55t19.5 57.5
q30 38 91 51t107 -3q76 -24 121 -96.5t48.5 -159.5t-22.5 -177q-35 -104 -115 -174t-179 -48q-63 14 -76 70q-12 48 20 83q34 37 86 18q40 -15 42 -51q2 -34 -28 -47q-27 -12 -64 5q-19 11 -18 17q3 10 23 0q42 -15 53 10q9 19 -10 34q-10 8 -24 9q-45 3 -56 -34
q-10 -35 17 -62q16 -15 40 -18q108 -13 181 97q65 97 68 230q2 138 -70 207q-68 65 -183 37zM482 570q-4 60 -43 81q-19 10 -38 15q-12 39 17 41q33 2 69 -36q44 -47 41 -111v-3q31 -8 59.5 1t32.5 30q5 17 -6 30q-7 9 -17.5 7.5t-14 -9.5t2.5 -18q9 -9 16 -2t-6 16
q-6 3 -4 6q1 1 7 -2q20 -11 11 -25t-25 -3q-19 13 -7.5 32t31.5 13q15 -5 22.5 -21t2.5 -32q-6 -20 -28 -36t-44 -20q-18 -3 -35 0q-1 -12 -6.5 -70t-7.5 -88.5t-4 -77.5t1 -77.5t10 -48.5q6 -15 20 -17t23 8.5t2 26.5q-6 15 -18 11q-13 -5 -4 -21l4 -6q6 -8 4 -10
q-4 -3 -9 5q-22 23 -7 41q13 15 30 1q3 -2 5 -5q21 -27 -1 -51q-21 -22 -45 -9q-10 5 -17 18q-25 47 -29 118t1.5 163.5t3.5 134.5z" />
    <glyph glyph-name="E_b" unicode="Eb" horiz-adv-x="803" 
d="M339 463q-14 -3 -15 4q1 5 15 8q42 6 52 -23q9 -25 -12 -40q-10 -7 -24 -7q-39 0 -54.5 23.5t-4.5 51t39 38.5q33 12 67 -6.5t48 -52.5q16 -49 0 -104.5t-50 -93.5q-45 -50 -105 -68.5t-114.5 -6.5t-100 41t-67.5 76t-10 96q10 44 53.5 72.5t99.5 41.5v55q-91 -4 -123 46
q-23 34 -19.5 76t28.5 76t64 60t88 27.5t100 -21.5q36 -19 65.5 -58t29.5 -77q0 -27 -17 -49l8 -9q19 -20 61.5 -25.5t83.5 2.5q2 112 10 151q23 109 93 36q50 -58 28.5 -116.5t-87.5 -82.5v-146q52 64 110 30q49 -28 67 -98q23 -88 -29 -151q-8 -10 -18 -19
q-27 -25 -75 -32.5t-74 9.5q-21 14 -20 37.5t18.5 33.5t40.5 -1q19 -13 10 -33t-32 -10q-5 3 -11 7q-7 7 -5 9q0 1 10 -2q18 -12 25 0q6 12 -7 19q-2 1 -5 2q-17 5 -26 -5.5t-5 -25.5t20 -20q45 -15 89.5 19t51.5 91q9 77 -34 120q-35 36 -72 13q-45 -28 -55 -130
q0 -1 -1 -4q0 -2 -1 -3q-5 -2 -7 -4q-9 0 -5 11q-4 127 -4 270q-48 -10 -96.5 0t-66.5 32l-7 8q-15 -12 -36 -12q-25 0 -39.5 19t-9 41.5t31.5 30.5t37 -13q12 -22 -10 -37q-8 -5 -20 -7q-11 -3 -13 2q-1 4 10 7q25 6 20 22q-3 14 -19 11q-5 -1 -10 -4q-23 -19 -5.5 -43
t43.5 -7q24 15 28 48q4 48 -54.5 87.5t-120.5 29.5q-77 -13 -114 -74q-33 -53 -8 -96q23 -40 90 -41q0 76 1 100q4 112 53 41q-8 -22 -9 -36q-6 -31 -8 -102q23 1 60 13q8 2 9 2q4 -11 -16.5 -23t-53.5 -18l-3 -52q78 7 78 -20q-4 -2 -10 -2q-29 -1 -70 -9q-7 -116 -43 -171
q-18 -28 -44 -14q-23 12 -20 36q1 12 10 21q15 16 29 4q16 -13 0 -34q-2 -3 -5 -6q-8 -5 -9 -4q-3 3 1 7q2 1 2 2q14 15 5 23q-9 10 -18 -3q-1 -1 -2 -3q-11 -22 9.5 -32t31.5 11q17 35 21 154q-96 -31 -106 -99q-9 -57 44 -104q63 -56 155 -42l12 2q75 16 128.5 91
t29.5 128q-18 36 -54 43q-24 5 -40 -11t-11.5 -36t29.5 -26q23 -5 29 13q7 16 -13 22q-8 3 -19 2zM569 629q53 21 68 64.5t-25 90.5q-47 45 -43 -155z" />
    <glyph glyph-name="E_h" unicode="Eh" horiz-adv-x="786" 
d="M339 463q-14 -3 -15 4q1 5 15 8q42 6 52 -23q9 -25 -12 -40q-10 -7 -24 -7q-39 0 -54.5 23.5t-4.5 51t39 38.5q33 12 67 -6.5t48 -52.5q16 -49 0 -104.5t-50 -93.5q-45 -50 -105 -68.5t-114.5 -6.5t-100 41t-67.5 76t-10 96q10 44 53.5 72.5t99.5 41.5v55q-91 -4 -123 46
q-23 34 -19.5 76t28.5 76t64 60t88 27.5t100 -21.5q36 -19 65.5 -58t29.5 -77t-29 -62q20 -20 61 -25.5t82 3.5q2 128 16 173q26 81 91 11q27 -30 29.5 -80.5t-31.5 -84.5q-22 -17 -61 -33q-1 -12 -1 -141q29 34 60.5 40t54.5 -8.5t39 -40.5q14 -23 15.5 -63.5t-3.5 -78.5
t-2.5 -84.5t18.5 -79.5q7 -15 22 -16.5t24.5 9.5t2.5 26t-20 10q-15 -5 -3 -23q1 -2 3 -4q7 -7 4 -9q-4 -2 -10 4q-23 23 -7 40q14 15 33 2q3 -2 5 -5q21 -24 0 -48q-20 -23 -47 -12q-12 5 -21 18q-20 33 -27.5 69t-9 95.5t-2.5 74.5q-4 57 -43 78q-40 22 -75 -18
q-32 -36 -41 -112q0 -1 -1 -4q0 -2 -1 -3q-4 -1 -6.5 1.5t-3.5 9.5t-1.5 13.5t-0.5 15.5v13q0 130 2 219q-49 -10 -96.5 -1.5t-68.5 34.5q-2 0 -2 2q-9 -3 -18 -3q-25 0 -39.5 19t-9 41.5t31.5 30.5t37 -13q12 -22 -10 -37q-8 -5 -20 -7q-11 -3 -13 2q-1 4 10 7q25 6 20 22
q-3 14 -19 11q-5 -1 -10 -4q-23 -19 -5.5 -43t43.5 -7q24 15 28 48q4 48 -54.5 87.5t-120.5 29.5q-77 -13 -114 -74q-33 -53 -8 -96q23 -40 90 -41q0 76 1 100q4 112 53 41q-8 -22 -9 -36q-6 -31 -8 -102q23 1 60 13q8 2 9 2q4 -11 -16.5 -23t-53.5 -18l-3 -52q78 7 78 -20
q-4 -2 -10 -2q-29 -1 -70 -9q-7 -116 -43 -171q-18 -28 -44 -14q-23 12 -20 36q1 12 10 21q15 16 29 4q16 -13 0 -34q-2 -3 -5 -6q-8 -5 -9 -4q-3 3 1 7q2 1 2 2q14 15 5 23q-9 10 -18 -3q-1 -1 -2 -3q-11 -22 9.5 -32t31.5 11q17 35 21 154q-96 -31 -106 -99
q-9 -57 44 -104q63 -56 155 -42l12 2q75 16 128.5 91t29.5 128q-18 36 -54 43q-24 5 -40 -11t-11.5 -36t29.5 -26q23 -5 29 13q7 16 -13 22q-8 3 -19 2zM547 623q48 20 62 42q14 24 7.5 58.5t-24.5 53.5q-46 44 -45 -154z" />
    <glyph glyph-name="E_k" unicode="Ek" horiz-adv-x="823" 
d="M339 463q-14 -3 -15 4q1 5 15 8q42 6 52 -23q9 -25 -12 -40q-10 -7 -24 -7q-39 0 -54.5 23.5t-4.5 51t39 38.5q33 12 67 -6.5t48 -52.5q16 -49 0 -104.5t-50 -93.5q-45 -50 -105 -68.5t-114.5 -6.5t-100 41t-67.5 76t-10 96q10 44 53.5 72.5t99.5 41.5v55q-91 -4 -123 46
q-23 34 -19.5 76t28.5 76t64 60t88 27.5t100 -21.5q36 -19 65.5 -58t29.5 -77q0 -13 -5 -26q38 -51 151 -36q-2 116 24 177q30 68 86 5q28 -30 29.5 -81.5t-33.5 -83.5q-28 -20 -62 -32l-3 -220q62 90 139 99q53 6 74 -30q23 -37 -16 -88q-17 -18 -42 -13t-31 33
q-5 25 16 35q20 9 32 -13q5 -8 6 -19q3 -11 -2 -12q-3 -1 -4.5 2.5t-1.5 7.5q-5 22 -18 21q-13 -2 -13 -16q0 -6 3 -12q12 -20 30 -14.5t23 24.5q6 24 -19 39.5t-48 9.5q-37 -11 -74 -45.5t-50 -72.5q18 4 24 3q51 -4 81 -27.5t42 -59t19 -72t22 -74t41 -58.5q8 -6 17 -3
t10 10.5t-6 14.5q-11 8 -15 -1q-3 -7 9 -12q6 -3 5 -5h-6q-20 7 -16 20.5t21 7.5q15 -7 15 -21t-11 -20t-27 2q-28 17 -48 48.5t-32 63t-26 61.5t-38.5 50.5t-59.5 23.5q-18 0 -26 -3q-1 -12 -1 -36v-22q-5 -63 -49 -10q4 14 5 22v20q-1 -1 -7 -8t-9 -11q-23 28 17 66
q4 302 4 303q-52 -9 -98 1t-65 37q-21 -28 -53 -28q-25 0 -39.5 19t-9 41.5t31.5 30.5t37 -13q12 -22 -10 -37q-8 -5 -20 -7q-11 -3 -13 2q-1 4 10 7q25 6 20 22q-3 14 -19 11q-5 -1 -10 -4q-23 -19 -5.5 -43t43.5 -7q24 15 28 48q4 48 -54.5 87.5t-120.5 29.5
q-77 -13 -114 -74q-33 -53 -8 -96q23 -40 90 -41q0 76 1 100q4 112 53 41q-8 -22 -9 -36q-6 -31 -8 -102q23 1 60 13q8 2 9 2q4 -11 -16.5 -23t-53.5 -18l-3 -52q78 7 78 -20q-4 -2 -10 -2q-29 -1 -70 -9q-7 -116 -43 -171q-18 -28 -44 -14q-23 12 -20 36q1 12 10 21
q15 16 29 4q16 -13 0 -34q-2 -3 -5 -6q-8 -5 -9 -4q-3 3 1 7q2 1 2 2q14 15 5 23q-9 10 -18 -3q-1 -1 -2 -3q-11 -22 9.5 -32t31.5 11q17 35 21 154q-96 -31 -106 -99q-9 -57 44 -104q63 -56 155 -42l12 2q75 16 128.5 91t29.5 128q-18 36 -54 43q-24 5 -40 -11t-11.5 -36
t29.5 -26q23 -5 29 13q7 16 -13 22q-8 3 -19 2zM579 645q46 16 64 40q14 22 8.5 57.5t-23.5 55.5q-45 50 -49 -142v-11z" />
    <glyph glyph-name="E_l" unicode="El" horiz-adv-x="713" 
d="M339 463q-14 -3 -15 4q1 5 15 8q42 6 52 -23q9 -25 -12 -40q-10 -7 -24 -7q-39 0 -54.5 23.5t-4.5 51t39 38.5q33 12 67 -6.5t48 -52.5q16 -49 0 -104.5t-50 -93.5q-45 -50 -105 -68.5t-114.5 -6.5t-100 41t-67.5 76t-10 96q10 44 53.5 72.5t99.5 41.5v55q-91 -4 -123 46
q-23 34 -19.5 76t28.5 76t64 60t88 27.5t100 -21.5q36 -19 65.5 -58t29.5 -77q0 -31 -23 -56q22 -23 65 -30t84 2q2 128 16 173q26 81 91 11q27 -30 29.5 -80.5t-31.5 -84.5q-22 -17 -61 -33q-1 -65 -0.5 -199t0.5 -165q0 -1 1 -4q33 15 70.5 12t67.5 -30t30 -66
q-2 -32 -34.5 -40t-43.5 26q-4 16 6.5 27t24 6t18.5 -27q0 -10 -4 -11q-5 0 -5 8q-5 22 -18 17t-9 -20l2 -4q18 -21 37.5 -3t6.5 42q-11 18 -39 28q-27 8 -51 4t-41 -13t-34 -9t-31 17l4 26q-1 122 -1 366q-48 -10 -96.5 -0.5t-72.5 38.5q-13 -6 -28 -6q-25 0 -39.5 19
t-9 41.5t31.5 30.5t37 -13q12 -22 -10 -37q-8 -5 -20 -7q-11 -3 -13 2q-1 4 10 7q25 6 20 22q-3 14 -19 11q-5 -1 -10 -4q-23 -19 -5.5 -43t43.5 -7q24 15 28 48q4 48 -54.5 87.5t-120.5 29.5q-77 -13 -114 -74q-33 -53 -8 -96q23 -40 90 -41q0 76 1 100q4 112 53 41
q-8 -22 -9 -36q-6 -31 -8 -102q23 1 60 13q8 2 9 2q4 -11 -16.5 -23t-53.5 -18l-3 -52q78 7 78 -20q-4 -2 -10 -2q-29 -1 -70 -9q-7 -116 -43 -171q-18 -28 -44 -14q-23 12 -20 36q1 12 10 21q15 16 29 4q16 -13 0 -34q-2 -3 -5 -6q-8 -5 -9 -4q-3 3 1 7q2 1 2 2q14 15 5 23
q-9 10 -18 -3q-1 -1 -2 -3q-11 -22 9.5 -32t31.5 11q17 35 21 154q-96 -31 -106 -99q-9 -57 44 -104q63 -56 155 -42l12 2q75 16 128.5 91t29.5 128q-18 36 -54 43q-24 5 -40 -11t-11.5 -36t29.5 -26q23 -5 29 13q7 16 -13 22q-8 3 -19 2zM559 623q48 20 62 42
q14 24 7.5 58.5t-24.5 53.5q-46 44 -45 -154z" />
    <glyph glyph-name="G_b" unicode="Gb" horiz-adv-x="860" 
d="M381 688q-2 40 -26 43q-19 3 -28 -17q-6 -14 0 -30q13 -34 43 -35.5t50 24t8 58.5q-7 23 -27.5 41t-44.5 26q-33 7 -69 4t-71.5 -25.5t-64 -54t-46.5 -81t-18 -106.5q-3 -79 18 -141t56.5 -95.5t77.5 -47t84 -1t73 47.5q2 58 -11 79q-100 0 -130 -11q-27 22 15 42
q50 24 115 15q77 -10 79 -65v-3q0 -16 -11 -89.5t-10.5 -129t21.5 -76.5q16 -17 50 -7q26 7 20 21q-1 2 -4 5q-11 11 -29 5q-17 -7 0 -17q1 -2 4 -3l5 -2.5t0 -4.5q-5 -1 -14 3q-30 13 -13 28q19 15 46 6q5 -1 9 -3q28 -15 4 -34q-28 -22 -68 -17q-17 3 -29 12
q-57 46 -53 163q-15 -11 -33 -18q-38 -14 -78 -14.5t-76 15t-69.5 40t-59 60t-44 75t-25.5 86t-3 92t23.5 93.5t54.5 90q47 56 126 91t145 19q51 -12 85 -56.5t22 -93.5q-7 -31 -29 -48q10 -19 41.5 -27t59 -7.5t50.5 4.5q2 112 10 151q23 109 93 36q50 -58 28.5 -116.5
t-87.5 -82.5v-146q52 64 110 30q49 -28 67 -98q23 -88 -29 -151q-8 -10 -18 -19q-27 -25 -75 -32.5t-74 9.5q-21 14 -20 37.5t18.5 33.5t40.5 -1q19 -13 10 -33t-32 -10q-5 3 -11 7q-7 7 -5 9q0 1 10 -2q18 -12 25 0q6 12 -7 19q-2 1 -5 2q-17 5 -26 -5.5t-5 -25.5t20 -20
q45 -15 89.5 19t51.5 91q9 77 -34 120q-35 36 -72 13q-45 -28 -55 -130q0 -1 -1 -4q0 -2 -1 -3q-4 -2 -7 -4q-9 0 -5 11q-4 127 -4 270q-48 -8 -101 1t-70 42q-35 -19 -73 -1.5t-41 65.5q-3 43 31 59q31 14 54 -12q17 -19 17 -54q0 -22 -8 -22q-3 0 -5.5 2t-3 5t-1 7t-0.5 5
zM626 629q53 21 68 64.5t-25 90.5q-47 45 -43 -155z" />
    <glyph glyph-name="G_h" unicode="Gh" horiz-adv-x="843" 
d="M381 688q-2 40 -26 43q-19 3 -28 -17q-6 -14 0 -30q13 -34 43 -35.5t50 24t8 58.5q-7 23 -27.5 41t-44.5 26q-33 7 -69 4t-71.5 -25.5t-64 -54t-46.5 -81t-18 -106.5q-3 -79 18 -141t56.5 -95.5t77.5 -47t84 -1t73 47.5q2 58 -11 79q-100 0 -130 -11q-27 22 15 42
q50 24 115 15q77 -10 79 -65v-3q0 -16 -11 -89.5t-10.5 -129t21.5 -76.5q16 -17 50 -7q26 7 20 21q-1 2 -4 5q-11 11 -29 5q-17 -7 0 -17q1 -2 4 -3l5 -2.5t0 -4.5q-5 -1 -14 3q-30 13 -13 28q19 15 46 6q5 -1 9 -3q28 -15 4 -34q-28 -22 -68 -17q-17 3 -29 12
q-57 46 -53 163q-15 -11 -33 -18q-38 -14 -78 -14.5t-76 15t-69.5 40t-59 60t-44 75t-25.5 86t-3 92t23.5 93.5t54.5 90q47 56 126 91t145 19q51 -12 85 -56.5t22 -93.5q-8 -38 -44 -58q20 -20 61.5 -26t82.5 3q2 128 16 173q26 81 91 11q27 -30 29.5 -80.5t-31.5 -84.5
q-22 -17 -61 -33q-1 -12 -1 -141q29 34 60.5 40t54.5 -8.5t39 -40.5q14 -23 15.5 -63.5t-3.5 -78.5t-2.5 -84.5t18.5 -79.5q7 -15 22 -16.5t24.5 9.5t2.5 26t-20 10q-15 -5 -3 -23q1 -2 3 -4q6 -7 4 -9q-4 -2 -10 4q-23 23 -7 40q14 15 33 2q3 -2 5 -5q21 -24 0 -48
q-20 -23 -47 -12q-12 5 -21 18q-20 33 -27.5 69t-9 95.5t-2.5 74.5q-4 57 -43 78q-40 22 -75 -18q-32 -36 -41 -112q0 -1 -1 -4q0 -2 -1 -3q-4 -1 -6.5 1.5t-3.5 9.5t-1.5 13.5t-0.5 15.5v13q0 130 2 219q-25 -2 -59 -3.5t-68.5 9.5t-42.5 34q-35 -7 -63.5 11t-30.5 60
q-3 43 31 59q31 14 54 -12q17 -19 17 -54q0 -22 -8 -22q-3 0 -5.5 2t-3 5t-1 7t-0.5 5zM604 623q48 20 62 42q14 24 7.5 58.5t-24.5 53.5q-46 44 -45 -154z" />
    <glyph glyph-name="G_k" unicode="Gk" horiz-adv-x="880" 
d="M381 688q-2 40 -26 43q-19 3 -28 -17q-6 -14 0 -30q13 -34 43 -35.5t50 24t8 58.5q-7 23 -27.5 41t-44.5 26q-33 7 -69 4t-71.5 -25.5t-64 -54t-46.5 -81t-18 -106.5q-3 -79 18 -141t56.5 -95.5t77.5 -47t84 -1t73 47.5q2 58 -11 79q-100 0 -130 -11q-27 22 15 42
q50 24 115 15q77 -10 79 -65v-3q0 -16 -11 -89.5t-10.5 -129t21.5 -76.5q16 -17 50 -7q26 7 20 21q-1 2 -4 5q-11 11 -29 5q-17 -7 0 -17q1 -2 4 -3l5 -2.5t0 -4.5q-5 -1 -14 3q-30 13 -13 28q19 15 46 6q5 -1 9 -3q28 -15 4 -34q-28 -22 -68 -17q-17 3 -29 12
q-57 46 -53 163q-15 -11 -33 -18q-38 -14 -78 -14.5t-76 15t-69.5 40t-59 60t-44 75t-25.5 86t-3 92t23.5 93.5t54.5 90q47 56 126 91t145 19q51 -12 85 -56.5t22 -93.5q-5 -19 -13 -30q43 -44 145 -29q-2 116 24 177q30 68 86 5q28 -30 29.5 -81.5t-33.5 -83.5
q-28 -20 -62 -32l-3 -220q62 90 139 99q53 6 74 -30q23 -37 -16 -88q-17 -18 -42 -13t-31 33q-5 25 16 35q20 9 32 -13q5 -8 6 -19q3 -11 -2 -12q-3 -1 -4.5 2.5t-1.5 7.5q-5 22 -18 21q-13 -2 -13 -16q0 -6 3 -12q12 -20 30 -14.5t23 24.5q6 24 -19 39.5t-48 9.5
q-37 -11 -74 -45.5t-50 -72.5q18 4 24 3q51 -4 81 -27.5t42 -59t19 -72t22 -74t41 -58.5q8 -6 17 -3t10 10.5t-6 14.5q-11 8 -15 -1q-3 -7 9 -12q6 -3 5 -5h-6q-20 7 -16 20.5t21 7.5q15 -7 15 -21t-11 -20t-27 2q-28 17 -48 48.5t-32 63t-26 61.5t-38.5 50.5t-59.5 23.5
q-18 0 -26 -3q-1 -12 -1 -36v-22q-5 -63 -49 -10q4 14 5 22v20q-1 -1 -7 -8t-9 -11q-23 28 17 66q4 302 4 303q-52 -9 -97.5 0.5t-64.5 36.5q-23 -19 -53.5 -21t-54 17t-25.5 56q-3 43 31 59q31 14 54 -12q17 -19 17 -54q0 -22 -8 -22q-3 0 -5.5 2t-3 5t-1 7t-0.5 5z
M636 645q46 16 64 40q14 22 8.5 57.5t-23.5 55.5q-45 50 -49 -142v-11z" />
    <glyph glyph-name="G_l" unicode="Gl" horiz-adv-x="770" 
d="M381 688q-2 40 -26 43q-19 3 -28 -17q-6 -14 0 -30q13 -34 43 -35.5t50 24t8 58.5q-7 23 -27.5 41t-44.5 26q-33 7 -69 4t-71.5 -25.5t-64 -54t-46.5 -81t-18 -106.5q-3 -79 18 -141t56.5 -95.5t77.5 -47t84 -1t73 47.5q2 58 -11 79q-100 0 -130 -11q-27 22 15 42
q50 24 115 15q77 -10 79 -65v-3q0 -16 -11 -89.5t-10.5 -129t21.5 -76.5q16 -17 50 -7q26 7 20 21q-1 2 -4 5q-11 11 -29 5q-17 -7 0 -17q1 -2 4 -3l5 -2.5t0 -4.5q-5 -1 -14 3q-30 13 -13 28q19 15 46 6q5 -1 9 -3q28 -15 4 -34q-28 -22 -68 -17q-17 3 -29 12
q-57 46 -53 163q-15 -11 -33 -18q-38 -14 -78 -14.5t-76 15t-69.5 40t-59 60t-44 75t-25.5 86t-3 92t23.5 93.5t54.5 90q47 56 126 91t145 19q51 -12 85 -56.5t22 -93.5q-7 -34 -36 -53q37 -49 148 -28q2 128 16 173q26 81 91 11q27 -30 29.5 -80.5t-31.5 -84.5
q-22 -17 -61 -33q-1 -65 -0.5 -199t0.5 -165v-2q1 -1 1 -2q33 15 70.5 12t67.5 -30t30 -66q-2 -32 -34.5 -40t-43.5 26q-4 16 6.5 27t24 6t18.5 -27q0 -10 -4 -11q-5 0 -5 8q-5 22 -18 17t-9 -20l2 -4q18 -21 37.5 -3t6.5 42q-11 18 -39 28q-27 8 -51 4t-41 -13t-34 -9
t-31 17l4 26q-1 122 -1 366q-140 -20 -172 43q-37 -12 -69.5 6t-34.5 62q-3 43 31 59q31 14 54 -12q17 -19 17 -54q0 -22 -8 -22q-3 0 -5.5 2t-3 5t-1 7t-0.5 5zM616 623q48 20 62 42q14 24 7.5 58.5t-24.5 53.5q-46 44 -45 -154z" />
    <glyph glyph-name="K_b" unicode="Kb" horiz-adv-x="893" 
d="M58 674q0 -21 -4 -21q-6 1 -6 22q-4 65 21 78q18 8 30 -19q7 -16 7 -39q1 -50 -19 -72.5t-43.5 -8t-31.5 56.5q-9 50 7.5 99.5t46.5 68.5q70 44 137 -83q51 -96 59 -214.5t-19 -201.5l5 -3l50 78t47 67.5t56.5 72.5t53 50t62.5 43q35 17 58.5 -3t18 -52t-39.5 -42
q-29 -9 -40 14q-10 24 14 41q10 7 24 10q13 3 14 -2q1 -6 -11 -9q-28 -8 -25 -25q2 -14 18 -13q6 1 13 5q20 13 19 32.5t-17.5 27t-37.5 -2.5q-30 -18 -75.5 -79t-76.5 -111l-83 -138q212 -179 283 -195q23 -5 36.5 9t8.5 32.5t-29 24.5q-22 5 -26 -12q-4 -15 15 -20
q7 -2 16 -2q13 0 14 -4q0 -6 -13 -6q-41 -5 -51 22q-8 22 13 35q8 4 19 5q35 1 51 -27t0.5 -55t-54.5 -23q-41 5 -83.5 22.5t-93 51t-81.5 57l-89 69.5q-27 -66 -61.5 -98.5t-66.5 -17.5q-28 13 -49 59t-30.5 102.5t-12.5 111t2 91t16 36.5q1 -4 1 -16q3 -251 66 -307
q37 -34 77 19q50 67 55 199q2 41 -2 83q-6 74 -31.5 139.5t-59.5 96t-63 8.5q-32 -23 -39 -78q-7 -50 18 -72q20 -18 35 6q6 11 9 30q5 34 -11 44q-12 9 -18 -16q-4 -12 -3 -31zM651 238q18 -12 25 0q6 12 -7 19q-2 1 -5 2q-17 5 -26 -5.5t-5 -25.5t20 -20q45 -15 89.5 19
t51.5 91q9 77 -34 120q-35 36 -72 13q-45 -28 -55 -130q0 -1 -1 -4q0 -2 -1 -3q-5 -2 -7 -4q-9 0 -5 11q-5 181 -4 295q2 112 10 151q23 109 93 36q50 -58 28.5 -116.5t-87.5 -82.5v-146q52 64 110 30q49 -28 67 -98q23 -88 -29 -151q-8 -10 -18 -19q-27 -25 -75 -32.5
t-74 9.5q-21 14 -20 37.5t18.5 33.5t40.5 -1q19 -13 10 -33t-32 -10q-5 3 -11 7q-7 7 -5 9q0 1 10 -2zM659 629q53 21 68 64.5t-25 90.5q-47 45 -43 -155z" />
    <glyph glyph-name="K_h" unicode="Kh" horiz-adv-x="876" 
d="M58 674q0 -21 -4 -21q-6 1 -6 22q-4 65 21 78q18 8 30 -19q7 -16 7 -39q1 -50 -19 -72.5t-43.5 -8t-31.5 56.5q-9 50 7.5 99.5t46.5 68.5q70 44 137 -83q51 -96 59 -214.5t-19 -201.5l5 -3l50 78t47 67.5t56.5 72.5t53 50t62.5 43q32 12 51.5 1t24.5 -36q2 128 16 173
q26 81 91 11q27 -30 29.5 -80.5t-31.5 -84.5q-22 -17 -61 -33q-1 -12 -1 -141q29 34 60.5 40t54.5 -8.5t39 -40.5q14 -23 15.5 -63.5t-3.5 -78.5t-2.5 -84.5t18.5 -79.5q7 -15 22 -16.5t24.5 9.5t2.5 26t-20 10q-15 -5 -3 -23q1 -2 3 -4q7 -7 4 -9q-4 -2 -10 4q-23 23 -7 40
q14 15 33 2q3 -2 5 -5q21 -24 0 -48q-20 -23 -47 -12q-12 5 -21 18q-20 33 -27.5 69t-9 95.5t-2.5 74.5q-4 57 -43 78q-40 22 -75 -18q-32 -36 -41 -112q0 -1 -1 -4q0 -2 -1 -3q-4 -1 -6.5 1.5t-3.5 9.5t-1.5 13.5t-0.5 15.5v13q-1 64 1 224q-7 -31 -39 -41q-29 -9 -40 14
q-10 24 14 41q10 7 24 10q13 3 14 -2q1 -6 -11 -9q-28 -8 -25 -25q2 -14 18 -13q6 1 13 5q20 13 19 32.5t-17.5 27t-37.5 -2.5q-30 -18 -75.5 -79t-76.5 -111l-83 -138q212 -179 283 -195q23 -5 36.5 9t8.5 32.5t-29 24.5q-22 5 -26 -12q-4 -15 15 -20q7 -2 16 -2
q13 0 14 -4q0 -6 -13 -6q-41 -5 -51 22q-8 22 13 35q8 4 19 5q35 1 51 -27t0.5 -55t-54.5 -23q-41 5 -83.5 22.5t-93 51t-81.5 57l-89 69.5q-27 -66 -61.5 -98.5t-66.5 -17.5q-28 13 -49 59t-30.5 102.5t-12.5 111t2 91t16 36.5q1 -4 1 -16q3 -251 66 -307q37 -34 77 19
q50 67 55 199q2 41 -2 83q-6 74 -31.5 139.5t-59.5 96t-63 8.5q-32 -23 -39 -78q-7 -50 18 -72q20 -18 35 6q6 11 9 30q5 34 -11 44q-12 9 -18 -16q-4 -12 -3 -31zM637 623q48 20 62 42q14 24 7.5 58.5t-24.5 53.5q-46 44 -45 -154z" />
    <glyph glyph-name="K_k" unicode="Kk" horiz-adv-x="913" 
d="M58 674q0 -21 -4 -21q-6 1 -6 22q-4 65 21 78q18 8 30 -19q7 -16 7 -39q1 -50 -19 -72.5t-43.5 -8t-31.5 56.5q-9 50 7.5 99.5t46.5 68.5q70 44 137 -83q51 -96 59 -214.5t-19 -201.5l5 -3l50 78t47 67.5t56.5 72.5t53 50t62.5 43q35 17 58.5 -3t18 -52t-39.5 -42
q-29 -9 -40 14q-10 24 14 41q10 7 24 10q13 3 14 -2q1 -6 -11 -9q-28 -8 -25 -25q2 -14 18 -13q6 1 13 5q20 13 19 32.5t-17.5 27t-37.5 -2.5q-30 -18 -75.5 -79t-76.5 -111l-83 -138q212 -179 283 -195q23 -5 36.5 9t8.5 32.5t-29 24.5q-22 5 -26 -12q-4 -15 15 -20
q7 -2 16 -2q13 0 14 -4q0 -6 -13 -6q-41 -5 -51 22q-8 22 13 35q8 4 19 5q35 1 51 -27t0.5 -55t-54.5 -23q-41 5 -83.5 22.5t-93 51t-81.5 57l-89 69.5q-27 -66 -61.5 -98.5t-66.5 -17.5q-28 13 -49 59t-30.5 102.5t-12.5 111t2 91t16 36.5q1 -4 1 -16q3 -251 66 -307
q37 -34 77 19q50 67 55 199q2 41 -2 83q-6 74 -31.5 139.5t-59.5 96t-63 8.5q-32 -23 -39 -78q-7 -50 18 -72q20 -18 35 6q6 11 9 30q5 34 -11 44q-12 9 -18 -16q-4 -12 -3 -31zM694 339q51 -4 81 -27.5t42 -59t19 -72t22 -74t41 -58.5q8 -6 17 -3t10 10.5t-6 14.5
q-11 8 -15 -1q-3 -7 9 -12q6 -3 5 -5h-6q-20 7 -16 20.5t21 7.5q15 -7 15 -21t-11 -20t-27 2q-28 17 -48 48.5t-32 63t-26 61.5t-38.5 50.5t-59.5 23.5q-18 0 -26 -3q-1 -12 -1 -36v-22q-5 -63 -49 -10q4 14 5 22v20q-1 -1 -7 -8t-9 -11q-23 28 17 66q3 301 4 329
q-2 116 24 177q30 68 86 5q28 -30 29.5 -82t-33.5 -83q-28 -20 -62 -32l-3 -220q62 90 139 99q53 6 74 -30q23 -37 -16 -88q-17 -18 -42 -13t-31 33q-5 25 16 35q20 9 32 -13q5 -8 6 -19q3 -11 -2 -12q-3 -1 -4.5 2.5t-1.5 7.5q-5 22 -18 21q-13 -2 -13 -16q0 -6 3 -12
q12 -20 30 -14.5t23 24.5q6 24 -19 39.5t-48 9.5q-37 -11 -74 -45.5t-50 -72.5q18 4 24 3zM669 645q46 16 64 40q14 22 8.5 57.5t-23.5 55.5q-45 50 -49 -142v-11z" />
    <glyph glyph-name="K_l" unicode="Kl" horiz-adv-x="803" 
d="M58 674q0 -21 -4 -21q-6 1 -6 22q-4 65 21 78q18 8 30 -19q7 -16 7 -39q1 -50 -19 -72.5t-43.5 -8t-31.5 56.5q-9 50 7.5 99.5t46.5 68.5q70 44 137 -83q51 -96 59 -214.5t-19 -201.5l5 -3l50 78t47 67.5t56.5 72.5t53 50t62.5 43q35 17 58.5 -3t18 -52t-39.5 -42
q-29 -9 -40 14q-10 24 14 41q10 7 24 10q13 3 14 -2q1 -6 -11 -9q-28 -8 -25 -25q2 -14 18 -13q6 1 13 5q20 13 19 32.5t-17.5 27t-37.5 -2.5q-30 -18 -75.5 -79t-76.5 -111l-83 -138q212 -179 283 -195q23 -5 36.5 9t8.5 32.5t-29 24.5q-22 5 -26 -12q-4 -15 15 -20
q7 -2 16 -2q13 0 14 -4q0 -6 -13 -6q-41 -5 -51 22q-8 22 13 35q8 4 19 5q35 1 51 -27t0.5 -55t-54.5 -23q-41 5 -83.5 22.5t-93 51t-81.5 57l-89 69.5q-27 -66 -61.5 -98.5t-66.5 -17.5q-28 13 -49 59t-30.5 102.5t-12.5 111t2 91t16 36.5q1 -4 1 -16q3 -251 66 -307
q37 -34 77 19q50 67 55 199q2 41 -2 83q-6 74 -31.5 139.5t-59.5 96t-63 8.5q-32 -23 -39 -78q-7 -50 18 -72q20 -18 35 6q6 11 9 30q5 34 -11 44q-12 9 -18 -16q-4 -12 -3 -31zM603 195l4 26q-2 68 -1.5 217.5t-0.5 174.5q-6 154 29 201q28 38 78 -17q27 -30 29.5 -80.5
t-31.5 -84.5q-22 -17 -61 -33q-1 -65 -0.5 -199t0.5 -165q0 -1 1 -4q33 15 70.5 12t67.5 -30t30 -66q-2 -32 -34.5 -40t-43.5 26q-4 16 6.5 27t24 6t18.5 -27q0 -10 -4 -11q-5 0 -5 8q-5 22 -18 17t-9 -20l2 -4q18 -21 37.5 -3t6.5 42q-11 18 -39 28q-27 8 -51 4t-41 -13
t-34 -9t-31 17zM649 623q48 20 62 42q14 24 7.5 58.5t-24.5 53.5q-46 44 -45 -154z" />
    <glyph glyph-name="K_t" unicode="Kt" horiz-adv-x="779" 
d="M58 674q0 -21 -4 -21q-6 1 -6 22q-4 65 21 78q18 8 30 -19q7 -16 7 -39q1 -50 -19 -72.5t-43.5 -8t-31.5 56.5q-9 50 7.5 99.5t46.5 68.5q70 44 137 -83q51 -96 59 -214.5t-19 -201.5l5 -3l50 78t47 67.5t56.5 72.5t53 50t62.5 43q35 17 58.5 -3t18 -52t-39.5 -42
q-29 -9 -40 14q-10 24 14 41q10 7 24 10q13 3 14 -2q1 -6 -11 -9q-28 -8 -25 -25q2 -14 18 -13q6 1 13 5q20 13 19 32.5t-17.5 27t-37.5 -2.5q-30 -18 -75.5 -79t-76.5 -111l-83 -138q212 -179 283 -195q23 -5 36.5 9t8.5 32.5t-29 24.5q-22 5 -26 -12q-4 -15 15 -20
q7 -2 16 -2q13 0 14 -4q0 -6 -13 -6q-41 -5 -51 22q-8 22 13 35q8 4 19 5q35 1 51 -27t0.5 -55t-54.5 -23q-41 5 -83.5 22.5t-93 51t-81.5 57l-89 69.5q-27 -66 -61.5 -98.5t-66.5 -17.5q-28 13 -49 59t-30.5 102.5t-12.5 111t2 91t16 36.5q1 -4 1 -16q3 -251 66 -307
q37 -34 77 19q50 67 55 199q2 41 -2 83q-6 74 -31.5 139.5t-59.5 96t-63 8.5q-32 -23 -39 -78q-7 -50 18 -72q20 -18 35 6q6 11 9 30q5 34 -11 44q-12 9 -18 -16q-4 -12 -3 -31zM626 570q-4 60 -43 81q-19 10 -38 15q-12 39 17 41q33 2 69 -36q44 -47 41 -111v-3
q31 -8 59.5 1t32.5 30q5 17 -6 30q-7 9 -17.5 7.5t-14 -9.5t2.5 -18q9 -9 16 -2t-6 16q-6 3 -4 6q1 1 7 -2q20 -11 11 -25t-25 -3q-19 13 -7.5 32t31.5 13q15 -5 22.5 -21t2.5 -32q-6 -20 -28 -36t-44 -20q-18 -3 -35 0q-1 -12 -6.5 -70t-7.5 -88.5t-4 -77.5t1 -77.5
t10 -48.5q6 -15 20 -17t23 8.5t2 26.5q-6 15 -18 11q-13 -5 -4 -21l4 -6q6 -8 4 -10q-4 -3 -9 5q-22 23 -7 41q13 15 30 1q3 -2 5 -5q21 -27 -1 -51q-21 -22 -45 -9q-10 5 -17 18q-25 47 -29 118t1.5 163.5t3.5 134.5z" />
    <glyph glyph-name="M_b" unicode="Mb" horiz-adv-x="961" 
d="M135 836q21 -25 35.5 -45.5t28 -48.5l18.5 -39t20.5 -53l19.5 -53q136 142 268 248q27 17 37 -11.5t10 -92.5q0 -41 -5 -121q48 -17 116 -4q2 112 10 151q23 109 93 36q50 -58 28.5 -116.5t-87.5 -82.5v-146q52 64 110 30q49 -28 67 -98q23 -88 -29 -151q-8 -10 -18 -19
q-27 -25 -75 -32.5t-74 9.5q-21 14 -20 37.5t18.5 33.5t40.5 -1q19 -13 10 -33t-32 -10q-5 3 -11 7q-7 7 -5 9q0 1 10 -2q18 -12 25 0q6 12 -7 19q-2 1 -5 2q-17 5 -26 -5.5t-5 -25.5t20 -20q45 -15 89.5 19t51.5 91q9 77 -34 120q-35 36 -72 13q-45 -28 -55 -130
q0 -1 -1 -4q0 -2 -1 -3q-4 -2 -7 -4q-9 0 -5 11q-4 127 -4 270q-61 -12 -117 5q-10 -116 -10 -262.5t24 -197.5q10 -23 31.5 -25.5t34.5 14.5t2 41q-9 20 -25 16q-17 -4 -12 -24q3 -9 11 -19q10 -10 6 -15q-7 -4 -14 7q-32 32 -15 59q13 21 37 13q11 -4 19 -14q29 -35 6 -70
q-20 -31 -55 -27q-25 4 -44 31q-35 52 -49.5 134t-12 163t3.5 172t-3 161v1l-100 -79.5t-130 -108.5q60 -150 99 -183q13 -12 27 -7t16 18t-10 27q-15 11 -23 -1q-7 -13 14 -24q8 -5 7 -7q-2 -5 -10 0q-29 11 -25 34q4 17 22 16q6 0 12 -3q24 -11 24.5 -36.5t-18 -36.5
t-44.5 3q-57 40 -120 172q-31 -31 -41 -54q-7 -15 1.5 -26.5t22.5 -11t21 16.5q7 17 -5 22t-17 -12q-1 -3 -2 -7q-3 -10 -5 -10q-3 1 -3 11q2 29 23 32q19 3 24 -15q1 -6 0 -13q-4 -26 -27 -33t-41 8t-9 43q11 35 46 75l-35 78.5t-48 100.5q-1 0 -1 2q-5 -53 -4.5 -178.5
t-10 -218.5t-44.5 -153q-22 -38 -57 -27q-28 10 -34 39q-5 25 16 48q21 22 39 8q19 -15 5 -43q-5 -8 -12 -16q-6 -10 -11 -6q-4 4 5 13q18 22 5 34q-11 11 -22 -3q-2 -3 -4 -8q-9 -21 1 -36t27 -13t26 22q19 41 22.5 143.5t-1 232t-3.5 163.5q0 100 25 101q9 0 21 -11z
M727 629q53 21 68 64.5t-25 90.5q-47 45 -43 -155z" />
    <glyph glyph-name="M_h" unicode="Mh" horiz-adv-x="944" 
d="M137 837q20 -25 34.5 -46t28 -48.5t18.5 -39.5t20 -52.5l20 -53.5q135 141 269 247q27 17 37.5 -11.5t9.5 -92.5q0 -27 -6 -129q42 -8 93 2q2 128 16 173q26 81 91 11q27 -30 29.5 -80.5t-31.5 -84.5q-22 -17 -61 -33q-1 -12 -1 -141q29 34 60.5 40t54.5 -8.5t39 -40.5
q14 -23 15.5 -63.5t-3.5 -78.5t-2.5 -84.5t18.5 -79.5q7 -15 22 -16.5t24.5 9.5t2.5 26t-20 10q-15 -5 -3 -23q1 -2 3 -4q7 -7 4 -9q-4 -2 -10 4q-23 23 -7 40q14 15 33 2q3 -2 5 -5q21 -24 0 -48q-20 -23 -47 -12q-12 5 -21 18q-20 33 -27.5 69t-9 95.5t-2.5 74.5
q-4 57 -43 78q-40 22 -75 -18q-32 -36 -41 -112q0 -1 -1 -4q0 -2 -1 -3q-4 -1 -6.5 1.5t-3.5 9.5t-1.5 13.5t-0.5 15.5v13q0 130 2 219q-52 -10 -96 -2q-7 -114 -9.5 -178.5t1.5 -150.5t20 -121q10 -24 31.5 -26.5t34.5 14.5t3 41q-10 20 -26 16q-17 -4 -12 -24q3 -9 11 -19
q11 -7 6 -14q-7 -4 -14 6q-32 32 -14 59q13 21 36 13q11 -4 19 -14q29 -35 6 -70q-21 -31 -55 -26q-26 3 -44 31q-35 52 -49 134t-10.5 163t4.5 172t-2 161l-1 1q-14 -12 -101.5 -80t-129.5 -107q63 -153 98 -183q13 -12 27.5 -7t16.5 18t-10 26q-14 11 -23 1q-9 -11 10 -23
l4 -2q8 -6 7 -8q-4 -5 -10 1q-28 11 -25 33q3 17 21 17q6 0 13 -4q24 -11 24 -36.5t-18.5 -36.5t-44.5 4q-58 41 -118 173q-32 -32 -41 -54q-7 -15 1 -26.5t22 -11t21 16.5q8 16 -4.5 21t-17.5 -12q-2 -3 -2 -7q-3 -10 -5 -10q-3 1 -3 11q2 29 23 32q19 3 24 -15q1 -6 0 -13
q-4 -30 -35 -34q-30 -3 -41 21q-7 14 -1 32q9 28 46 75l-25.5 59l-30 67.5t-25.5 52.5q-1 0 -1 1q-6 -54 -6.5 -179t-11.5 -218t-45 -152q-22 -38 -58 -25q-28 10 -32 39q-4 25 16 47q21 22 39 7q19 -15 5 -42q-4 -8 -12 -16q-7 -11 -11 -7q-3 3 5 14q18 22 5 34
q-12 11 -23 -5l-4 -6q-9 -21 1 -36t27.5 -13.5t26.5 21.5q19 41 23 144t0.5 231.5t-2.5 163.5q0 107 29 101q8 -2 17 -11zM705 623q48 20 62 42q14 24 7.5 58.5t-24.5 53.5q-46 44 -45 -154z" />
    <glyph glyph-name="M_k" unicode="Mk" horiz-adv-x="981" 
d="M132 835q21 -25 36 -45.5t28 -48l18.5 -39.5t21 -52t20.5 -54q129 137 266 251q27 18 37.5 -11t10.5 -93q0 -39 -3 -95q48 -27 126 -13q-2 116 24 177q30 68 86 5q28 -30 29.5 -81.5t-33.5 -83.5q-28 -20 -62 -32l-3 -220q62 90 139 99q53 6 74 -30q23 -37 -16 -88
q-17 -18 -42 -13t-31 33q-5 25 16 35q20 9 32 -13q5 -8 6 -19q3 -11 -2 -12q-3 -1 -4.5 2.5t-1.5 7.5q-5 22 -18 21q-13 -2 -13 -16q0 -6 3 -12q12 -20 30 -14.5t23 24.5q6 24 -19 39.5t-48 9.5q-37 -11 -74 -45.5t-50 -72.5q18 4 24 3q51 -4 81 -27.5t42 -59t19 -72t22 -74
t41 -58.5q8 -6 17 -3t10 10.5t-6 14.5q-11 8 -15 -1q-3 -7 9 -12q6 -3 5 -5h-6q-20 7 -16 20.5t21 7.5q15 -7 15 -21t-11 -20t-27 2q-28 17 -48 48.5t-32 63t-26 61.5t-38.5 50.5t-59.5 23.5q-18 0 -26 -3q-1 -12 -1 -36v-22q-5 -63 -49 -10q4 14 5 22v20q-1 -1 -7 -8
t-9 -11q-23 28 17 66q4 302 4 303q-76 -13 -127 10q-14 -285 -5 -382q6 -67 21 -99q11 -23 32.5 -25.5t34 14.5t1.5 41q-9 20 -25 16q-17 -4 -12 -24q3 -9 11 -19q12 -8 7 -14q-6 -3 -15 6q-32 32 -15 59q13 21 37 13q11 -4 19 -14q30 -34 6 -70q-20 -31 -55 -26
q-25 4 -43 30q-36 51 -51.5 133t-13 163.5t2.5 172.5t-4 160l-1 1q-11 -10 -98.5 -80t-129.5 -110q62 -150 100 -182q13 -11 27.5 -6t16 18t-10.5 26q-13 11 -22 1q-9 -11 8 -22q3 -2 6 -3q8 -5 7 -8q-4 -5 -10 1q-29 11 -26 32q3 18 22 17q6 0 13 -3q24 -10 24 -35.5
t-18 -37t-44 2.5q-58 41 -121 172q-30 -30 -41 -55q-7 -15 1.5 -26.5t22.5 -10.5t21 17t-5 21t-17 -12q-2 -3 -2 -7q-3 -10 -5 -10q-3 1 -3 11q1 29 23 32q18 3 24 -15q1 -6 0 -13q-4 -30 -35 -34q-29 -4 -41 19q-7 14 -1 33q9 31 45 75q-10 20 -27 58.5l-30.5 68
t-26.5 52.5q-1 0 -1 2q-4 -51 -4.5 -139t-0.5 -153.5t-12 -139t-38 -119.5q-21 -38 -57 -27q-28 10 -34 39q-5 25 16 48q20 22 39 8q19 -15 5 -43q-5 -8 -12 -16q-6 -10 -11 -6q-5 3 5 13q18 22 5 34q-12 11 -23 -5l-4 -6q-8 -21 2 -36t27 -13t26 22q19 41 21.5 143.5
t-3 232t-4.5 163.5q0 101 25 102q8 0 20 -11zM737 645q46 16 64 40q14 22 8.5 57.5t-23.5 55.5q-45 50 -49 -142v-11z" />
    <glyph glyph-name="M_l" unicode="Ml" horiz-adv-x="871" 
d="M132 835q21 -25 36 -45.5t28 -48l18.5 -39.5t21 -52t20.5 -54q129 137 266 251q27 18 37.5 -11t10.5 -93q0 -26 -4 -128q45 -14 107 -2q2 128 16 173q26 81 91 11q27 -30 29.5 -80.5t-31.5 -84.5q-22 -17 -61 -33q-1 -65 -0.5 -199t0.5 -165q0 -1 1 -4q33 15 70.5 12
t67.5 -30t30 -66q-2 -32 -34.5 -40t-43.5 26q-4 16 6.5 27t24 6t18.5 -27q0 -10 -4 -11q-5 0 -5 8q-5 22 -18 17t-9 -20l2 -4q18 -21 37.5 -3t6.5 42q-11 18 -39 28q-27 8 -51 4t-41 -13t-34 -9t-31 17l4 26q-1 122 -1 366q-62 -11 -110 1q-9 -115 -7.5 -257.5t25.5 -192.5
q11 -23 32.5 -25.5t34 14.5t1.5 41q-10 20 -26 16t-11 -24q3 -9 11 -19q11 -7 7 -14q-5 -4 -15 6q-32 32 -15 59q13 21 37 13q11 -4 19 -14q30 -34 6 -70q-20 -31 -55 -26q-25 4 -43 30q-36 51 -51.5 133t-13 163.5t2.5 172.5t-4 160v1l-96 -77t-133 -113q62 -150 100 -182
q13 -11 27.5 -6t16 18t-10.5 26q-13 11 -22 1q-9 -11 8 -22q3 -2 6 -3q8 -5 7 -8q-4 -5 -10 1q-29 11 -26 32q3 18 22 17q6 0 13 -3q24 -10 24 -35.5t-18 -37t-44 2.5q-58 41 -121 172q-30 -30 -41 -55q-7 -15 1.5 -26.5t22.5 -10.5t21 17t-5 21t-17 -12q-2 -3 -2 -7
q-3 -10 -5 -10q-3 1 -3 11q1 29 23 32q18 3 24 -15q1 -6 0 -13q-4 -30 -35 -34q-29 -4 -41 19q-7 14 -1 33q9 31 45 75q-10 20 -27 58.5l-30.5 68t-26.5 52.5q-1 0 -1 1q-4 -51 -4.5 -139t-0.5 -153t-12 -138.5t-38 -119.5q-21 -38 -57 -27q-28 10 -34 39q-5 25 16 48
q20 22 39 8q19 -15 5 -43q-5 -8 -12 -16q-7 -10 -11 -6q-5 3 5 13q18 22 5 34q-11 10 -23 -4q-2 -3 -4 -7q-8 -21 2 -36t27 -13t26 22q19 41 21.5 143.5t-3 232t-4.5 163.5q0 101 25 102q8 0 20 -11zM717 623q48 20 62 42q14 24 7.5 58.5t-24.5 53.5q-46 44 -45 -154z" />
    <glyph glyph-name="N_b" unicode="Nb" horiz-adv-x="953" 
d="M522 313v130t0.5 134t13 125.5t38.5 104.5q18 31 48 28t40.5 -28.5t-8.5 -57.5q-18 -24 -39 -10t-11 41q4 11 14 21q10 6 13 5q1 -1 -6 -14q-18 -20 -6 -32q10 -11 23 2q3 3 5 8q10 21 -0.5 35.5t-29.5 12.5t-28 -21q-21 -46 -21 -180q43 -13 107 -1q2 112 10 151
q23 109 93 36q50 -58 28.5 -116.5t-87.5 -82.5v-146q52 64 110 30q49 -28 67 -98q23 -88 -29 -151q-8 -10 -18 -19q-27 -25 -75 -32.5t-74 9.5q-21 14 -20 37.5t18.5 33.5t40.5 -1q19 -13 10 -33t-32 -10q-5 3 -11 7q-7 7 -5 9q0 1 10 -2q18 -12 25 0q6 12 -7 19q-2 1 -5 2
q-17 5 -26 -5.5t-5 -25.5t20 -20q45 -15 89.5 19t51.5 91q9 77 -34 120q-35 36 -72 13q-45 -28 -55 -130q0 -1 -1 -4q0 -2 -1 -3q-5 -2 -7 -4q-9 0 -5 11q-4 127 -4 270q-52 -12 -107 2q1 -62 7 -175.5t6 -146.5q-1 -38 -17 -65.5t-33 -29.5q-1 -1 -5 4t-9.5 17.5
t-10.5 28.5q-38 138 -116 283t-141 204q-4 -91 0 -175.5t-7.5 -175.5t-43.5 -146q-32 -44 -68 -26q-28 14 -28 47q1 20 15 37q19 23 41 9q20 -14 8 -41q-4 -10 -13 -19q-8 -8 -13 -5q-2 3 5 13q18 20 6 32q-10 12 -23 -2q-3 -3 -5 -8q-9 -21 1.5 -35.5t29.5 -12.5t28 22
q19 41 21 139t-6 230.5t-8 155.5q1 5 1 12q-38 29 -67.5 38.5t-48.5 -5t-19 -55.5q-5 -47 28 -117q28 -59 59 -71q22 -8 23 17q1 20 -16 56q-17 39 -35 44q-8 3 -9 -8q0 -20 26 -61q1 -3 5.5 -10t5.5 -11t0 -8q-2 -1 -8.5 6.5t-10.5 15.5q-49 76 -39 108q6 21 33 -1
q15 -14 32 -41q49 -80 34 -122q-10 -30 -43 -11q-19 11 -39 36q-40 52 -63.5 122.5t-17.5 113.5q9 55 62.5 58.5t106.5 -36.5l6 -4q13 69 69 -4q-8 -16 -11 -44q86 -83 158 -208.5t111 -248.5zM719 629q53 21 68 64.5t-25 90.5q-47 45 -43 -155z" />
    <glyph glyph-name="N_h" unicode="Nh" horiz-adv-x="936" 
d="M522 317v130t0.5 134t13 126t37.5 105q19 30 49 27.5t40 -28t-9 -57.5q-16 -23 -37.5 -10t-12.5 39q4 11 14 22q10 7 13 5q1 -1 -5 -13q-18 -20 -6 -33q10 -11 23 3q3 3 5 8q10 20 -0.5 34.5t-29.5 12.5t-28 -21q-21 -46 -21 -191q42 -6 85 3q2 128 16 173q26 81 91 11
q27 -30 29.5 -80.5t-31.5 -84.5q-22 -17 -61 -33q-1 -12 -1 -141q29 34 60.5 40t54.5 -8.5t39 -40.5q14 -23 15.5 -63.5t-3.5 -78.5t-2.5 -84.5t18.5 -79.5q7 -15 22 -16.5t24.5 9.5t2.5 26t-20 10q-15 -5 -3 -23q1 -2 3 -4q7 -7 4 -9q-4 -2 -10 4q-23 23 -7 40q14 15 33 2
q3 -2 5 -5q21 -24 0 -48q-20 -23 -47 -12q-12 5 -21 18q-20 33 -27.5 69t-9 95.5t-2.5 74.5q-4 57 -43 78q-40 22 -75 -18q-32 -36 -41 -112q0 -1 -1 -4q0 -2 -1 -3q-4 -1 -6.5 1.5t-3.5 9.5t-1.5 13.5t-0.5 15.5v13q0 130 2 219q-44 -9 -86 -4q1 -60 7 -168.5t6 -139.5
q-1 -39 -16.5 -66t-32.5 -29q-1 -1 -5 4t-10 17.5t-10 28.5q-39 139 -117.5 283.5t-140.5 203.5q-1 -59 -1 -130.5v-134.5t-12.5 -126.5t-37.5 -105.5q-32 -45 -68 -27q-28 14 -28 47q0 20 15 37q19 22 40 9t10 -39q-4 -10 -14 -20q-9 -9 -13 -6q-2 3 5 13q20 22 6 34
q-12 10 -24 -4q-2 -3 -4 -7q-9 -21 2 -35.5t29.5 -12.5t27.5 22q19 41 21 138.5t-6 230.5t-8 156q0 8 1 12q-38 29 -67.5 38.5t-48.5 -5t-19 -55.5q-5 -47 28 -117q28 -59 59 -71q23 -8 23 17q1 20 -16 55q-18 42 -36 45q-7 2 -8 -8q-1 -19 25 -61q1 -2 5.5 -9.5t6.5 -12.5
t0 -7q-2 -1 -8 6t-11 15q-50 75 -40 108q7 21 33 0q16 -14 33 -42q49 -79 34 -122q-10 -30 -43 -11q-19 11 -39 36q-40 52 -63.5 123t-17.5 113q9 56 62.5 59.5t106.5 -36.5l6 -4q12 71 68 -4q-9 -25 -10 -44q86 -83 158 -208.5t111 -248.5zM697 623q48 20 62 42
q14 24 7.5 58.5t-24.5 53.5q-46 44 -45 -154z" />
    <glyph glyph-name="N_k" unicode="Nk" horiz-adv-x="973" 
d="M519 309q2 30 2 159t11.5 204.5t45.5 129.5q23 37 59 25q30 -10 33 -40q3 -22 -13 -44q-18 -23 -39.5 -8.5t-9.5 41.5q4 10 13 19q11 7 14 5q1 -2 0 -4t-3 -5t-3 -4q-19 -20 -7 -33q11 -11 24 3q3 3 5 8q10 20 -0.5 34.5t-29.5 13t-28 -20.5q-20 -42 -23 -149
q50 -19 115 -8q-2 116 24 177q30 68 86 5q28 -30 29.5 -81.5t-33.5 -83.5q-28 -20 -62 -32l-3 -220q62 90 139 99q53 6 74 -30q23 -37 -16 -88q-17 -18 -42 -13t-31 33q-5 25 16 35q20 9 32 -13q5 -8 6 -19q3 -11 -2 -12q-3 -1 -4.5 2.5t-1.5 7.5q-5 22 -18 21
q-13 -2 -13 -16q0 -6 3 -12q12 -20 30 -14.5t23 24.5q6 24 -19 39.5t-48 9.5q-37 -11 -74 -45.5t-50 -72.5q18 4 24 3q51 -4 81 -27.5t42 -59t19 -72t22 -74t41 -58.5q8 -6 17 -3t10 10.5t-6 14.5q-11 8 -15 -1q-3 -7 9 -12q6 -3 5 -5h-6q-20 7 -16 20.5t21 7.5
q15 -7 15 -21t-11 -20t-27 2q-28 17 -48 48.5t-32 63t-26 61.5t-38.5 50.5t-59.5 23.5q-18 0 -26 -3q-1 -12 -1 -36v-22q-5 -63 -49 -10q4 14 5 22v20q-1 -1 -7 -8t-9 -11q-23 28 17 66q4 302 4 303q-67 -11 -116 5q-1 -72 4 -198t5 -150q-1 -39 -17.5 -66t-33.5 -29
q-1 -1 -5 4.5t-9.5 18t-9.5 27.5q-38 140 -114 286t-137 205q-2 -30 -2 -160t-11.5 -206t-44.5 -130q-32 -43 -68 -26q-27 14 -27 47q0 21 15 38q20 23 40.5 8t7.5 -42q-5 -9 -13 -17q-9 -9 -13 -6q-3 4 6 13q19 22 5 34q-11 10 -23 -4q-2 -3 -4 -7q-10 -21 0.5 -36
t29.5 -13t28 22q19 41 22.5 139t-2 230t-5.5 156v12q-37 29 -66.5 39.5t-49 -4t-19.5 -55.5q-5 -49 27 -117q26 -60 58 -72q22 -9 23 16q1 21 -15 56q-18 42 -35 46q-8 2 -9 -8q-1 -20 25 -62q1 -3 5.5 -10.5t5.5 -11t0 -7.5q-2 -1 -8.5 6.5t-10.5 15.5q-49 77 -37 109
q7 20 34 -4q15 -14 30 -40q48 -79 33 -121q-10 -30 -42 -12q-19 10 -40 37q-40 52 -62.5 123t-15.5 114q10 55 63.5 58t105.5 -38l6 -4q14 70 69 -5q-10 -21 -11 -44q85 -84 155 -210.5t107 -249.5zM729 645q46 16 64 40q14 22 8.5 57.5t-23.5 55.5q-45 50 -49 -142v-11z
" />
    <glyph glyph-name="N_l" unicode="Nl" horiz-adv-x="863" 
d="M523 315q1 41 -0.5 127t-0.5 140t13 120t37 108q22 37 58 26q29 -9 34 -39q4 -22 -12 -45t-37.5 -10t-12.5 39q3 11 14 22q10 7 13 6q1 -2 -5 -14q-18 -20 -7 -32q11 -11 24 2q3 3 5 8q9 21 -1.5 35.5t-29 12.5t-27.5 -22q-22 -49 -20 -187q46 -10 97 1q2 128 16 173
q26 81 91 11q27 -30 29.5 -80.5t-31.5 -84.5q-22 -17 -61 -33q-1 -65 -0.5 -199t0.5 -165q0 -1 1 -4q33 15 70.5 12t67.5 -30t30 -66q-2 -32 -34.5 -40t-43.5 26q-4 16 6.5 27t24 6t18.5 -27q0 -10 -4 -11q-5 0 -5 8q-5 22 -18 17t-9 -20l2 -4q18 -21 37.5 -3t6.5 42
q-11 18 -39 28q-27 8 -51 4t-41 -13t-34 -9t-31 17l4 26q-1 122 -1 366q-49 -10 -98 -2q1 -64 7.5 -174t6.5 -138q0 -38 -16 -65.5t-33 -29.5q-1 -1 -5 4t-9.5 17.5t-10.5 28.5q-40 138 -119 282.5t-141 202.5q-1 -30 1 -160t-8 -206t-42 -130q-32 -45 -68 -28
q-28 14 -28 47q0 20 15 37q19 22 40 10q21 -13 10 -40q-4 -10 -13 -20q-9 -9 -14 -6q-1 3 6 13q19 22 5 34q-11 10 -23 -4q-2 -3 -4 -7q-9 -21 1.5 -35.5t29.5 -12.5t28 22q18 41 19.5 139.5t-7 229t-8.5 156.5v12q-38 29 -67.5 38.5t-48.5 -5t-19 -55.5q-4 -51 30 -117
q28 -59 59 -71q23 -8 23 17q1 20 -16 55q-19 42 -36 45q-8 2 -8 -7q-2 -19 25 -62q14 -27 12 -29q-2 -1 -9 6.5t-10 14.5q-51 77 -40 109q7 21 34 -3q15 -14 31 -39q49 -79 35 -121q-9 -30 -42 -13q-19 10 -40 36q-41 51 -64.5 122t-18.5 114q9 55 62.5 59t106.5 -36l6 -4
q12 70 69 -3q-9 -24 -10 -45q86 -83 158.5 -207.5t112.5 -247.5zM709 623q48 20 62 42q14 24 7.5 58.5t-24.5 53.5q-46 44 -45 -154z" />
    <glyph glyph-name="O_b" unicode="Ob" horiz-adv-x="846" 
d="M78 605q-47 -142 26 -252q51 -79 132 -100q86 -22 140 37q48 52 50 155q1 64 -19.5 123.5t-70.5 73.5q-25 8 -43 -8t-15.5 -38.5t28.5 -30.5q24 -7 33 13q8 18 -14 25q-7 3 -18 3q-16 0 -15 5q1 7 16 7q44 3 53 -27q7 -25 -16 -40q-11 -8 -27 -8q-44 0 -55 39
q-11 37 17 65q23 24 61 19q25 -3 54.5 -16.5t50 -24t55 -16t67.5 6.5q2 112 10 151q23 109 93 36q50 -58 28.5 -116.5t-87.5 -82.5v-146q52 64 110 30q49 -28 67 -98q23 -88 -29 -151q-8 -10 -18 -19q-27 -25 -75 -32.5t-74 9.5q-21 14 -20 37.5t18.5 33.5t40.5 -1
q19 -13 10 -33t-32 -10q-5 3 -11 7q-7 7 -5 9q0 1 10 -2q18 -12 25 0q6 12 -7 19q-2 1 -5 2q-17 5 -26 -5.5t-5 -25.5t20 -20q45 -15 89.5 19t51.5 91q9 77 -34 120q-35 36 -72 13q-45 -28 -55 -130q0 -1 -1 -4q0 -2 -1 -3q-4 -2 -7 -4q-9 0 -5 11q-4 127 -4 270
q-64 -13 -124 8q47 -66 45 -158q-2 -115 -62.5 -186.5t-150.5 -66.5q-84 5 -147.5 43.5t-95 99t-38 138t24.5 160.5q21 63 62 116t103 84t128 16q62 -14 74 -69q11 -47 -20 -81q-33 -35 -83 -17q-40 15 -41 52q-1 32 29 45q25 10 60 -6q19 -11 17 -17q-1 -4 -4.5 -4.5t-10 2
t-7.5 2.5q-40 16 -51 -8q-9 -20 11 -35q9 -7 23 -8q36 -2 50 25t-1.5 56t-50.5 31q-49 3 -99 -32.5t-82.5 -83t-48.5 -92.5zM612 629q53 21 68 64.5t-25 90.5q-47 45 -43 -155z" />
    <glyph glyph-name="O_h" unicode="Oh" horiz-adv-x="829" 
d="M78 605q-47 -142 26 -252q51 -79 132 -100q86 -22 140 37q48 52 50 155q1 64 -19.5 123.5t-70.5 73.5q-25 8 -43 -8t-15.5 -38.5t28.5 -30.5q24 -7 33 13q8 18 -14 25q-7 3 -18 3q-16 0 -15 5q1 7 16 7q44 3 53 -27q7 -25 -16 -40q-11 -8 -27 -8q-44 0 -55 39
q-11 37 17 65q23 24 61 19q50 -7 88 -47q46 -19 117 -6q2 128 16 173q26 81 91 11q27 -30 29.5 -80.5t-31.5 -84.5q-22 -17 -61 -33q-1 -12 -1 -141q29 34 60.5 40t54.5 -8.5t39 -40.5q14 -23 15.5 -63.5t-3.5 -78.5t-2.5 -84.5t18.5 -79.5q7 -15 22 -16.5t24.5 9.5t2.5 26
t-20 10q-15 -5 -3 -23q1 -2 3 -4q6 -7 4 -9q-4 -2 -10 4q-23 23 -7 40q14 15 33 2q3 -2 5 -5q21 -24 0 -48q-20 -23 -47 -12q-12 5 -21 18q-20 33 -27.5 69t-9 95.5t-2.5 74.5q-4 57 -43 78q-40 22 -75 -18q-32 -36 -41 -112q0 -1 -1 -4q0 -2 -1 -3q-4 -1 -6.5 1.5t-3.5 9.5
t-1.5 13.5t-0.5 15.5v13q0 130 2 219q-51 -10 -93 -2q37 -63 35 -144q-2 -115 -62.5 -186.5t-150.5 -66.5q-84 5 -147.5 43.5t-95 99t-38 138t24.5 160.5q21 63 62 116t103 84t128 16q62 -14 74 -69q11 -47 -20 -81q-33 -35 -83 -17q-40 15 -41 52q-1 32 29 45q25 10 60 -6
q19 -11 17 -17q-1 -4 -4.5 -4.5t-10 2t-7.5 2.5q-40 16 -51 -8q-9 -20 11 -35q9 -7 23 -8q36 -2 50 25t-1.5 56t-50.5 31q-49 3 -99 -32.5t-82.5 -83t-48.5 -92.5zM590 623q48 20 62 42q14 24 7.5 58.5t-24.5 53.5q-46 44 -45 -154z" />
    <glyph glyph-name="O_k" unicode="Ok" horiz-adv-x="866" 
d="M78 605q-47 -142 26 -252q51 -79 132 -100q86 -22 140 37q48 52 50 155q1 64 -19.5 123.5t-70.5 73.5q-25 8 -43 -8t-15.5 -38.5t28.5 -30.5q24 -7 33 13q8 18 -14 25q-7 3 -18 3q-16 0 -15 5q1 7 16 7q44 3 53 -28q7 -25 -15 -40q-12 -8 -28 -7q-49 3 -59 43
q-9 36 20 63q25 22 62 17q33 -4 61 -24q33 -10 88.5 -11.5t87.5 4.5q-2 116 24 177q30 68 86 5q28 -30 29.5 -81.5t-33.5 -83.5q-28 -20 -62 -32l-3 -220q62 90 139 99q53 6 74 -30q23 -37 -16 -88q-17 -18 -42 -13t-31 33q-5 25 16 35q20 9 32 -13q5 -8 6 -19q3 -11 -2 -12
q-3 -1 -4.5 2.5t-1.5 7.5q-5 22 -18 21q-13 -2 -13 -16q0 -6 3 -12q12 -20 30 -14.5t23 24.5q6 24 -19 39.5t-48 9.5q-37 -11 -74 -45.5t-50 -72.5q18 4 24 3q51 -4 81 -27.5t42 -59t19 -72t22 -74t41 -58.5q8 -6 17 -3t10 10.5t-6 14.5q-11 8 -15 -1q-3 -7 9 -12q6 -3 5 -5
h-6q-20 7 -16 20.5t21 7.5q15 -7 15 -21t-11 -20t-27 2q-28 17 -48 48.5t-32 63t-26 61.5t-38.5 50.5t-59.5 23.5q-18 0 -26 -3q-1 -12 -1 -36v-22q-5 -63 -49 -10q4 14 5 22v20q-1 -1 -7 -8t-9 -11q-23 28 17 66q4 302 4 303q-64 -11 -140 -1q53 -67 51 -167
q-2 -115 -62.5 -186.5t-150.5 -66.5q-84 5 -147.5 43.5t-95 99t-38 138t24.5 160.5q21 63 62 116t103 84t128 16q67 -15 79 -70q10 -46 -22 -80q-35 -36 -86 -17q-40 15 -41 52q-1 32 29 45q25 10 60 -6q19 -11 17 -17q-1 -4 -4.5 -4.5t-10 2t-7.5 2.5q-40 16 -51 -8
q-9 -20 11 -35q9 -7 23 -8q36 -2 50 25t-1.5 56t-50.5 31q-49 3 -99 -32.5t-82.5 -83t-48.5 -92.5zM622 645q46 16 64 40q14 22 8.5 57.5t-23.5 55.5q-45 50 -49 -142v-11z" />
    <glyph glyph-name="O_l" unicode="Ol" horiz-adv-x="756" 
d="M78 605q-47 -142 26 -252q51 -79 132 -100q86 -22 140 37q48 52 50 155q1 64 -19.5 123.5t-70.5 73.5q-25 8 -43 -8t-15.5 -38.5t28.5 -30.5q24 -7 33 13q8 18 -14 25q-7 3 -18 3q-16 0 -15 5q1 7 16 7q44 3 53 -27q7 -25 -16 -40q-11 -8 -27 -8q-44 0 -55 39
q-11 37 17 65q23 24 61 19q41 -6 73 -33q22 -17 61.5 -23t82.5 3q2 128 16 173q26 81 91 11q27 -30 29.5 -80.5t-31.5 -84.5q-22 -17 -61 -33q-1 -65 -0.5 -199t0.5 -165v-2q1 -1 1 -2q33 15 70.5 12t67.5 -30t30 -66q-2 -32 -34.5 -40t-43.5 26q-4 16 6.5 27t24 6t18.5 -27
q0 -10 -4 -11q-5 0 -5 8q-5 22 -18 17t-9 -20l2 -4q18 -21 37.5 -3t6.5 42q-11 18 -39 28q-27 8 -51 4t-41 -13t-34 -9t-31 17l4 26q-1 122 -1 366q-60 -11 -107 1q39 -65 37 -147q-2 -115 -62.5 -186.5t-150.5 -66.5q-84 5 -147.5 43.5t-95 99t-38 138t24.5 160.5
q21 63 62 116t103 84t128 16q62 -14 74 -69q11 -47 -20 -81q-33 -35 -83 -17q-40 15 -41 52q-1 32 29 45q25 10 60 -6q19 -11 17 -17q-1 -4 -4.5 -4.5t-10 2t-7.5 2.5q-40 16 -51 -8q-9 -20 11 -35q9 -7 23 -8q36 -2 50 25t-1.5 56t-50.5 31q-49 3 -99 -32.5t-82.5 -83
t-48.5 -92.5zM602 623q48 20 62 42q14 24 7.5 58.5t-24.5 53.5q-46 44 -45 -154z" />
    <glyph glyph-name="P_b" unicode="Pb" horiz-adv-x="911" 
d="M148 518q19 0 19 -7q-3 -8 -21 -8q-50 -2 -60 31q-9 28 17 47q14 11 35 10q31 -1 48 -20.5t17.5 -44t-15 -47.5t-43.5 -30q-42 -10 -81.5 17.5t-51.5 71.5q-16 58 13 127.5t77 111.5q57 49 125.5 66t130 2.5t113.5 -47.5t83 -83t32 -104q22 0 47 5q2 112 10 151
q23 109 93 36q50 -58 28.5 -116.5t-87.5 -82.5v-146q52 64 110 30q49 -28 67 -98q23 -88 -29 -151q-8 -10 -18 -19q-27 -25 -75 -32.5t-74 9.5q-21 14 -20 37.5t18.5 33.5t40.5 -1q19 -13 10 -33t-32 -10q-5 3 -11 7q-7 7 -5 9q0 1 10 -2q18 -12 25 0q6 12 -7 19q-2 1 -5 2
q-17 5 -26 -5.5t-5 -25.5t20 -20q45 -15 89.5 19t51.5 91q9 77 -34 120q-35 36 -72 13q-45 -28 -55 -130q0 -1 -1 -4q0 -2 -1 -3q-5 -2 -7 -4q-9 0 -5 11q-4 127 -4 270q-20 -5 -48 -5q-3 -19 -9 -37q-18 -49 -74 -80t-114 -39t-105 -1q-2 -66 -5 -107t-15 -91.5t-33 -83.5
t-52 -19q-26 12 -26 40q-1 17 12 31q17 19 35 5q18 -16 2 -39q-3 -6 -9 -11q-7 -7 -10 -4q-2 1 5 11q17 19 4 29q-11 8 -21 -6q-1 -2 -2 -3q-8 -17 0.5 -30t24.5 -12t24 18q28 55 22 289q-8 8 -6 15q1 0 3 0.5t4 0.5q-3 95 -2 141q1 29 4.5 48t10.5 29.5t19.5 4t30.5 -31.5
q-11 -24 -11 -43q-7 -45 -9 -149q175 1 226 85q36 60 -7 130t-134 94q-44 11 -91 7q-62 -6 -121 -46t-89 -95t-14 -100q7 -19 24 -36t37 -24q28 -10 50 8t20 44.5t-32 36.5q-28 9 -39 -12q-10 -18 10 -29q10 -5 25 -6zM677 629q53 21 68 64.5t-25 90.5q-47 45 -43 -155z" />
    <glyph glyph-name="P_h" unicode="Ph" horiz-adv-x="894" 
d="M148 515q19 0 19 -7q-1 -5 -20 -8q-50 -3 -61 30q-9 28 16 47q14 11 35 11q31 0 48.5 -19.5t18 -44t-14.5 -47.5t-42 -31q-42 -11 -82 16.5t-53 71.5q-16 56 11.5 126.5t74.5 113.5q57 51 126.5 68.5t131.5 3t115 -47.5t84 -84t30 -106q8 1 26 5q2 128 16 173
q26 81 91 11q27 -30 29.5 -80.5t-31.5 -84.5q-22 -17 -61 -33q-1 -12 -1 -141q29 34 60.5 40t54.5 -8.5t39 -40.5q14 -23 15.5 -63.5t-3.5 -78.5t-2.5 -84.5t18.5 -79.5q7 -15 22 -16.5t24.5 9.5t2.5 26t-20 10q-15 -5 -3 -23q1 -2 3 -4q7 -7 4 -9q-4 -2 -10 4q-23 23 -7 40
q14 15 33 2q3 -2 5 -5q21 -24 0 -48q-20 -23 -47 -12q-12 5 -21 18q-20 33 -27.5 69t-9 95.5t-2.5 74.5q-4 57 -43 78q-40 22 -75 -18q-32 -36 -41 -112q0 -1 -1 -4q0 -2 -1 -3q-4 -1 -6.5 1.5t-3.5 9.5t-1.5 13.5t-0.5 15.5v13q0 130 2 219q-20 -4 -30 -5q-5 -21 -7 -28
q-25 -72 -119.5 -104.5t-171.5 -20.5q-1 -67 -3 -107.5t-13 -91.5t-32 -84q-16 -27 -41.5 -23t-33.5 26.5t8 46.5q17 19 35 6t5 -37q-3 -7 -10 -13q-9 -6 -11 -4t-1 3.5t3 4t2 3.5q17 18 6 28q-11 9 -22 -5q-2 -2 -3 -4q-8 -17 1 -29.5t25 -11t24 18.5q26 53 18 288
q-9 9 -7 16h7q-4 77 -4 142q0 29 3 47.5t10 29t20 4t31 -30.5q-10 -21 -11 -42q-6 -45 -6 -149q175 4 224 89q36 61 -8 129q-45 70 -136 92q-44 10 -91 5q-63 -7 -121 -48t-86.5 -96t-12.5 -100q6 -19 23.5 -36t37.5 -24q29 -9 50.5 9t19 44.5t-32.5 36.5q-27 9 -38 -12
q-10 -19 10 -30q10 -5 25 -5zM655 623q48 20 62 42q14 24 7.5 58.5t-24.5 53.5q-46 44 -45 -154z" />
    <glyph glyph-name="P_k" unicode="Pk" horiz-adv-x="931" 
d="M148 516q19 0 19 -7q-1 -5 -20 -8q-50 -3 -61 31q-9 27 15 46q14 12 36 11q31 -1 48.5 -20.5t18 -43.5t-15 -47t-42.5 -31q-42 -11 -82 17t-52 72q-16 56 12 126.5t76 112.5q67 60 151.5 72.5t154 -15t120 -82t58.5 -119.5q24 -1 59 4q-2 116 24 177q30 68 86 5
q28 -30 29.5 -81.5t-33.5 -83.5q-28 -20 -62 -32l-3 -220q62 90 139 99q53 6 74 -30q23 -37 -16 -88q-17 -18 -42 -13t-31 33q-5 25 16 35q20 9 32 -13q5 -8 6 -19q3 -11 -2 -12q-3 -1 -4.5 2.5t-1.5 7.5q-5 22 -18 21q-13 -2 -13 -16q0 -6 3 -12q12 -20 30 -14.5t23 24.5
q6 24 -19 39.5t-48 9.5q-37 -11 -74 -45.5t-50 -72.5q18 4 24 3q51 -4 81 -27.5t42 -59t19 -72t22 -74t41 -58.5q8 -6 17 -3t10 10.5t-6 14.5q-11 8 -15 -1q-3 -7 9 -12q6 -3 5 -5h-6q-20 7 -16 20.5t21 7.5q15 -7 15 -21t-11 -20t-27 2q-28 17 -48 48.5t-32 63t-26 61.5
t-38.5 50.5t-59.5 23.5q-18 0 -26 -3q-1 -12 -1 -36v-22q-5 -63 -49 -10q4 14 5 22v20q-1 -1 -7 -8t-9 -11q-23 28 17 66q4 302 4 303q-25 -5 -58 -5q0 -26 -9 -52q-26 -72 -120.5 -103.5t-172.5 -19.5q-1 -100 -10 -167.5t-39 -114.5q-21 -34 -53 -20q-26 12 -26 40
q0 16 12 30q17 19 35 6t5 -37q-4 -7 -11 -13q-7 -7 -10 -4q-2 2 -1 3.5t3 4t2 3.5q17 18 6 28q-11 9 -22 -5q-2 -2 -3 -4q-8 -17 1 -29.5t24.5 -11.5t24.5 18q27 56 19 289q-8 8 -7 15q1 0 3 0.5t4 0.5q-3 86 -3 141q1 29 4 48t10 29.5t20 4t31 -31.5q-10 -21 -11 -42
q-7 -52 -7 -149q175 3 225 87q35 61 -8 129q-45 70 -135 93q-44 11 -92 6q-62 -6 -120.5 -46.5t-87.5 -95.5t-13 -100q6 -20 23.5 -37t37.5 -23q29 -10 50.5 8t19 44.5t-32.5 36.5q-27 9 -38 -12q-10 -19 10 -30q10 -5 25 -5zM687 645q46 16 64 40q14 22 8.5 57.5
t-23.5 55.5q-45 50 -49 -142v-11z" />
    <glyph glyph-name="P_l" unicode="Pl" horiz-adv-x="821" 
d="M148 515q19 -3 19 -8q-2 -7 -20 -7q-50 -3 -61 30q-9 28 15 46q14 11 35 11q42 0 58.5 -31t2.5 -65.5t-50 -44.5q-42 -12 -82 15.5t-53 71.5q-16 56 11 126.5t74 113.5q57 51 126.5 69.5t131.5 3.5t115 -48t84 -84t30 -106q17 0 39 5q2 128 16 173q26 81 91 11
q27 -30 29.5 -80.5t-31.5 -84.5q-22 -17 -61 -33q-1 -65 -0.5 -199t0.5 -165q0 -1 1 -4q33 15 70.5 12t67.5 -30t30 -66q-2 -32 -34.5 -40t-43.5 26q-4 16 6.5 27t24 6t18.5 -27q0 -10 -4 -11q-5 0 -5 8q-5 22 -18 17t-9 -20l2 -4q18 -21 37.5 -3t6.5 42q-11 18 -39 28
q-27 8 -51 4t-41 -13t-34 -9t-31 17l4 26q-1 122 -1 366q-14 -3 -42 -5q-4 -17 -7 -28q-17 -49 -72 -81.5t-113.5 -42t-105.5 -2.5q0 -100 -8.5 -167.5t-37.5 -114.5q-21 -34 -52 -20q-26 11 -27 39q-1 17 11 31q17 19 35 6q19 -14 5 -38q-4 -6 -10 -12q-8 -8 -10 -5t-1.5 4
t2.5 3.5t2 3.5q17 19 6 29q-10 8 -21 -4l-4 -6q-8 -17 1 -29.5t25 -11t24 18.5q27 56 17 289q-8 7 -7 15q1 0 3 0.5t4 0.5q-5 95 -5 142q1 30 4 48t9.5 28.5t19.5 4t31 -30.5q-9 -23 -10 -43q-6 -44 -6 -149q175 5 224 90q35 60 -8 129q-45 70 -136 92q-44 10 -92 5
q-96 -11 -170 -93.5t-49 -151.5q6 -19 23.5 -36t38.5 -24q28 -9 49.5 9.5t19 45t-32.5 35.5q-26 8 -38 -11q-10 -18 8 -29q10 -6 27 -6zM667 623q48 20 62 42q14 24 7.5 58.5t-24.5 53.5q-46 44 -45 -154z" />
    <glyph glyph-name="Q_b" unicode="Qb" horiz-adv-x="812" 
d="M236 151q42 -2 130 -2.5t142.5 -2.5t120.5 -16t107 -42q40 -27 27 -64q-10 -29 -42 -33q-23 -2 -46 15t-10.5 38t38.5 14q12 -4 24 -16q10 -10 7 -13q-4 -5 -14 5q-21 19 -34 7q-12 -11 2 -24q3 -4 8 -6q22 -10 37.5 1t13.5 30.5t-22 28.5q-42 20 -145 24t-235 0t-164 -3
q-36 1 -58.5 5t-35.5 12t-5 23t38 37q24 -10 77 -16q0 14 5 99q-126 29 -176.5 142.5t-2.5 253.5q31 92 106 155.5t162 41.5q61 -16 72 -67q9 -44 -23 -73q-30 -28 -75 -12q-37 13 -38 47q0 30 28 41q23 8 54 -6q18 -6 15 -15q-2 -7 -20 0q-38 14 -47 -9q-7 -20 12 -32
q8 -5 19 -6q34 -2 46.5 22.5t-1.5 51t-46 28.5q-65 5 -121 -55.5t-81 -130.5q-47 -139 21 -242q48 -72 124 -88q79 -16 126 45q37 48 39 134q1 39 -8 83q-8 32 -28 61.5t-47 36.5q-22 7 -38.5 -8t-14.5 -35t26 -27q22 -6 30 11q7 15 -11 23q-7 3 -18 3q-14 0 -14 5q1 4 15 6
q31 2 43.5 -14.5t1.5 -34.5t-36 -19q-44 -2 -55 36q-10 34 16 59q22 22 59 17q57 -9 92 -57q48 -23 126 -8q2 112 10 151q23 109 93 36q50 -58 28.5 -116.5t-87.5 -82.5v-146q52 64 110 30q49 -28 67 -98q23 -88 -29 -151q-8 -10 -18 -19q-27 -25 -75 -32.5t-74 9.5
q-21 14 -20 37.5t18.5 33.5t40.5 -1q19 -13 10 -33t-32 -10q-5 3 -11 7q-7 7 -5 9q0 1 10 -2q18 -12 25 0q6 12 -7 19q-2 1 -5 2q-17 5 -26 -5.5t-5 -25.5t20 -20q45 -15 89.5 19t51.5 91q9 77 -34 120q-35 36 -72 13q-45 -28 -55 -130q0 -1 -1 -4q0 -2 -1 -3q-4 -2 -7 -4
q-9 0 -5 11q-4 127 -4 270q-51 -11 -108 3q27 -53 27 -118q-3 -106 -58 -171.5t-137 -60.5l-25 3q-1 -17 1 -49.5t2 -46.5zM578 629q53 21 68 64.5t-25 90.5q-47 45 -43 -155z" />
    <glyph glyph-name="Q_h" unicode="Qh" horiz-adv-x="795" 
d="M236 151q42 -2 130 -2.5t142.5 -2.5t120.5 -16t107 -42q40 -27 27 -64q-10 -29 -42 -33q-23 -2 -46 15t-10.5 38t38.5 14q12 -4 24 -16q10 -10 7 -13q-4 -5 -14 5q-21 19 -34 7q-12 -11 2 -24q3 -4 8 -6q22 -10 37.5 1t13.5 30.5t-22 28.5q-42 20 -145 24t-235 0t-164 -3
q-36 1 -58.5 5t-35.5 12t-5 23t38 37q24 -10 77 -16q0 14 5 99q-126 29 -176.5 142.5t-2.5 253.5q20 57 57.5 105.5t94 76.5t116.5 15q57 -13 68 -63q10 -45 -20 -76q-29 -29 -74 -13q-37 13 -38 47q0 30 28 41q23 8 54 -6q18 -6 15 -15q-2 -7 -20 0q-38 14 -47 -9
q-7 -20 12 -32q8 -5 19 -6q34 -2 46.5 22.5t-1.5 51t-46 28.5q-65 5 -121 -55.5t-81 -130.5q-47 -139 21 -242q48 -72 124 -88q79 -16 126 45q37 48 39 134q1 39 -8 83q-8 32 -28 61.5t-47 36.5q-22 7 -38.5 -8t-14.5 -35t26 -27q22 -6 30 11q7 15 -11 23q-7 3 -18 3
q-14 0 -14 5q1 4 15 6q40 3 48 -24q7 -24 -15 -38q-10 -6 -24 -6q-42 0 -53 37q-10 36 16 60q22 20 57 15q63 -8 100 -69q46 -10 96 1q2 128 16 173q26 81 91 11q27 -30 29.5 -80.5t-31.5 -84.5q-22 -17 -61 -33q-1 -12 -1 -141q29 34 60.5 40t54.5 -8.5t39 -40.5
q14 -23 15.5 -63.5t-3.5 -78.5t-2.5 -84.5t18.5 -79.5q7 -15 22 -16.5t24.5 9.5t2.5 26t-20 10q-15 -5 -3 -23q1 -2 3 -4q6 -7 4 -9q-4 -2 -10 4q-23 23 -7 40q14 15 33 2q3 -2 5 -5q21 -24 0 -48q-20 -23 -47 -12q-12 5 -21 18q-20 33 -27.5 69t-9 95.5t-2.5 74.5
q-4 57 -43 78q-40 22 -75 -18q-32 -36 -41 -112q0 -1 -1 -4q0 -2 -1 -3q-4 -1 -6.5 1.5t-3.5 9.5t-1.5 13.5t-0.5 15.5v13q0 130 2 219q-46 -8 -82 -4q22 -51 22 -107q-3 -106 -58 -171.5t-137 -60.5l-25 3q-1 -17 1 -49.5t2 -46.5zM556 623q48 20 62 42q14 24 7.5 58.5
t-24.5 53.5q-46 44 -45 -154z" />
    <glyph glyph-name="Q_k" unicode="Qk" horiz-adv-x="832" 
d="M236 151q42 -2 130 -2.5t142.5 -2.5t120.5 -16t107 -42q40 -27 27 -64q-10 -29 -42 -33q-23 -2 -46 15t-10.5 38t38.5 14q12 -4 24 -16q10 -10 7 -13q-4 -5 -14 5q-21 19 -34 7q-12 -11 2 -24q3 -4 8 -6q22 -10 37.5 1t13.5 30.5t-22 28.5q-42 20 -145 24t-235 0t-164 -3
q-36 1 -58.5 5t-35.5 12t-5 23t38 37q24 -10 77 -16q0 14 5 99q-126 29 -176.5 142.5t-2.5 253.5q20 57 57.5 105.5t94 76.5t116.5 15q62 -14 72 -65q9 -44 -23 -74q-31 -29 -75 -13q-37 13 -38 47q0 30 28 41q23 8 54 -6q18 -6 15 -15q-2 -7 -20 0q-38 14 -47 -9
q-7 -20 12 -32q8 -5 19 -6q34 -2 46.5 22.5t-1.5 51t-46 28.5q-65 5 -121 -55.5t-81 -130.5q-47 -139 21 -242q48 -72 124 -88q79 -16 126 45q37 48 39 134q1 39 -8 83q-8 32 -28 61.5t-47 36.5q-22 7 -38.5 -8t-14.5 -35t26 -27q22 -6 30 11q7 15 -11 23q-7 3 -18 3
q-14 0 -14 5q1 4 15 6q31 2 43.5 -14.5t1.5 -34.5t-36 -19q-46 -2 -57 36q-10 34 18 60q22 21 59 16q41 -6 70 -32q23 -13 74 -17t84 3q-2 116 24 177q30 68 86 5q28 -30 29.5 -82t-33.5 -83q-28 -20 -62 -32l-3 -220q62 90 139 99q53 6 74 -30q23 -37 -16 -88
q-17 -18 -42 -13t-31 33q-5 25 16 35q20 9 32 -13q5 -8 6 -19q3 -11 -2 -12q-3 -1 -4.5 2.5t-1.5 7.5q-5 22 -18 21q-13 -2 -13 -16q0 -6 3 -12q12 -20 30 -14.5t23 24.5q6 24 -19 39.5t-48 9.5q-37 -11 -74 -45.5t-50 -72.5q18 4 24 3q51 -4 81 -27.5t42 -59t19 -72t22 -74
t41 -58.5q8 -6 17 -3t10 10.5t-6 14.5q-11 8 -15 -1q-3 -7 9 -12q6 -3 5 -5h-6q-20 7 -16 20.5t21 7.5q15 -7 15 -21t-11 -20t-27 2q-28 17 -48 48.5t-32 63t-26 61.5t-38.5 50.5t-59.5 23.5q-18 0 -26 -3q-1 -12 -1 -36v-22q-5 -63 -49 -10q4 14 5 22v20q-1 -1 -7 -8
t-9 -11q-23 28 17 66q4 302 4 303q-64 -12 -128 4q37 -61 37 -137q-3 -106 -58 -171.5t-137 -60.5l-25 3q-1 -17 1 -49.5t2 -46.5zM588 645q46 16 64 40q14 22 8.5 57.5t-23.5 55.5q-45 50 -49 -142v-11z" />
    <glyph glyph-name="R_b" unicode="Rb" horiz-adv-x="799" 
d="M255 709q-10 -25 -12 -43q-4 -53 -4 -130q130 -9 167 57q28 49 -12 108q-45 66 -132 80q-13 2 -27 3q-77 4 -143.5 -49t-56.5 -111q10 -40 41 -55q22 -11 42 2t20 32t-22 33q-21 10 -31 -6q-11 -15 7 -26q7 -3 17 -5q12 -3 13 -5v-3q-2 -4 -16 -4q-40 4 -43 33
q-3 24 20 36q12 6 26 3q25 -5 36 -23t8.5 -37.5t-17 -35.5t-37.5 -19q-35 -4 -63 23t-32 63q-6 48 24 100t73 80q52 34 110 39t106 -15.5t85.5 -54.5t54.5 -79.5t7 -88.5q33 0 57 5q2 112 10 151q23 109 93 36q50 -58 28.5 -116.5t-87.5 -82.5v-146q52 64 110 30
q49 -28 67 -98q23 -88 -29 -151q-8 -10 -18 -19q-27 -25 -75 -32.5t-74 9.5q-21 14 -20 37.5t18.5 33.5t40.5 -1q19 -13 10 -33t-32 -10q-5 3 -11 7q-7 7 -5 9q0 1 10 -2q18 -12 25 0q6 12 -7 19q-2 1 -5 2q-17 5 -26 -5.5t-5 -25.5t20 -20q45 -15 89.5 19t51.5 91
q9 77 -34 120q-35 36 -72 13q-45 -28 -55 -130q0 -1 -1 -4q0 -2 -1 -3q-4 -2 -7 -4q-9 0 -5 11q-4 127 -4 270q-34 -6 -65 -5l-4 -9q-26 -48 -97 -65q43 -37 45 -90q0 -20 -4.5 -106.5t-3 -153.5t15.5 -94q7 -13 21 -14t22.5 9t0.5 24q-6 13 -17 8q-13 -4 -3 -20l4 -4l2 -2
q4 -5 1 -7t-9 4q-22 20 -8 37q13 15 31 2l4 -4q21 -22 3 -46q-18 -22 -43 -12q-11 5 -20 17q-28 39 -36.5 109t-4.5 132t-3 127q-7 56 -46 72t-68 -29q0 -191 -46 -266q-16 -27 -42.5 -24t-34.5 25.5t10 48.5q16 19 34 7q19 -14 5 -39q-3 -6 -9 -12q-9 -5 -10 -4
q-2 3 -1.5 4t2.5 3.5t2 3.5q17 18 5 28q-10 9 -20 -3q-2 -3 -3 -6q-8 -17 0.5 -29.5t24.5 -11t24 18.5q25 51 16 303q-31 11 -26 26q2 2 25 -3q-3 70 -3 117q0 29 3 47.5t9.5 29t19.5 4t31 -29.5zM565 629q53 21 68 64.5t-25 90.5q-47 45 -43 -155z" />
    <glyph glyph-name="R_h" unicode="Rh" horiz-adv-x="782" 
d="M255 709q-10 -25 -12 -43q-4 -53 -4 -130q130 -9 167 57q28 49 -12 108q-45 66 -132 80q-13 2 -27 3q-77 4 -143.5 -49t-56.5 -111q10 -40 41 -55q22 -11 42 2t20 32t-22 33q-21 10 -31 -6q-11 -15 7 -26q7 -3 17 -5q12 -3 13 -5v-3q-2 -4 -16 -4q-40 4 -43 33
q-3 24 20 36q12 6 26 3q25 -5 36 -23t8.5 -37.5t-17 -35.5t-37.5 -19q-35 -4 -63 23t-32 63q-6 48 24 100t73 80q69 46 139.5 39.5t125 -40t83.5 -90t15 -111.5q11 1 35 5q2 128 16 173q26 81 91 11q27 -30 29.5 -80.5t-31.5 -84.5q-22 -17 -61 -33q-1 -12 -1 -141
q29 34 60.5 40t54.5 -8.5t39 -40.5q14 -23 15.5 -63.5t-3.5 -78.5t-2.5 -84.5t18.5 -79.5q7 -15 22 -16.5t24.5 9.5t2.5 26t-20 10q-15 -5 -3 -23q1 -2 3 -4q7 -7 4 -9q-4 -2 -10 4q-23 23 -7 40q14 15 33 2q3 -2 5 -5q21 -24 0 -48q-20 -23 -47 -12q-12 5 -21 18
q-20 33 -27.5 69t-9 95.5t-2.5 74.5q-4 57 -43 78q-40 22 -75 -18q-32 -36 -41 -112q0 -1 -1 -4q0 -2 -1 -3q-4 -1 -6.5 1.5t-3.5 9.5t-1.5 13.5t-0.5 15.5v13q0 130 2 219q-27 -5 -46 -5q0 -1 -0.5 -2.5t-1.5 -2.5q-26 -48 -97 -65q43 -37 45 -90q0 -20 -4.5 -106.5
t-3 -153.5t15.5 -94q7 -13 21 -14t22.5 9t0.5 24q-6 13 -17 8q-13 -4 -3 -20l4 -4l2 -2q4 -5 1 -7t-9 4q-22 20 -8 37q13 15 31 2l4 -4q21 -22 3 -46q-18 -22 -43 -12q-11 5 -20 17q-28 39 -36.5 109t-4.5 132t-3 127q-7 56 -46 72t-68 -29q0 -191 -46 -266
q-16 -27 -42.5 -24t-34.5 25.5t10 48.5q16 19 34 7q19 -14 5 -39q-3 -6 -9 -12q-9 -5 -10 -4q-2 3 -1.5 4t2.5 3.5t2 3.5q17 18 5 28q-10 9 -20 -3q-2 -3 -3 -6q-8 -17 0.5 -29.5t24.5 -11t24 18.5q25 51 16 303q-31 11 -26 26q2 2 25 -3q-3 70 -3 117q0 29 3 47.5t9.5 29
t19.5 4t31 -29.5zM543 623q48 20 62 42q14 24 7.5 58.5t-24.5 53.5q-46 44 -45 -154z" />
    <glyph glyph-name="R_k" unicode="Rk" horiz-adv-x="819" 
d="M255 709q-10 -25 -12 -43q-4 -53 -4 -130q130 -9 167 57q28 49 -12 108q-45 66 -132 80q-13 2 -27 3q-77 4 -143.5 -49t-56.5 -111q10 -40 41 -55q22 -11 42 2t20 32t-22 33q-21 10 -31 -6q-11 -15 7 -26q7 -3 17 -5q12 -3 13 -5v-3q-2 -4 -16 -4q-40 4 -43 33
q-3 24 20 36q12 6 26 3q25 -5 36 -23t8.5 -37.5t-17 -35.5t-37.5 -19q-35 -4 -63 23t-32 63q-6 48 24 100t73 80q65 43 131.5 39.5t120.5 -33t86 -81t28 -103.5q32 -3 64 3q-2 116 24 177q30 68 86 5q28 -30 29.5 -81.5t-33.5 -83.5q-28 -20 -62 -32l-3 -220q62 90 139 99
q53 6 74 -30q23 -37 -16 -88q-17 -18 -42 -13t-31 33q-5 25 16 35q20 9 32 -13q5 -8 6 -19q3 -11 -2 -12q-3 -1 -4.5 2.5t-1.5 7.5q-5 22 -18 21q-13 -2 -13 -16q0 -6 3 -12q12 -20 30 -14.5t23 24.5q6 24 -19 39.5t-48 9.5q-37 -11 -74 -45.5t-50 -72.5q18 4 24 3
q51 -4 81 -27.5t42 -59t19 -72t22 -74t41 -58.5q8 -6 17 -3t10 10.5t-6 14.5q-11 8 -15 -1q-3 -7 9 -12q6 -3 5 -5h-6q-20 7 -16 20.5t21 7.5q15 -7 15 -21t-11 -20t-27 2q-28 17 -48 48.5t-32 63t-26 61.5t-38.5 50.5t-59.5 23.5q-18 0 -26 -3q-1 -12 -1 -36v-22
q-5 -63 -49 -10q4 14 5 22v20q-1 -1 -7 -8t-9 -11q-23 28 17 66q4 302 4 303q-35 -6 -68 -3q-3 -14 -11 -29q-26 -48 -97 -65q43 -37 45 -90q0 -20 -4.5 -106.5t-3 -153.5t15.5 -94q7 -13 21 -14t22.5 9t0.5 24q-6 13 -17 8q-13 -4 -3 -20l4 -4l2 -2q4 -5 1 -7t-9 4
q-22 20 -8 37q13 15 31 2l4 -4q21 -22 3 -46q-18 -22 -43 -12q-11 5 -20 17q-28 39 -36.5 109t-4.5 132t-3 127q-7 56 -46 72t-68 -29q0 -191 -46 -266q-16 -27 -42.5 -24t-34.5 25.5t10 48.5q16 19 34 7q19 -14 5 -39q-3 -6 -9 -12q-9 -5 -10 -4q-2 3 -1.5 4t2.5 3.5t2 3.5
q17 18 5 28q-10 9 -20 -3q-2 -3 -3 -6q-8 -17 0.5 -29.5t24.5 -11t24 18.5q25 51 16 303q-31 11 -26 26q2 2 25 -3q-3 70 -3 117q0 29 3 47.5t9.5 29t19.5 4t31 -29.5zM575 645q46 16 64 40q14 22 8.5 57.5t-23.5 55.5q-45 50 -49 -142v-11z" />
    <glyph glyph-name="R_l" unicode="Rl" horiz-adv-x="709" 
d="M255 709q-10 -25 -12 -43q-4 -53 -4 -130q130 -9 167 57q28 49 -12 108q-45 66 -132 80q-13 2 -27 3q-77 4 -143.5 -49t-56.5 -111q10 -40 41 -55q22 -11 42 2t20 32t-22 33q-21 10 -31 -6q-11 -15 7 -26q7 -3 17 -5q12 -3 13 -5v-3q-2 -4 -16 -4q-40 4 -43 33
q-3 24 20 36q12 6 26 3q25 -5 36 -23t8.5 -37.5t-17 -35.5t-37.5 -19q-35 -4 -63 23t-32 63q-6 48 24 100t73 80q69 46 139.5 39.5t125 -40t83.5 -90t15 -111.5q20 0 47 5q2 128 16 173q26 81 91 11q27 -30 29.5 -80.5t-31.5 -84.5q-22 -17 -61 -33q-1 -65 -0.5 -199
t0.5 -165q0 -1 1 -4q33 15 70.5 12t67.5 -30t30 -66q-2 -32 -34.5 -40t-43.5 26q-4 16 6.5 27t24 6t18.5 -27q0 -10 -4 -11q-5 0 -5 8q-5 22 -18 17t-9 -20l2 -4q18 -21 37.5 -3t6.5 42q-11 18 -39 28q-27 8 -51 4t-41 -13t-34 -9t-31 17l4 26q-1 122 -1 366q-32 -6 -58 -5
q0 -1 -0.5 -2.5t-1.5 -2.5q-26 -48 -97 -65q43 -37 45 -90q0 -20 -4.5 -106.5t-3 -153.5t15.5 -94q7 -13 21 -14t22.5 9t0.5 24q-6 13 -17 8q-13 -4 -3 -20l4 -4l2 -2q4 -5 1 -7t-9 4q-22 20 -8 37q13 15 31 2l4 -4q21 -22 3 -46q-18 -22 -43 -12q-11 5 -20 17
q-28 39 -36.5 109t-4.5 132t-3 127q-7 56 -46 72t-68 -29q0 -191 -46 -266q-16 -27 -42.5 -24t-34.5 25.5t10 48.5q16 19 34 7q19 -14 5 -39q-3 -6 -9 -12q-9 -5 -10 -4q-2 3 -1.5 4t2.5 3.5t2 3.5q17 18 5 28q-10 9 -20 -3q-2 -3 -3 -6q-8 -17 0.5 -29.5t24.5 -11t24 18.5
q25 51 16 303q-31 11 -26 26q2 2 25 -3q-3 70 -3 117q0 29 3 47.5t9.5 29t19.5 4t31 -29.5zM555 623q48 20 62 42q14 24 7.5 58.5t-24.5 53.5q-46 44 -45 -154z" />
    <glyph glyph-name="S_b" unicode="Sb" horiz-adv-x="1021" 
d="M551 596q24 5 24 22q-1 15 -16 17q-7 1 -15 -3q-19 -13 -18.5 -32t17.5 -31t36 -1q28 16 35 54q10 56 -48 109.5t-125 49.5q-49 -3 -88 -30.5t-55.5 -63t-11 -73t38.5 -57.5q28 -18 86 -24t107 -7t94 -25.5t58 -75.5q3 -79 -54.5 -138t-156 -85t-213.5 -14q-66 7 -124 29
t-94.5 61.5t-25.5 86.5q12 55 71 69q51 12 84 -13q27 -21 15 -54q-12 -32 -51 -36q-36 -4 -47 20q-7 15 4 38q3 13 15 13q9 -1 1 -15q-11 -29 14 -35q22 -4 35 13q5 7 5 16q-1 31 -40.5 33.5t-62.5 -22.5q-10 -12 -10 -26q1 -46 80 -85t149 -46q164 -17 274 56q72 49 77 108
q3 34 -21 58q-27 27 -78.5 35t-98.5 6t-94 15.5t-69 61.5q-14 32 -15.5 66t13.5 65.5t37 59t54.5 45t66.5 25.5t73 -1t74 -34q37 -27 63.5 -77.5t21.5 -96.5l-2 -11q43 -12 103 0q2 112 10 151q23 109 93 36q50 -58 28.5 -116.5t-87.5 -82.5v-146q52 64 110 30
q49 -28 67 -98q23 -88 -29 -151q-8 -10 -18 -19q-27 -25 -75 -32.5t-74 9.5q-21 14 -20 37.5t18.5 33.5t40.5 -1q19 -13 10 -33t-32 -10q-5 3 -11 7q-7 7 -5 9q0 1 10 -2q18 -12 25 0q6 12 -7 19q-2 1 -5 2q-17 5 -26 -5.5t-5 -25.5t20 -20q45 -15 89.5 19t51.5 91
q9 77 -34 120q-35 36 -72 13q-45 -28 -55 -130q0 -1 -1 -4q0 -2 -1 -3q-4 -2 -7 -4q-9 0 -5 11q-4 127 -4 270q-57 -12 -110 3q-12 -24 -32 -38t-43 -12q-31 3 -44.5 27.5t-2.5 50.5t40 32q28 5 38 -19q11 -25 -11 -41q-11 -7 -26 -9q-11 0 -13 5q-1 6 12 6zM787 629
q53 21 68 64.5t-25 90.5q-47 45 -43 -155z" />
    <glyph glyph-name="S_h" unicode="Sh" horiz-adv-x="1004" 
d="M551 596q24 5 24 22q-1 15 -16 17q-7 1 -15 -3q-19 -13 -18.5 -32t17.5 -31t36 -1q28 16 35 54q10 56 -48 109.5t-125 49.5q-49 -3 -88 -30.5t-55.5 -63t-11 -73t38.5 -57.5q28 -18 86 -24t107 -7t94 -25.5t58 -75.5q3 -79 -54.5 -138t-156 -85t-213.5 -14q-66 7 -124 29
t-94.5 61.5t-25.5 86.5q12 55 71 69q51 12 84 -13q27 -21 15 -54q-12 -32 -51 -36q-36 -4 -47 20q-7 15 4 38q3 13 15 13q9 -1 1 -15q-11 -29 14 -35q22 -4 35 13q5 7 5 16q-1 31 -40.5 33.5t-62.5 -22.5q-10 -12 -10 -26q1 -46 80 -85t149 -46q164 -17 274 56q72 49 77 108
q3 34 -21 58q-27 27 -78.5 35t-98.5 6t-94 15.5t-69 61.5q-14 32 -15.5 66t13.5 65.5t37 59t54.5 45t66.5 25.5t73 -1t74 -34q37 -27 63.5 -77.5t21.5 -96.5q-2 -12 -4 -17q40 -6 83 3q2 128 16 173q26 81 91 11q27 -30 29.5 -80.5t-31.5 -84.5q-22 -17 -61 -33
q-1 -12 -1 -141q29 34 60.5 40t54.5 -8.5t39 -40.5q14 -23 15.5 -63.5t-3.5 -78.5t-2.5 -84.5t18.5 -79.5q7 -15 22 -16.5t24.5 9.5t2.5 26t-20 10q-15 -5 -3 -23q1 -2 3 -4q7 -7 4 -9q-4 -2 -10 4q-23 23 -7 40q14 15 33 2q3 -2 5 -5q21 -24 0 -48q-20 -23 -47 -12
q-12 5 -21 18q-20 33 -27.5 69t-9 95.5t-2.5 74.5q-4 57 -43 78q-40 22 -75 -18q-32 -36 -41 -112q0 -1 -1 -4q0 -2 -1 -3q-4 -1 -6.5 1.5t-3.5 9.5t-1.5 13.5t-0.5 15.5v13q0 130 2 219q-51 -9 -94 -3q-28 -44 -70 -40q-31 3 -44.5 27.5t-2.5 50.5t40 32q28 5 38 -19
q11 -25 -11 -41q-11 -7 -26 -9q-11 0 -13 5q-1 6 12 6zM765 623q48 20 62 42q14 24 7.5 58.5t-24.5 53.5q-46 44 -45 -154z" />
    <glyph glyph-name="S_k" unicode="Sk" horiz-adv-x="1041" 
d="M551 596q24 5 24 22q-1 15 -16 17q-7 1 -15 -3q-19 -13 -18.5 -32t17.5 -31t36 -1q28 16 35 54q10 56 -48 109.5t-125 49.5q-49 -3 -88 -30.5t-55.5 -63t-11 -73t38.5 -57.5q28 -18 86 -24t107 -7t94 -25.5t58 -75.5q3 -79 -54.5 -138t-156 -85t-213.5 -14q-66 7 -124 29
t-94.5 61.5t-25.5 86.5q12 55 71 69q51 12 84 -13q27 -21 15 -54q-12 -32 -51 -36q-36 -4 -47 20q-7 15 4 38q3 13 15 13q9 -1 1 -15q-11 -29 14 -35q22 -4 35 13q5 7 5 16q-1 31 -40.5 33.5t-62.5 -22.5q-10 -12 -10 -26q1 -46 80 -85t149 -46q164 -17 274 56q72 49 77 108
q3 34 -21 58q-27 27 -78.5 35t-98.5 6t-94 15.5t-69 61.5q-14 32 -15.5 66t13.5 65.5t37 59t54.5 45t66.5 25.5t73 -1t74 -34q34 -25 59.5 -70.5t25.5 -89.5q6 -4 17 -6.5t25.5 -2.5t25.5 0.5t26 1.5t17 1q-2 116 24 177q30 68 86 5q28 -30 29.5 -81.5t-33.5 -83.5
q-28 -20 -62 -32l-3 -220q62 90 139 99q53 6 74 -30q23 -37 -16 -88q-17 -18 -42 -13t-31 33q-5 25 16 35q20 9 32 -13q5 -8 6 -19q3 -11 -2 -12q-3 -1 -4.5 2.5t-1.5 7.5q-5 22 -18 21q-13 -2 -13 -16q0 -6 3 -12q12 -20 30 -14.5t23 24.5q6 24 -19 39.5t-48 9.5
q-37 -11 -74 -45.5t-50 -72.5q18 4 24 3q51 -4 81 -27.5t42 -59t19 -72t22 -74t41 -58.5q8 -6 17 -3t10 10.5t-6 14.5q-11 8 -15 -1q-3 -7 9 -12q6 -3 5 -5h-6q-20 7 -16 20.5t21 7.5q15 -7 15 -21t-11 -20t-27 2q-28 17 -48 48.5t-32 63t-26 61.5t-38.5 50.5t-59.5 23.5
q-18 0 -26 -3q-1 -12 -1 -36v-22q-5 -63 -49 -10q4 14 5 22v20q-1 -1 -7 -8t-9 -11q-23 28 17 66q4 302 4 303q-66 -12 -114 5q-7 -31 -30 -52t-51 -18q-31 3 -44.5 27.5t-2.5 50.5t40 32q28 5 38 -19q11 -25 -11 -41q-11 -7 -26 -9q-11 0 -13 5q-1 6 12 6zM797 645
q46 16 64 40q14 22 8.5 57.5t-23.5 55.5q-45 50 -49 -142v-11z" />
    <glyph glyph-name="S_l" unicode="Sl" horiz-adv-x="931" 
d="M551 596q24 5 24 22q-1 15 -16 17q-7 1 -15 -3q-19 -13 -18.5 -32t17.5 -31t36 -1q28 16 35 54q10 56 -48 109.5t-125 49.5q-49 -3 -88 -30.5t-55.5 -63t-11 -73t38.5 -57.5q28 -18 86 -24t107 -7t94 -25.5t58 -75.5q3 -79 -54.5 -138t-156 -85t-213.5 -14q-66 7 -124 29
t-94.5 61.5t-25.5 86.5q12 55 71 69q51 12 84 -13q27 -21 15 -54q-12 -32 -51 -36q-36 -4 -47 20q-7 15 4 38q3 13 15 13q9 -1 1 -15q-11 -29 14 -35q22 -4 35 13q5 7 5 16q-1 31 -40.5 33.5t-62.5 -22.5q-10 -12 -10 -26q1 -46 80 -85t149 -46q164 -17 274 56q72 49 77 108
q3 34 -21 58q-27 27 -78.5 35t-98.5 6t-94 15.5t-69 61.5q-14 32 -15.5 66t13.5 65.5t37 59t54.5 45t66.5 25.5t73 -1t74 -34q37 -27 63.5 -77.5t21.5 -96.5l-3 -16q43 -9 94 2q2 128 16 173q26 81 91 11q27 -30 29.5 -80.5t-31.5 -84.5q-22 -17 -61 -33q-1 -65 -0.5 -199
t0.5 -165q0 -1 1 -4q33 15 70.5 12t67.5 -30t30 -66q-2 -32 -34.5 -40t-43.5 26q-4 16 6.5 27t24 6t18.5 -27q0 -10 -4 -11q-5 0 -5 8q-5 22 -18 17t-9 -20l2 -4q18 -21 37.5 -3t6.5 42q-11 18 -39 28q-27 8 -51 4t-41 -13t-34 -9t-31 17l4 26q-1 122 -1 366q-56 -11 -105 0
q-12 -21 -31 -33t-40 -10q-31 3 -44.5 27.5t-2.5 50.5t40 32q28 5 38 -19q11 -25 -11 -41q-11 -7 -26 -9q-11 0 -13 5q-1 6 12 6zM777 623q48 20 62 42q14 24 7.5 58.5t-24.5 53.5q-46 44 -45 -154z" />
    <glyph glyph-name="T_b" unicode="Tb" horiz-adv-x="1056" 
d="M40 855q29 -10 58 -11q63 -4 202 3.5t245.5 0.5t174.5 -43q48 -26 35 -66q-11 -31 -45 -38q-30 -7 -57 14q-52 -35 -20 -72q29 -32 88 -36q32 -1 57 9q2 112 10 151q23 109 93 36q50 -58 28.5 -116.5t-87.5 -82.5v-146q52 64 110 30q49 -28 67 -98q23 -88 -29 -151
q-8 -10 -18 -19q-27 -25 -75 -32.5t-74 9.5q-21 14 -20 37.5t18.5 33.5t40.5 -1q19 -13 10 -33t-32 -10q-5 3 -11 7q-7 7 -5 9q0 1 10 -2q18 -12 25 0q6 12 -7 19q-2 1 -5 2q-17 5 -26 -5.5t-5 -25.5t20 -20q45 -15 89.5 19t51.5 91q9 77 -34 120q-35 36 -72 13
q-45 -28 -55 -130q0 -1 -1 -4q0 -2 -1 -3q-4 -2 -7 -4q-9 0 -5 11q-4 127 -4 270q-67 -25 -129 10q-50 28 -49 70q1 34 43 59q-6 16 4 29t27.5 13.5t39.5 -17.5q8 -12 7 -14q-3 -3 -15 5q-25 20 -38 5q-12 -12 3 -25q4 -4 10 -6q24 -10 40 3t13 34t-26 30q-70 29 -317 10
q-1 -49 -6 -347q45 -17 71 -41q39 -39 35 -98t-38 -93q-96 -98 -116 76q-5 54 -3 141q-48 11 -97 5t-71 -29q-21 -22 -15.5 -50t27.5 -36.5t47 10.5q20 19 9 38q-11 18 -29 7q-11 -6 -19 -20q-10 -16 -15 -12q-4 3 2 20q23 46 58 38q25 -6 31 -34q3 -19 -8 -38
q-28 -44 -74 -33q-39 9 -53 46q-14 40 17 83q23 32 79 40.5t112 -5.5q3 73 5 327q-34 -3 -84 -7l-85.5 -7t-57.5 -4q-40 -1 -65 1.5t-40 10.5t-7 25.5t39 43.5zM434 240q22 22 30.5 63t-7.5 67q-20 32 -72 51q-6 -213 38 -190q5 3 11 9zM822 629q53 21 68 64.5t-25 90.5
q-47 45 -43 -155z" />
    <glyph glyph-name="T_h" unicode="Th" horiz-adv-x="1039" 
d="M40 855q29 -10 58 -11q63 -4 202 3.5t245.5 0.5t174.5 -43q48 -26 35 -66q-10 -30 -43 -39q-29 -8 -55 12q-5 3 -11 11q-23 -4 -37 -35t3 -51q19 -20 61 -26.5t83 2.5q2 128 16 173q26 81 91 11q27 -30 29.5 -80.5t-31.5 -84.5q-22 -17 -61 -33q-1 -12 -1 -141
q29 34 60.5 40t54.5 -8.5t39 -40.5q14 -23 15.5 -63.5t-3.5 -78.5t-2.5 -84.5t18.5 -79.5q7 -15 22 -16.5t24.5 9.5t2.5 26t-20 10q-15 -5 -3 -23q1 -2 3 -4q6 -7 4 -9q-4 -2 -10 4q-23 23 -7 40q14 15 33 2q3 -2 5 -5q21 -24 0 -48q-20 -23 -47 -12q-12 5 -21 18
q-20 33 -27.5 69t-9 95.5t-2.5 74.5q-4 57 -43 78q-40 22 -75 -18q-32 -36 -41 -112q0 -1 -1 -4q0 -2 -1 -3q-4 -1 -6.5 1.5t-3.5 9.5t-1.5 13.5t-0.5 15.5v13q0 130 2 219q-49 -10 -97 -2t-68 35q-24 38 -5 76t55 50q3 20 24 25t48 -16q8 -12 7 -14q-3 -3 -15 5
q-25 20 -38 5q-12 -12 3 -25q4 -4 10 -6q24 -10 40 3t13 34t-26 30q-70 29 -317 10q-1 -49 -6 -347q45 -17 71 -41q39 -39 35 -98t-38 -93q-96 -98 -116 76q-5 54 -3 141q-48 11 -97 5t-71 -29q-21 -22 -15.5 -50t27.5 -36.5t47 10.5q20 19 9 38q-11 18 -29 7
q-11 -6 -19 -20q-10 -16 -15 -12q-4 3 2 20q23 46 58 38q25 -6 31 -34q3 -19 -8 -38q-28 -44 -74 -33q-39 9 -53 46q-14 40 17 83q23 32 79 40.5t112 -5.5q3 73 5 327q-34 -3 -84 -7l-85.5 -7t-57.5 -4q-40 -1 -65 1.5t-40 10.5t-7 25.5t39 43.5zM434 240q22 22 30.5 63
t-7.5 67q-20 32 -72 51q-6 -213 38 -190q5 3 11 9zM800 623q48 20 62 42q14 24 7.5 58.5t-24.5 53.5q-46 44 -45 -154z" />
    <glyph glyph-name="T_k" unicode="Tk" horiz-adv-x="1076" 
d="M40 855q29 -10 58 -11q63 -4 202 3.5t245.5 0.5t174.5 -43q48 -26 35 -66q-10 -30 -43 -39q-29 -8 -55 12q-8 5 -13 14q-11 -12 -12 -29t12 -34q19 -21 60.5 -28.5t83.5 0.5q-2 120 25 180q29 63 85 2q28 -30 29.5 -82t-33.5 -83q-28 -20 -62 -32l-3 -220q62 90 139 99
q53 6 74 -30q23 -37 -16 -88q-17 -18 -42 -13t-31 33q-5 25 16 35q20 9 32 -13q5 -8 6 -19q3 -11 -2 -12q-3 -1 -4.5 2.5t-1.5 7.5q-5 22 -18 21q-13 -2 -13 -16q0 -6 3 -12q12 -20 30 -14.5t23 24.5q6 24 -19 39.5t-48 9.5q-37 -11 -74 -45.5t-50 -72.5q18 4 24 3
q51 -4 81 -27.5t42 -59t19 -72t22 -74t41 -58.5q8 -6 17 -3t10 10.5t-6 14.5q-11 8 -15 -1q-3 -7 9 -12q6 -3 5 -5h-6q-20 7 -16 20.5t21 7.5q15 -7 15 -21t-11 -20t-27 2q-28 17 -48 48.5t-32 63t-26 61.5t-38.5 50.5t-59.5 23.5q-18 0 -26 -3q-1 -12 -1 -36v-22
q-5 -63 -49 -10q4 14 5 22v20q-1 -1 -7 -8t-9 -11q-23 28 17 66q4 302 4 303q-52 -9 -97.5 1t-64.5 37q-20 31 -14 57t30 41q3 20 24 25.5t48 -15.5q8 -12 7 -14q-3 -3 -15 5q-25 20 -38 5q-12 -12 3 -25q4 -4 10 -6q24 -10 40 3t13 34t-26 30q-70 29 -317 10
q-1 -49 -6 -347q45 -17 71 -41q39 -39 35 -98t-38 -93q-96 -98 -116 76q-5 54 -3 141q-48 11 -97 5t-71 -29q-21 -22 -15.5 -50t27.5 -36.5t47 10.5q20 19 9 38q-11 18 -29 7q-11 -6 -19 -20q-10 -16 -15 -12q-4 3 2 20q23 46 58 38q25 -6 31 -34q3 -19 -8 -38
q-28 -44 -74 -33q-39 9 -53 46q-14 40 17 83q23 32 79 40.5t112 -5.5q3 73 5 327q-34 -3 -84 -7l-85.5 -7t-57.5 -4q-40 -1 -65 1.5t-40 10.5t-7 25.5t39 43.5zM434 240q22 22 30.5 63t-7.5 67q-20 32 -72 51q-6 -213 38 -190q5 3 11 9zM832 645q46 16 64 40q14 22 8.5 57.5
t-23.5 55.5q-45 50 -49 -142v-11z" />
    <glyph glyph-name="T_l" unicode="Tl" horiz-adv-x="966" 
d="M40 855q29 -10 58 -11q63 -4 202 3.5t245.5 0.5t174.5 -43q48 -26 35 -66q-10 -30 -43 -39q-29 -8 -55 12q-1 0 -3 2q-25 -2 -37.5 -28t7.5 -49q19 -20 61 -26.5t83 2.5q2 128 16 173q26 81 91 11q27 -30 29.5 -80.5t-31.5 -84.5q-22 -17 -61 -33q-1 -65 -0.5 -199
t0.5 -165v-2q1 -1 1 -2q33 15 70.5 12t67.5 -30t30 -66q-2 -32 -34.5 -40t-43.5 26q-4 16 6.5 27t24 6t18.5 -27q0 -10 -4 -11q-5 0 -5 8q-5 22 -18 17t-9 -20l2 -4q18 -21 37.5 -3t6.5 42q-11 18 -39 28q-27 8 -51 4t-41 -13t-34 -9t-31 17l4 26q-1 122 -1 366
q-49 -10 -96.5 -1.5t-68.5 34.5q-23 38 -8.5 69t47.5 40q-6 16 3.5 29t27.5 14t40 -17q8 -12 7 -14q-3 -3 -15 5q-25 20 -38 5q-12 -12 3 -25q4 -4 10 -6q24 -10 40 3t13 34t-26 30q-70 29 -317 10q-1 -49 -6 -347q45 -17 71 -41q39 -39 35 -98t-38 -93q-96 -98 -116 76
q-5 54 -3 141q-48 11 -97 5t-71 -29q-21 -22 -15.5 -50t27.5 -36.5t47 10.5q20 19 9 38q-11 18 -29 7q-11 -6 -19 -20q-10 -16 -15 -12q-4 3 2 20q23 46 58 38q25 -6 31 -34q3 -19 -8 -38q-28 -44 -74 -33q-39 9 -53 46q-14 40 17 83q23 32 79 40.5t112 -5.5q3 73 5 327
q-34 -3 -84 -7l-85.5 -7t-57.5 -4q-40 -1 -65 1.5t-40 10.5t-7 25.5t39 43.5zM434 240q22 22 30.5 63t-7.5 67q-20 32 -72 51q-6 -213 38 -190q5 3 11 9zM812 623q48 20 62 42q14 24 7.5 58.5t-24.5 53.5q-46 44 -45 -154z" />
    <glyph glyph-name="U_b" unicode="Ub" horiz-adv-x="805" 
d="M281 692q-3 -21 -6 -20q-5 2 -2 22q6 65 30 70q13 3 19 -19q6 -19 2 -46q-6 -47 -26 -63.5t-38 3t-18 61.5q0 51 21.5 95t47.5 53q34 13 70 -25.5t53 -97.5q15 -55 18 -113q34 -4 75 4q2 112 10 151q23 109 93 36q50 -58 28.5 -116.5t-87.5 -82.5v-146q52 64 110 30
q49 -28 67 -98q23 -88 -29 -151q-8 -10 -18 -19q-27 -25 -75 -32.5t-74 9.5q-21 14 -20 37.5t18.5 33.5t40.5 -1q19 -13 10 -33t-32 -10q-5 3 -11 7q-7 7 -5 9q0 1 10 -2q18 -12 25 0q6 12 -7 19q-2 1 -5 2q-17 5 -26 -5.5t-5 -25.5t20 -20q45 -15 89.5 19t51.5 91
q9 77 -34 120q-35 36 -72 13q-45 -28 -55 -130q0 -1 -1 -4q0 -2 -1 -3q-4 -2 -7 -4q-9 0 -5 11q-4 127 -4 270q-35 -7 -74 -4q2 -157 -64 -293q-50 -103 -106 -119q-31 -9 -56 15q-32 31 -55 88.5t-31 109.5q-11 -123 -47 -176q-30 -44 -66 -28q-27 12 -29 45q-2 23 14 41
q19 22 40 9t10 -39q-4 -10 -14 -20q-7 -10 -12 -6q-2 2 5 13q19 22 5 34q-12 11 -24 -4q-2 -3 -4 -7q-9 -21 2 -35.5t29.5 -12.5t27.5 22q18 41 20 141.5t-5 228t-7 158.5q0 35 3 57.5t11 35t23 5.5t37 -36q-15 -17 -12 -192t0 -192q50 -204 118 -213q48 -6 86 85
q35 88 45 225q9 129 -27 221q-28 72 -65 53q-28 -14 -43 -65q-14 -47 5 -75q13 -21 28 -1q7 9 12 26q10 34 -2 47q-10 10 -19 -16q-3 -10 -5 -25zM571 629q53 21 68 64.5t-25 90.5q-47 45 -43 -155z" />
    <glyph glyph-name="U_h" unicode="Uh" horiz-adv-x="788" 
d="M281 692q-3 -21 -6 -20q-5 2 -2 22q6 65 30 70q13 3 19 -19q6 -19 2 -46q-6 -47 -26 -63.5t-38 3t-18 61.5q0 51 21.5 95t47.5 53q34 13 70 -25.5t53 -97.5q15 -51 18 -118q26 0 53 6q2 128 16 173q26 81 91 11q27 -30 29.5 -80.5t-31.5 -84.5q-22 -17 -61 -33
q-1 -12 -1 -141q29 34 60.5 40t54.5 -8.5t39 -40.5q14 -23 15.5 -63.5t-3.5 -78.5t-2.5 -84.5t18.5 -79.5q7 -15 22 -16.5t24.5 9.5t2.5 26t-20 10q-15 -5 -3 -23q1 -2 3 -4q7 -7 4 -9q-4 -2 -10 4q-23 23 -7 40q14 15 33 2q3 -2 5 -5q21 -24 0 -48q-20 -23 -47 -12
q-12 5 -21 18q-20 33 -27.5 69t-9 95.5t-2.5 74.5q-4 57 -43 78q-40 22 -75 -18q-32 -36 -41 -112q0 -1 -1 -4q0 -2 -1 -3q-4 -1 -6.5 1.5t-3.5 9.5t-1.5 13.5t-0.5 15.5v13q0 130 2 219q-27 -6 -53 -6q1 -157 -66 -291q-50 -101 -105 -116q-30 -8 -55 16q-32 31 -55 88.5
t-31 109.5q-11 -123 -47 -176q-30 -44 -66 -28q-27 12 -29 45q-2 23 14 41q19 22 40 9t10 -39q-4 -10 -14 -20q-7 -10 -12 -6q-2 2 5 13q19 22 5 34q-12 11 -24 -4q-2 -3 -4 -7q-9 -21 2 -35.5t29.5 -12.5t27.5 22q18 41 20 141.5t-5 228t-7 158.5q0 35 3 57.5t11 35t23 5.5
t37 -36q-15 -17 -12 -192t0 -192q50 -204 118 -213q48 -6 86 85q35 88 45 225q9 129 -27 221q-28 72 -65 53q-28 -14 -43 -65q-14 -47 5 -75q13 -21 28 -1q7 9 12 26q10 34 -2 47q-10 10 -19 -16q-3 -10 -5 -25zM549 623q48 20 62 42q14 24 7.5 58.5t-24.5 53.5
q-46 44 -45 -154z" />
    <glyph glyph-name="U_k" unicode="Uk" horiz-adv-x="825" 
d="M281 692q-3 -21 -6 -20q-5 2 -2 22q6 65 30 70q13 3 19 -19q6 -19 2 -46q-6 -47 -26 -63.5t-38 3t-18 61.5q0 51 21.5 95t47.5 53q34 13 70 -25.5t53 -97.5q13 -45 17 -90q41 -8 86 0q-2 116 24 177q30 68 86 5q28 -30 29.5 -81.5t-33.5 -83.5q-28 -20 -62 -32l-3 -220
q62 90 139 99q53 6 74 -30q23 -37 -16 -88q-17 -18 -42 -13t-31 33q-5 25 16 35q20 9 32 -13q5 -8 6 -19q3 -11 -2 -12q-3 -1 -4.5 2.5t-1.5 7.5q-5 22 -18 21q-13 -2 -13 -16q0 -6 3 -12q12 -20 30 -14.5t23 24.5q6 24 -19 39.5t-48 9.5q-37 -11 -74 -45.5t-50 -72.5
q18 4 24 3q51 -4 81 -27.5t42 -59t19 -72t22 -74t41 -58.5q8 -6 17 -3t10 10.5t-6 14.5q-11 8 -15 -1q-3 -7 9 -12q6 -3 5 -5h-6q-20 7 -16 20.5t21 7.5q15 -7 15 -21t-11 -20t-27 2q-28 17 -48 48.5t-32 63t-26 61.5t-38.5 50.5t-59.5 23.5q-18 0 -26 -3q-1 -12 -1 -36v-22
q-5 -63 -49 -10q4 14 5 22v20q-1 -1 -7 -8t-9 -11q-23 28 17 66q4 302 4 303q-46 -8 -85 -2q7 -158 -58 -301q-49 -109 -106 -130q-34 -12 -61 14q-32 31 -55 88.5t-31 109.5q-11 -123 -47 -176q-30 -44 -66 -28q-27 12 -29 45q-2 23 14 41q19 22 40 9t10 -39
q-4 -10 -14 -20q-7 -10 -12 -6q-2 2 5 13q19 22 5 34q-12 11 -24 -4q-2 -3 -4 -7q-9 -21 2 -35.5t29.5 -12.5t27.5 22q18 41 20 141.5t-5 228t-7 158.5q0 35 3 57.5t11 35t23 5.5t37 -36q-15 -17 -12 -192t0 -192q50 -204 118 -213q48 -6 86 85q35 88 45 225q9 129 -27 221
q-28 72 -65 53q-28 -14 -43 -65q-14 -47 5 -75q13 -21 28 -1q7 9 12 26q10 34 -2 47q-10 10 -19 -16q-3 -10 -5 -25zM581 645q46 16 64 40q14 22 8.5 57.5t-23.5 55.5q-45 50 -49 -142v-11z" />
    <glyph glyph-name="U_l" unicode="Ul" horiz-adv-x="715" 
d="M281 692q-3 -21 -6 -20q-5 2 -2 22q6 65 30 70q13 3 19 -19q6 -19 2 -46q-6 -47 -26 -63.5t-38 3t-18 61.5q0 51 21.5 95t47.5 53q34 13 70 -25.5t53 -97.5q15 -51 18 -117q30 -1 65 5q2 128 16 173q26 81 91 11q27 -30 29.5 -80.5t-31.5 -84.5q-22 -17 -61 -33
q-1 -65 -0.5 -199t0.5 -165q0 -1 1 -4q33 15 70.5 12t67.5 -30t30 -66q-2 -32 -34.5 -40t-43.5 26q-4 16 6.5 27t24 6t18.5 -27q0 -10 -4 -11q-5 0 -5 8q-5 22 -18 17t-9 -20l2 -4q18 -21 37.5 -3t6.5 42q-11 18 -39 28q-27 8 -51 4t-41 -13t-34 -9t-31 17l4 26
q-1 122 -1 366q-35 -6 -65 -5q1 -157 -65 -291q-51 -102 -106 -117q-30 -8 -55 16q-32 31 -55 88.5t-31 109.5q-11 -123 -47 -176q-30 -44 -66 -28q-27 12 -29 45q-2 23 14 41q19 22 40 9t10 -39q-4 -10 -14 -20q-7 -10 -12 -6q-2 2 5 13q19 22 5 34q-12 11 -24 -4
q-2 -3 -4 -7q-9 -21 2 -35.5t29.5 -12.5t27.5 22q18 41 20 141.5t-5 228t-7 158.5q0 35 3 57.5t11 35t23 5.5t37 -36q-15 -17 -12 -192t0 -192q50 -204 118 -213q48 -6 86 85q35 88 45 225q9 129 -27 221q-28 72 -65 53q-28 -14 -43 -65q-14 -47 5 -75q13 -21 28 -1
q7 9 12 26q10 34 -2 47q-10 10 -19 -16q-3 -10 -5 -25zM561 623q48 20 62 42q14 24 7.5 58.5t-24.5 53.5q-46 44 -45 -154z" />
    <glyph glyph-name="V_b" unicode="Cb" horiz-adv-x="777" 
d="M141 574q20 -176 52 -259q33 -88 79 -63q49 28 78 158q12 53 18 114q6 74 -4 143.5t-33 107.5t-51 25q-28 -15 -44 -64q-14 -46 4 -75q13 -22 29 -2q7 9 12 25q11 34 -2 47q-10 10 -18 -15q-4 -10 -6 -25q-4 -18 -7 -19q-4 2 -1 22q7 65 30 69q13 2 20 -19q5 -19 1 -47
q-8 -45 -28 -61t-37 3t-17 62q1 49 23.5 93t48.5 53q35 12 69.5 -27t51.5 -98q15 -58 16 -111q35 -3 74 5q2 112 10 151q23 109 93 36q50 -58 28.5 -116.5t-87.5 -82.5v-146q52 64 110 30q49 -28 67 -98q23 -88 -29 -151q-8 -10 -18 -19q-27 -25 -75 -32.5t-74 9.5
q-21 14 -20 37.5t18.5 33.5t40.5 -1q19 -13 10 -33t-32 -10q-5 3 -11 7q-7 7 -5 9q0 1 10 -2q18 -12 25 0q6 12 -7 19q-2 1 -5 2q-17 5 -26 -5.5t-5 -25.5t20 -20q45 -15 89.5 19t51.5 91q9 77 -34 120q-35 36 -72 13q-45 -28 -55 -130q0 -1 -1 -4q0 -2 -1 -3q-5 -2 -7 -4
q-9 0 -5 11q-4 127 -4 270q-40 -8 -73 -4q1 -159 -64 -294q-49 -101 -104 -115q-29 -7 -53 17q-34 35 -53 133q-14 -6 -23 14.5t-14 60.5q-3 22 -10.5 126.5t-19 183.5t-30.5 109q-9 15 -24.5 14.5t-21.5 -12.5t2 -28q9 -16 20 -9q13 8 0 24l-5 5q-7 7 -5 10q5 3 10 -4
q26 -20 14 -41q-10 -17 -29 -9q-4 2 -8 6q-20 18 -13 42.5t28.5 29.5t42.5 -17q32 -41 48 -103.5t27 -155.5zM543 629q53 21 68 64.5t-25 90.5q-47 45 -43 -155z" />
    <glyph glyph-name="V_h" unicode="Ch" horiz-adv-x="760" 
d="M141 574q20 -176 52 -259q33 -88 79 -63q49 28 78 158q12 53 18 114q6 74 -4 143.5t-33 107.5t-51 25q-28 -15 -44 -64q-14 -46 4 -75q13 -22 29 -2q7 9 12 25q11 34 -2 47q-10 10 -18 -15q-4 -10 -6 -25q-4 -18 -7 -19q-4 2 -1 22q7 65 30 69q13 2 20 -19q5 -19 1 -47
q-8 -45 -28 -61t-37 3t-17 62q1 49 23.5 93t48.5 53q35 12 69.5 -27t51.5 -98q14 -53 16 -115q27 0 52 6q2 128 16 173q26 81 91 11q27 -30 29.5 -80.5t-31.5 -84.5q-22 -17 -61 -33q-1 -12 -1 -141q29 34 60.5 40t54.5 -8.5t39 -40.5q14 -23 15.5 -63.5t-3.5 -78.5
t-2.5 -84.5t18.5 -79.5q7 -15 22 -16.5t24.5 9.5t2.5 26t-20 10q-15 -5 -3 -23q1 -2 3 -4q7 -7 4 -9q-4 -2 -10 4q-23 23 -7 40q14 15 33 2q3 -2 5 -5q21 -24 0 -48q-20 -23 -47 -12q-12 5 -21 18q-20 33 -27.5 69t-9 95.5t-2.5 74.5q-4 57 -43 78q-40 22 -75 -18
q-32 -36 -41 -112q0 -1 -1 -4q0 -2 -1 -3q-4 -1 -6.5 1.5t-3.5 9.5t-1.5 13.5t-0.5 15.5v13q0 130 2 219q-27 -6 -52 -6q-1 -159 -66 -291q-49 -100 -103 -112q-29 -7 -52 17q-34 35 -53 133q-14 -6 -23 14.5t-14 60.5q-3 22 -10.5 126.5t-19 183.5t-30.5 109
q-9 15 -24.5 14.5t-21.5 -12.5t2 -28q9 -16 20 -9q13 8 0 24l-5 5q-7 7 -5 10q5 3 10 -4q26 -20 14 -41q-10 -17 -29 -9q-4 2 -8 6q-20 18 -13 42.5t28.5 29.5t42.5 -17q32 -41 48 -103.5t27 -155.5zM521 623q48 20 62 42q14 24 7.5 58.5t-24.5 53.5q-46 44 -45 -154z" />
    <glyph glyph-name="V_k" unicode="Ck" horiz-adv-x="797" 
d="M141 574q20 -176 52 -259q33 -88 79 -63q49 28 78 158q12 53 18 114q6 74 -4 143.5t-33 107.5t-51 25q-28 -15 -44 -64q-14 -46 4 -75q13 -22 29 -2q7 9 12 25q11 34 -2 47q-10 10 -18 -15q-4 -10 -6 -25q-4 -18 -7 -19q-4 2 -1 22q7 65 30 69q13 2 20 -19q5 -19 1 -47
q-8 -45 -28 -61t-37 3t-17 62q1 49 23.5 93t48.5 53q35 12 69.5 -27t51.5 -98q11 -44 15 -88q37 -7 85 1q-2 116 24 177q30 68 86 5q28 -30 29.5 -81.5t-33.5 -83.5q-28 -20 -62 -32l-3 -220q62 90 139 99q53 6 74 -30q23 -37 -16 -88q-17 -18 -42 -13t-31 33q-5 25 16 35
q20 9 32 -13q5 -8 6 -19q3 -11 -2 -12q-3 -1 -4.5 2.5t-1.5 7.5q-5 22 -18 21q-13 -2 -13 -16q0 -6 3 -12q12 -20 30 -14.5t23 24.5q6 24 -19 39.5t-48 9.5q-37 -11 -74 -45.5t-50 -72.5q18 4 24 3q51 -4 81 -27.5t42 -59t19 -72t22 -74t41 -58.5q8 -6 17 -3t10 10.5
t-6 14.5q-11 8 -15 -1q-3 -7 9 -12q6 -3 5 -5h-6q-20 7 -16 20.5t21 7.5q15 -7 15 -21t-11 -20t-27 2q-28 17 -48 48.5t-32 63t-26 61.5t-38.5 50.5t-59.5 23.5q-18 0 -26 -3q-1 -12 -1 -36v-22q-5 -63 -49 -10q4 14 5 22v20q-1 -1 -7 -8t-9 -11q-23 28 17 66q4 302 4 303
q-46 -8 -84 -2q6 -160 -57 -302q-49 -107 -105 -126q-32 -10 -58 16q-34 35 -53 133q-14 -6 -23 14.5t-14 60.5q-3 22 -10.5 126.5t-19 183.5t-30.5 109q-9 15 -24.5 14.5t-21.5 -12.5t2 -28q9 -16 20 -9q13 8 0 24l-5 5q-7 7 -5 10q5 3 10 -4q26 -20 14 -41q-10 -17 -29 -9
q-4 2 -8 6q-20 18 -13 42.5t28.5 29.5t42.5 -17q32 -41 48 -103.5t27 -155.5zM553 645q46 16 64 40q14 22 8.5 57.5t-23.5 55.5q-45 50 -49 -142v-11z" />
    <glyph glyph-name="V_l" unicode="Cl" horiz-adv-x="687" 
d="M141 574q20 -176 52 -259q33 -88 79 -63q49 28 78 158q12 53 18 114q6 74 -4 143.5t-33 107.5t-51 25q-28 -15 -44 -64q-14 -46 4 -75q13 -22 29 -2q7 9 12 25q11 34 -2 47q-10 10 -18 -15q-4 -10 -6 -25q-4 -18 -7 -19q-4 2 -1 22q7 65 30 69q13 2 20 -19q5 -19 1 -47
q-8 -45 -28 -61t-37 3t-17 62q1 49 23.5 93t48.5 53q35 12 69.5 -27t51.5 -98q15 -60 16 -114q35 -2 64 5q2 128 16 173q26 81 91 11q27 -30 29.5 -80.5t-31.5 -84.5q-22 -17 -61 -33q-1 -65 -0.5 -199t0.5 -165q0 -1 1 -4q33 15 70.5 12t67.5 -30t30 -66q-2 -32 -34.5 -40
t-43.5 26q-4 16 6.5 27t24 6t18.5 -27q0 -10 -4 -11q-5 0 -5 8q-5 22 -18 17t-9 -20l2 -4q18 -21 37.5 -3t6.5 42q-11 18 -39 28q-27 8 -51 4t-41 -13t-34 -9t-31 17l4 26q-1 122 -1 366q-31 -6 -64 -6q-1 -159 -66 -291q-49 -100 -103 -112q-29 -7 -52 17q-34 35 -53 133
q-14 -6 -23 14.5t-14 60.5q-3 22 -10.5 126.5t-19 183.5t-30.5 109q-9 15 -24.5 14.5t-21.5 -12.5t2 -28q9 -16 20 -9q13 8 0 24l-5 5q-7 7 -5 10q5 3 10 -4q26 -20 14 -41q-10 -17 -29 -9q-4 2 -8 6q-20 18 -13 42.5t28.5 29.5t42.5 -17q32 -41 48 -103.5t27 -155.5z
M533 623q48 20 62 42q14 24 7.5 58.5t-24.5 53.5q-46 44 -45 -154z" />
    <glyph glyph-name="W_b" unicode="Wb" horiz-adv-x="1099" 
d="M214 207q0 32 -10 63q-19 59 -62 156.5l-75.5 171t-54.5 162.5t-13 155q10 48 45.5 58t61 -16.5t12.5 -68.5q-9 -28 -36 -27q-26 0 -33 26q-5 18 4 41q1 5 4 9t6 3q7 -3 1 -17q-10 -33 9 -40q17 -7 25 11q3 6 3 14q1 28 -18.5 39t-39.5 0t-21 -38q-2 -55 44 -168
t116.5 -254.5t85.5 -175.5q32 -75 29 -105q59 25 96 69.5t46.5 91t0.5 92t-36 76.5l63 27q61 -69 19 -179q39 -135 89 -134q42 0 70 93q23 79 25 191q1 74 -15 143t-42 105.5t-52 21.5q-28 -19 -39 -68q-10 -49 10 -76q17 -20 31 4q5 9 8 24q7 33 -5 46q-10 11 -17 -13
q-4 -11 -5 -28q0 -1 -0.5 -4.5t-0.5 -6t-0.5 -5t-1.5 -4t-2 -0.5q-3 2 -3 22q2 63 24 71q16 5 23 -23q5 -17 3 -41q-3 -49 -21.5 -66t-36.5 2.5t-22 61.5q-4 49 14.5 94.5t44.5 56.5q34 15 71.5 -21t58.5 -94q20 -61 26 -120q44 -9 100 1q2 112 10 151q23 109 93 36
q50 -58 28.5 -116.5t-87.5 -82.5v-146q52 64 110 30q49 -28 67 -98q23 -88 -29 -151q-8 -10 -18 -19q-27 -25 -75 -32.5t-74 9.5q-21 14 -20 37.5t18.5 33.5t40.5 -1q19 -13 10 -33t-32 -10q-5 3 -11 7q-7 7 -5 9q0 1 10 -2q18 -12 25 0q6 12 -7 19q-2 1 -5 2
q-17 5 -26 -5.5t-5 -25.5t20 -20q45 -15 89.5 19t51.5 91q9 77 -34 120q-35 36 -72 13q-45 -28 -55 -130q0 -1 -1 -4q0 -2 -1 -3q-4 -2 -7 -4q-9 0 -5 11q-4 127 -4 270q-48 -10 -98 0q11 -159 -43 -294q-42 -104 -95 -117q-27 -7 -51 14q-42 36 -69 146q-62 -107 -177 -152
l-9 -3q-21 -3 -65 22zM865 629q53 21 68 64.5t-25 90.5q-47 45 -43 -155z" />
    <glyph glyph-name="W_h" unicode="Wh" horiz-adv-x="1082" 
d="M-445 585q3 23 -14 57q-17 25 -34 14t-3 -38q1 -3 3 -6q14 -19 22 -10q9 11 -10 33q-4 1 -7 5t-2 6q0 2 1 2q5 0 9 -7q27 -24 21 -48q-5 -18 -23 -8q-5 3 -9 7q-27 30 -17 63q8 26 30 19q4 -1 8 -4q19 -12 32 -44.5t11 -60.5q-7 -72 -63 -77q-55 -4 -113 51
q-71 67 -70 158q0 24 6 48q19 73 75 115.5t126 51t141 -3t126 -41.5q93 -51 153 -140q100 110 233 -202q49 -117 110 -319q59 25 96 69.5t46.5 91t0.5 92t-36 76.5l63 27q61 -69 19 -179q39 -135 89 -134q42 0 70 93q23 79 25 191q1 74 -15 143t-42 105.5t-52 21.5
q-28 -19 -39 -68q-10 -49 10 -76q17 -20 31 4q5 9 8 24q7 33 -5 46q-10 11 -17 -13q-4 -11 -5 -28q0 -1 -0.5 -4.5t-0.5 -6t-0.5 -5t-1.5 -4t-2 -0.5q-3 2 -3 22q2 63 24 71q16 5 23 -23q5 -17 3 -41q-3 -49 -21.5 -66t-36.5 2.5t-22 61.5q-4 49 14.5 94.5t44.5 56.5
q34 15 71.5 -21t58.5 -94q19 -55 27 -126q34 -4 77 4q2 128 16 173q26 81 91 11q27 -30 29.5 -80.5t-31.5 -84.5q-22 -17 -61 -33q-1 -12 -1 -141q29 34 60.5 40t54.5 -8.5t39 -40.5q14 -23 15.5 -63.5t-3.5 -78.5t-2.5 -84.5t18.5 -79.5q7 -15 22 -16.5t24.5 9.5t2.5 26
t-20 10q-15 -5 -3 -23q1 -2 3 -4q7 -7 4 -9q-4 -2 -10 4q-23 23 -7 40q14 15 33 2q3 -2 5 -5q21 -24 0 -48q-20 -23 -47 -12q-12 5 -21 18q-20 33 -27.5 69t-9 95.5t-2.5 74.5q-4 57 -43 78q-40 22 -75 -18q-32 -36 -41 -112q0 -1 -1 -4q0 -2 -1 -3q-4 -1 -6.5 1.5t-3.5 9.5
t-1.5 13.5t-0.5 15.5v13q0 130 2 219q-41 -8 -76 -5q9 -159 -47 -292q-43 -100 -95 -111q-25 -5 -48 15q-42 36 -69 146q-62 -107 -177 -152l-9 -3q-21 -3 -65 22q-10 66 -51.5 188t-97 220t-89.5 76l12 -20.5t11.5 -20.5t9.5 -18t9.5 -19.5l7 -17.5t6.5 -21l4 -21
q8 -53 -18.5 -58.5t-51.5 46.5q-19 39 -25 87.5t3 76.5q-71 101 -179 151.5t-219 21.5q-124 -32 -151 -128q-20 -71 19 -135q35 -57 84 -56q30 1 57 26zM843 623q48 20 62 42q14 24 7.5 58.5t-24.5 53.5q-46 44 -45 -154zM-35 671q-12 -35 -1 -84q11 -53 34 -66q15 -8 16 16
q1 13 -3 34q-8 41 -46 100z" />
    <glyph glyph-name="W_k" unicode="Wk" horiz-adv-x="1119" 
d="M214 207q0 32 -10 63q-19 59 -62 156.5l-75.5 171t-54.5 162.5t-13 155q10 48 45.5 58t61 -16.5t12.5 -68.5q-9 -28 -36 -27q-26 0 -33 26q-5 18 4 41q1 5 4 9t6 3q7 -3 1 -17q-10 -33 9 -40q17 -7 25 11q3 6 3 14q1 28 -18.5 39t-39.5 0t-21 -38q-2 -55 44 -168
t116.5 -254.5t85.5 -175.5q32 -75 29 -105q59 25 96 69.5t46.5 91t0.5 92t-36 76.5l63 27q61 -69 19 -179q39 -135 89 -134q42 0 70 93q23 79 25 191q1 74 -15 143t-42 105.5t-52 21.5q-28 -19 -39 -68q-10 -49 10 -76q17 -20 31 4q5 9 8 24q7 33 -5 46q-10 11 -17 -13
q-4 -11 -5 -28q0 -1 -0.5 -4.5t-0.5 -6t-0.5 -5t-1.5 -4t-2 -0.5q-3 2 -3 22q2 63 24 71q16 5 23 -23q5 -17 3 -41q-3 -49 -21.5 -66t-36.5 2.5t-22 61.5q-4 49 14.5 94.5t44.5 56.5q34 15 71.5 -21t58.5 -94q16 -48 23 -93q47 -19 113 -7q-2 116 24 177q30 68 86 5
q28 -30 29.5 -81.5t-33.5 -83.5q-28 -20 -62 -32l-3 -220q62 90 139 99q53 6 74 -30q23 -37 -16 -88q-17 -18 -42 -13t-31 33q-5 25 16 35q20 9 32 -13q5 -8 6 -19q3 -11 -2 -12q-3 -1 -4.5 2.5t-1.5 7.5q-5 22 -18 21q-13 -2 -13 -16q0 -6 3 -12q12 -20 30 -14.5t23 24.5
q6 24 -19 39.5t-48 9.5q-37 -11 -74 -45.5t-50 -72.5q18 4 24 3q51 -4 81 -27.5t42 -59t19 -72t22 -74t41 -58.5q8 -6 17 -3t10 10.5t-6 14.5q-11 8 -15 -1q-3 -7 9 -12q6 -3 5 -5h-6q-20 7 -16 20.5t21 7.5q15 -7 15 -21t-11 -20t-27 2q-28 17 -48 48.5t-32 63t-26 61.5
t-38.5 50.5t-59.5 23.5q-18 0 -26 -3q-1 -12 -1 -36v-22q-5 -63 -49 -10q4 14 5 22v20q-1 -1 -7 -8t-9 -11q-23 28 17 66q4 302 4 303q-61 -11 -110 4q17 -160 -37 -304q-41 -108 -94 -128q-30 -10 -56 13q-42 36 -69 146q-62 -107 -177 -152l-9 -3q-21 -3 -65 22zM875 645
q46 16 64 40q14 22 8.5 57.5t-23.5 55.5q-45 50 -49 -142v-11z" />
    <glyph glyph-name="W_l" unicode="Wl" horiz-adv-x="1009" 
d="M214 207q0 32 -10 63q-19 59 -62 156.5l-75.5 171t-54.5 162.5t-13 155q10 48 45.5 58t61 -16.5t12.5 -68.5q-9 -28 -36 -27q-26 0 -33 26q-5 18 4 41q1 5 4 9t6 3q7 -3 1 -17q-10 -33 9 -40q17 -7 25 11q3 6 3 14q1 28 -18.5 39t-39.5 0t-21 -38q-2 -55 44 -168
t116.5 -254.5t85.5 -175.5q32 -75 29 -105q59 25 96 69.5t46.5 91t0.5 92t-36 76.5l63 27q61 -69 19 -179q39 -135 89 -134q42 0 70 93q23 79 25 191q1 74 -15 143t-42 105.5t-52 21.5q-28 -19 -39 -68q-10 -49 10 -76q17 -20 31 4q5 9 8 24q7 33 -5 46q-10 11 -17 -13
q-4 -11 -5 -28q0 -1 -0.5 -4.5t-0.5 -6t-0.5 -5t-1.5 -4t-2 -0.5q-3 2 -3 22q2 63 24 71q16 5 23 -23q5 -17 3 -41q-3 -49 -21.5 -66t-36.5 2.5t-22 61.5q-4 49 14.5 94.5t44.5 56.5q34 15 71.5 -21t58.5 -94q19 -53 27 -125q42 -8 89 3q2 128 16 173q26 81 91 11
q27 -30 29.5 -80.5t-31.5 -84.5q-22 -17 -61 -33q-1 -65 -0.5 -199t0.5 -165q0 -1 1 -4q33 15 70.5 12t67.5 -30t30 -66q-2 -32 -34.5 -40t-43.5 26q-4 16 6.5 27t24 6t18.5 -27q0 -10 -4 -11q-5 0 -5 8q-5 22 -18 17t-9 -20l2 -4q18 -21 37.5 -3t6.5 42q-11 18 -39 28
q-27 8 -51 4t-41 -13t-34 -9t-31 17l4 26q-1 122 -1 366q-46 -9 -88 -3q9 -159 -46 -292q-42 -100 -94 -113q-26 -6 -50 15q-42 36 -69 146q-62 -107 -177 -152l-9 -3q-21 -3 -65 22zM855 623q48 20 62 42q14 24 7.5 58.5t-24.5 53.5q-46 44 -45 -154z" />
    <glyph glyph-name="X_b" unicode="Xb" horiz-adv-x="860" 
d="M120 683q0 -21 -6 -21q-1 1 -1 22q5 63 27 69q15 4 22 -21q4 -18 1 -42q-6 -48 -25.5 -64.5t-37 3.5t-17.5 62q-1 49 19.5 92.5t46.5 53.5q34 14 69.5 -24t52.5 -96q0 -1 1 -3v-1q27 80 67 114.5t78 3.5q31 -24 55 -87t36 -133q35 -3 74 5q2 112 10 151q23 109 93 36
q50 -58 28.5 -116.5t-87.5 -82.5v-146q52 64 110 30q49 -28 67 -98q23 -88 -29 -151q-8 -10 -18 -19q-27 -25 -75 -32.5t-74 9.5q-21 14 -20 37.5t18.5 33.5t40.5 -1q19 -13 10 -33t-32 -10q-5 3 -11 7q-7 7 -5 9q0 1 10 -2q18 -12 25 0q6 12 -7 19q-2 1 -5 2
q-17 5 -26 -5.5t-5 -25.5t20 -20q45 -15 89.5 19t51.5 91q9 77 -34 120q-35 36 -72 13q-45 -28 -55 -130q0 -1 -1 -4q0 -2 -1 -3q-4 -2 -7 -4q-9 0 -5 11q-4 127 -4 270q-12 -3 -25 -4t-33 -1.5t-35 -1.5q-46 179 -103 191q-38 8 -64 -63q-30 -83 -27 -221q3 -129 47 -215
q35 -69 70 -47q26 16 36 67q9 49 -13 75q-16 20 -28 -3q-5 -10 -8 -25q-7 -34 7 -46q10 -9 16 16q3 10 3 26q0 21 5 20q3 -1 3 -22q0 -63 -21 -71q-16 -5 -25 24q-5 16 -4 38q2 49 20 67t37 -0.5t24 -60.5q5 -49 -12 -94t-42 -58q-32 -16 -71 19t-61 91q-13 30 -18 55
q-34 -101 -83.5 -148.5t-90.5 -7.5q-50 47 -69 200q-13 109 2 138q3 6 7 4q0 -8 -1 -15q10 -88 26 -149.5t34 -89.5t37.5 -35t38 12.5t34.5 54.5t27 89.5t15 118.5q5 73 -7 142t-36 106.5t-51 23.5q-28 -16 -41 -64t6 -76q15 -21 30 3q5 8 9 22q9 32 -3 46q-10 11 -18 -13
q-4 -10 -6 -26zM626 629q53 21 68 64.5t-25 90.5q-47 45 -43 -155z" />
    <glyph glyph-name="X_h" unicode="Xh" horiz-adv-x="843" 
d="M120 683q0 -21 -6 -21q-1 1 -1 22q5 63 27 69q15 4 22 -21q4 -18 1 -42q-6 -48 -25.5 -64.5t-37 3.5t-17.5 62q-1 49 19.5 92.5t46.5 53.5q34 14 69.5 -24t52.5 -96q0 -1 1 -3v-1q27 80 67 114.5t78 3.5q60 -48 92 -223q24 -1 51 5q2 128 16 173q26 81 91 11
q27 -30 29.5 -80.5t-31.5 -84.5q-22 -17 -61 -33q-1 -12 -1 -141q29 34 60.5 40t54.5 -8.5t39 -40.5q14 -23 15.5 -63.5t-3.5 -78.5t-2.5 -84.5t18.5 -79.5q7 -15 22 -16.5t24.5 9.5t2.5 26t-20 10q-15 -5 -3 -23q1 -2 3 -4q6 -7 4 -9q-4 -2 -10 4q-23 23 -7 40q14 15 33 2
q3 -2 5 -5q21 -24 0 -48q-20 -23 -47 -12q-12 5 -21 18q-20 33 -27.5 69t-9 95.5t-2.5 74.5q-4 57 -43 78q-40 22 -75 -18q-32 -36 -41 -112q0 -1 -1 -4q0 -2 -1 -3q-4 -1 -6.5 1.5t-3.5 9.5t-1.5 13.5t-0.5 15.5v13q0 130 2 219q-8 -2 -33.5 -2t-38.5 -4q-46 182 -103 194
q-38 8 -64 -64q-30 -82 -27 -220q3 -129 47 -215q35 -69 70 -47q26 16 36 67q9 49 -13 75q-16 20 -28 -3q-5 -10 -8 -25q-7 -34 7 -46q10 -9 16 16q3 10 3 26q0 21 5 20q3 -1 3 -22q0 -63 -21 -71q-16 -5 -25 24q-5 16 -4 38q2 49 20 67t37 -0.5t24 -60.5q5 -49 -12 -94
t-42 -58q-32 -16 -71 19t-61 91q-13 30 -18 55q-34 -101 -83.5 -148.5t-90.5 -7.5q-50 47 -69 200q-13 109 2 138q3 6 7 4q0 -8 -1 -15q10 -88 26 -149.5t34 -89.5t37.5 -35t38 12.5t34.5 54.5t27 89.5t15 118.5q5 73 -7 142t-36 106.5t-51 23.5q-28 -16 -41 -64t6 -76
q15 -21 30 3q5 8 9 22q9 32 -3 46q-10 11 -18 -13q-4 -10 -6 -26zM604 623q48 20 62 42q14 24 7.5 58.5t-24.5 53.5q-46 44 -45 -154z" />
    <glyph glyph-name="X_k" unicode="Xk" horiz-adv-x="880" 
d="M120 683q0 -21 -6 -21q-1 1 -1 22q5 63 27 69q15 4 22 -21q4 -18 1 -42q-6 -48 -25.5 -64.5t-37 3.5t-17.5 62q-1 49 19.5 92.5t46.5 53.5q34 14 69.5 -24t52.5 -96q0 -1 1 -3v-1q27 80 67 114.5t78 3.5q54 -43 87 -196q42 -8 88 0q-2 116 24 177q30 68 86 5
q28 -30 29.5 -81.5t-33.5 -83.5q-28 -20 -62 -32l-3 -220q62 90 139 99q53 6 74 -30q23 -37 -16 -88q-17 -18 -42 -13t-31 33q-5 25 16 35q20 9 32 -13q5 -8 6 -19q3 -11 -2 -12q-3 -1 -4.5 2.5t-1.5 7.5q-5 22 -18 21q-13 -2 -13 -16q0 -6 3 -12q12 -20 30 -14.5t23 24.5
q6 24 -19 39.5t-48 9.5q-37 -11 -74 -45.5t-50 -72.5q18 4 24 3q51 -4 81 -27.5t42 -59t19 -72t22 -74t41 -58.5q8 -6 17 -3t10 10.5t-6 14.5q-11 8 -15 -1q-3 -7 9 -12q6 -3 5 -5h-6q-20 7 -16 20.5t21 7.5q15 -7 15 -21t-11 -20t-27 2q-28 17 -48 48.5t-32 63t-26 61.5
t-38.5 50.5t-59.5 23.5q-18 0 -26 -3q-1 -12 -1 -36v-22q-5 -63 -49 -10q4 14 5 22v20q-1 -1 -7 -8t-9 -11q-23 28 17 66q4 302 4 303q-44 -8 -110 1q-46 161 -100 166q-38 3 -63 -73q-27 -82 -24 -212q3 -129 47 -215q35 -69 70 -47q26 16 36 67q9 49 -13 75q-16 20 -28 -3
q-5 -10 -8 -25q-7 -34 7 -46q10 -9 16 16q3 10 3 26q0 21 5 20q3 -1 3 -22q0 -63 -21 -71q-16 -5 -25 24q-5 16 -4 38q2 49 20 67t37 -0.5t24 -60.5q5 -49 -12 -94t-42 -58q-32 -16 -71 19t-61 91q-13 30 -18 55q-34 -101 -83.5 -148.5t-90.5 -7.5q-50 47 -69 200
q-13 109 2 138q3 6 7 4q0 -8 -1 -15q10 -88 26 -149.5t34 -89.5t37.5 -35t38 12.5t34.5 54.5t27 89.5t15 118.5q5 73 -7 142t-36 106.5t-51 23.5q-28 -16 -41 -64t6 -76q15 -21 30 3q5 8 9 22q9 32 -3 46q-10 11 -18 -13q-4 -10 -6 -26zM636 645q46 16 64 40q14 22 8.5 57.5
t-23.5 55.5q-45 50 -49 -142v-11z" />
    <glyph glyph-name="X_l" unicode="Xl" horiz-adv-x="770" 
d="M573 587q-16 -4 -85 -6q-46 178 -103 190q-38 8 -64 -63q-29 -81 -26 -217q3 -129 47 -215q35 -69 70 -47q26 16 36 67q9 49 -13 75q-16 20 -28 -3q-5 -10 -8 -25q-7 -34 7 -46q10 -9 16 16q3 10 3 26q0 21 5 20q3 -1 3 -22q0 -63 -21 -71q-16 -5 -25 24q-5 16 -4 38
q2 49 20 67t37 -0.5t24 -60.5q5 -49 -12 -94t-42 -58q-32 -16 -71 19t-61 91q-13 30 -18 55q-34 -101 -83.5 -148.5t-90.5 -7.5q-50 47 -69 200q-13 109 2 138q3 6 7 4q0 -8 -1 -15q10 -88 26 -149.5t34 -89.5t37.5 -35t38 12.5t34.5 54.5t27 89.5t15 118.5q5 73 -7 142
t-36 106.5t-51 23.5q-28 -16 -41 -64t6 -76q15 -21 30 3q5 8 9 22q9 32 -3 46q-10 11 -18 -13q-4 -10 -6 -26q0 -21 -6 -21q-1 1 -1 22q5 63 27 69q15 4 22 -21q4 -18 1 -42q-6 -48 -25.5 -64.5t-37 3.5t-17.5 62q-1 49 19.5 92.5t46.5 53.5q34 14 69.5 -24t52.5 -96
q0 -1 1 -3v-1q27 80 67 114.5t78 3.5q60 -48 92 -224q31 0 63 6q2 128 16 173q26 81 91 11q27 -30 29.5 -80.5t-31.5 -84.5q-22 -17 -61 -33q-1 -65 -0.5 -199t0.5 -165v-2q1 -1 1 -2q33 15 70.5 12t67.5 -30t30 -66q-2 -32 -34.5 -40t-43.5 26q-4 16 6.5 27t24 6t18.5 -27
q0 -10 -4 -11q-5 0 -5 8q-5 22 -18 17t-9 -20l2 -4q18 -21 37.5 -3t6.5 42q-11 18 -39 28q-27 8 -51 4t-41 -13t-34 -9t-31 17l4 26q-1 122 -1 366zM616 623q48 20 62 42q14 24 7.5 58.5t-24.5 53.5q-46 44 -45 -154z" />
    <glyph glyph-name="Y_b" unicode="Yb" horiz-adv-x="814" 
d="M393 734q-7 1 -12 3t-3 6q1 4 18 4q45 -6 49 -36q4 -26 -21 -39q-15 -8 -34 -4q-37 8 -46.5 38t9.5 58t53 30q41 3 71.5 -28t33.5 -72q3 -38 -19 -83q19 0 44 5q2 112 10 151q23 109 93 36q50 -58 28.5 -116.5t-87.5 -82.5v-146q52 64 110 30q49 -28 67 -98
q23 -88 -29 -151q-8 -10 -18 -19q-27 -25 -75 -32.5t-74 9.5q-21 14 -20 37.5t18.5 33.5t40.5 -1q19 -13 10 -33t-32 -10q-5 3 -11 7q-7 7 -5 9q0 1 10 -2q18 -12 25 0q6 12 -7 19q-2 1 -5 2q-17 5 -26 -5.5t-5 -25.5t20 -20q45 -15 89.5 19t51.5 91q9 77 -34 120
q-35 36 -72 13q-45 -28 -55 -130q0 -1 -1 -4q0 -2 -1 -3q-4 -2 -7 -4q-9 0 -5 11q-4 127 -4 270q-24 -5 -57 -5q-36 -57 -88 -86q-46 -28 -107 -37q0 -1 -1.5 -6t-1.5 -8q-7 -36 -7 -98.5v-109.5t-15.5 -100t-49.5 -88q-31 -32 -78 -20q-33 8 -36 30q-2 15 16 28q26 19 52 6
q22 -11 5 -30q-5 -5 -14 -11q-7 -7 -14 -5q-1 2 -1.5 2.5t3.5 3.5l3 3q22 16 9 25q-14 9 -31 -4q-3 -2 -5 -5q-16 -20 11 -30q29 -10 52 6q5 4 8 8q24 30 27 101.5t-4.5 164.5t-7.5 112q0 11 2 27q-121 21 -188.5 120.5t-13.5 189.5q41 69 165 73q89 3 138 -24
q23 -13 19 -26q-10 0 -12 1q-178 39 -244 -29q-46 -47 -18 -118q28 -69 104 -105q40 -18 85 -22q57 -5 114.5 21.5t91.5 70.5t28 86q-7 42 -44 63q-24 13 -47.5 -0.5t-24.5 -35t23 -37.5q24 -12 37 6q13 16 -8 28q-7 5 -18 7zM580 629q53 21 68 64.5t-25 90.5
q-47 45 -43 -155z" />
    <glyph glyph-name="Y_k" unicode="Yk" horiz-adv-x="834" 
d="M393 734q-7 1 -12 3t-3 6q1 4 18 4q45 -6 49 -36q4 -26 -21 -39q-15 -8 -34 -4q-37 8 -46.5 38t9.5 58t53 30q41 3 71.5 -28t33.5 -72q1 -30 -10 -64q20 0 45 5q-2 116 24 177q30 68 86 5q28 -30 29.5 -81.5t-33.5 -83.5q-28 -20 -62 -32l-3 -220q62 90 139 99
q53 6 74 -30q23 -37 -16 -88q-17 -18 -42 -13t-31 33q-5 25 16 35q20 9 32 -13q5 -8 6 -19q3 -11 -2 -12q-3 -1 -4.5 2.5t-1.5 7.5q-5 22 -18 21q-13 -2 -13 -16q0 -6 3 -12q12 -20 30 -14.5t23 24.5q6 24 -19 39.5t-48 9.5q-37 -11 -74 -45.5t-50 -72.5q18 4 24 3
q51 -4 81 -27.5t42 -59t19 -72t22 -74t41 -58.5q8 -6 17 -3t10 10.5t-6 14.5q-11 8 -15 -1q-3 -7 9 -12q6 -3 5 -5h-6q-20 7 -16 20.5t21 7.5q15 -7 15 -21t-11 -20t-27 2q-28 17 -48 48.5t-32 63t-26 61.5t-38.5 50.5t-59.5 23.5q-18 0 -26 -3q-1 -12 -1 -36v-22
q-5 -63 -49 -10q4 14 5 22v20q-1 -1 -7 -8t-9 -11q-23 28 17 66q4 302 4 303q-32 -5 -57 -5q-36 -69 -98 -104q-46 -28 -107 -37q0 -1 -1.5 -6t-1.5 -8q-7 -36 -7 -98.5v-109.5t-15.5 -100t-49.5 -88q-31 -32 -78 -20q-33 8 -36 30q-2 15 16 28q26 19 52 6q22 -11 5 -30
q-5 -5 -14 -11q-7 -7 -14 -5q-1 2 -1.5 2.5t3.5 3.5l3 3q22 16 9 25q-14 9 -31 -4q-3 -2 -5 -5q-16 -20 11 -30q29 -10 52 6q5 4 8 8q24 30 27 101.5t-4.5 164.5t-7.5 112q0 11 2 27q-121 21 -188.5 120.5t-13.5 189.5q41 69 165 73q89 3 138 -24q23 -13 19 -26q-10 0 -12 1
q-178 39 -244 -29q-46 -47 -18 -118q28 -69 104 -105q40 -18 85 -22q57 -5 114.5 21.5t91.5 70.5t28 86q-7 42 -44 63q-24 13 -47.5 -0.5t-24.5 -35t23 -37.5q24 -12 37 6q13 16 -8 28q-7 5 -18 7zM590 645q46 16 64 40q14 22 8.5 57.5t-23.5 55.5q-45 50 -49 -142v-11z" />
    <glyph glyph-name="Y_l" unicode="Yl" horiz-adv-x="724" 
d="M393 734q-7 1 -12 3t-3 6q1 4 18 4q45 -6 49 -36q4 -26 -21 -39q-15 -8 -34 -4q-37 8 -46.5 38t9.5 58t53 30q41 3 71.5 -28t33.5 -72q3 -40 -20 -86q10 1 35 5q2 128 16 173q26 81 91 11q27 -30 29.5 -80.5t-31.5 -84.5q-22 -17 -61 -33q-1 -65 -0.5 -199t0.5 -165v-2
q1 -1 1 -2q33 15 70.5 12t67.5 -30t30 -66q-2 -32 -34.5 -40t-43.5 26q-4 16 6.5 27t24 6t18.5 -27q0 -10 -4 -11q-5 0 -5 8q-5 22 -18 17t-9 -20l2 -4q18 -21 37.5 -3t6.5 42q-11 18 -39 28q-27 8 -51 4t-41 -13t-34 -9t-31 17l4 26q-1 122 -1 366q-25 -6 -51 -6
q-37 -55 -85 -81q-46 -28 -107 -37q0 -1 -1.5 -6t-1.5 -8q-7 -36 -7 -98.5v-109.5t-15.5 -100t-49.5 -88q-31 -32 -78 -20q-33 8 -36 30q-2 15 16 28q26 19 52 6q22 -11 5 -30q-5 -5 -14 -11q-7 -7 -14 -5q-1 2 -1.5 2.5t3.5 3.5l3 3q22 16 9 25q-14 9 -31 -4q-3 -2 -5 -5
q-16 -20 11 -30q29 -10 52 6q5 4 8 8q24 30 27 101.5t-4.5 164.5t-7.5 112q0 11 2 27q-121 21 -188.5 120.5t-13.5 189.5q41 69 165 73q89 3 138 -24q23 -13 19 -26q-10 0 -12 1q-178 39 -244 -29q-46 -47 -18 -118q28 -69 104 -105q40 -18 85 -22q57 -5 114.5 21.5
t91.5 70.5t28 86q-7 42 -44 63q-24 13 -47.5 -0.5t-24.5 -35t23 -37.5q24 -12 37 6q13 16 -8 28q-7 5 -18 7zM570 623q48 20 62 42q14 24 7.5 58.5t-24.5 53.5q-46 44 -45 -154z" />
    <glyph glyph-name="Z_b" unicode="Zb" horiz-adv-x="893" 
d="M382 444q128 -8 163 8q11 4 12.5 14.5t-6.5 16.5t-20 1q-11 -5 -6 -14q5 -11 19 1q3 7 7 3q1 -2 0 -4t-3 -2q-19 -17 -31 -4q-11 11 4 24q14 11 29.5 3.5t16.5 -22t-15 -26.5q-51 -29 -190 -25q-88 -118 -149 -179q76 0 177 -30.5t168 -70.5l-28 -36q-204 100 -354 98
q-20 -22 -79 -64q-133 -95 -135 -19q-1 56 63 92.5t151 33.5q50 54 146 177q-16 -2 -31 -0.5t-35 0t-34 -7.5q-15 13 -19 21.5t3 12.5t19 5.5t31 1.5q38 -2 87 -6q48 57 107.5 139.5t65.5 106.5q5 17 -8 37t-38 37.5t-66.5 25.5t-88.5 1q-80 -12 -134.5 -47t-34.5 -67
q13 -23 49 -26q35 -3 51 18q14 18 -8 26q-6 2 -14 3q-24 3 -32 -10q-6 -10 14 -13q7 -2 17 -1q13 3 14 -1q-1 -6 -15 -6q-45 -5 -51 14q-4 16 20 25q10 4 22 5q34 2 48 -12.5t2 -33t-41 -25.5q-33 -9 -66 2t-44 32q-13 28 8.5 65.5t59.5 62.5q81 46 165.5 45t151 -36.5
t74.5 -82.5q4 -30 -56 -116q47 -10 100 1q2 112 10 151q23 109 93 36q50 -58 28.5 -116.5t-87.5 -82.5v-146q52 64 110 30q49 -28 67 -98q23 -88 -29 -151q-8 -10 -18 -19q-27 -25 -75 -32.5t-74 9.5q-21 14 -20 37.5t18.5 33.5t40.5 -1q19 -13 10 -33t-32 -10q-5 3 -11 7
q-7 7 -5 9q0 1 10 -2q18 -12 25 0q6 12 -7 19q-2 1 -5 2q-17 5 -26 -5.5t-5 -25.5t20 -20q45 -15 89.5 19t51.5 91q9 77 -34 120q-35 36 -72 13q-45 -28 -55 -130q0 -1 -1 -4q0 -2 -1 -3q-5 -2 -7 -4q-9 0 -5 11q-4 127 -4 270q-56 -13 -114 5q-10 -14 -119 -152zM659 629
q53 21 68 64.5t-25 90.5q-47 45 -43 -155zM148 205q-81 -4 -124 -40q-30 -22 -23 -37q3 -7 13 -7q43 0 134 84z" />
    <glyph glyph-name="Z_h" unicode="Zh" horiz-adv-x="876" 
d="M382 444q128 -8 163 8q11 4 12.5 14.5t-6.5 16.5t-20 1q-11 -5 -6 -14q5 -11 19 1q3 7 7 3q1 -2 0 -4t-3 -2q-19 -17 -31 -4q-11 11 4 24q14 11 29.5 3.5t16.5 -22t-15 -26.5q-51 -29 -190 -25q-88 -118 -149 -179q76 0 177 -30.5t168 -70.5l-28 -36q-204 100 -354 98
q-20 -22 -79 -64q-133 -95 -135 -19q-1 56 63 92.5t151 33.5q50 54 146 177q-16 -2 -31 -0.5t-35 0t-34 -7.5q-15 13 -19 21.5t3 12.5t19 5.5t31 1.5q38 -2 87 -6q48 57 107.5 139.5t65.5 106.5q5 17 -8 37t-38 37.5t-66.5 25.5t-88.5 1q-80 -12 -134.5 -47t-34.5 -67
q13 -23 49 -26q35 -3 51 18q14 18 -8 26q-6 2 -14 3q-24 3 -32 -10q-6 -10 14 -13q7 -2 17 -1q13 3 14 -1q-1 -6 -15 -6q-45 -5 -51 14q-4 16 20 25q10 4 22 5q34 2 48 -12.5t2 -33t-41 -25.5q-33 -9 -66 2t-44 32q-13 28 8.5 65.5t59.5 62.5q81 46 165.5 45t151 -36.5
t74.5 -82.5q4 -31 -60 -121q39 -6 82 3q2 128 16 173q26 81 91 11q27 -30 29.5 -80.5t-31.5 -84.5q-22 -17 -61 -33q-1 -12 -1 -141q29 34 60.5 40t54.5 -8.5t39 -40.5q14 -23 15.5 -63.5t-3.5 -78.5t-2.5 -84.5t18.5 -79.5q7 -15 22 -16.5t24.5 9.5t2.5 26t-20 10
q-15 -5 -3 -23q1 -2 3 -4q7 -7 4 -9q-4 -2 -10 4q-23 23 -7 40q14 15 33 2q3 -2 5 -5q21 -24 0 -48q-20 -23 -47 -12q-12 5 -21 18q-20 33 -27.5 69t-9 95.5t-2.5 74.5q-4 57 -43 78q-40 22 -75 -18q-32 -36 -41 -112q0 -1 -1 -4q0 -2 -1 -3q-4 -1 -6.5 1.5t-3.5 9.5
t-1.5 13.5t-0.5 15.5v13q0 130 2 219q-53 -11 -100 -1q-10 -14 -112 -142zM637 623q48 20 62 42q14 24 7.5 58.5t-24.5 53.5q-46 44 -45 -154zM148 205q-81 -4 -124 -40q-30 -22 -23 -37q3 -7 13 -7q43 0 134 84z" />
    <glyph glyph-name="Z_k" unicode="Zk" horiz-adv-x="913" 
d="M382 444q128 -8 163 8q11 4 12.5 14.5t-6.5 16.5t-20 1q-11 -5 -6 -14q5 -11 19 1q3 7 7 3q1 -2 0 -4t-3 -2q-19 -17 -31 -4q-11 11 4 24q14 11 29.5 3.5t16.5 -22t-15 -26.5q-51 -29 -190 -25q-88 -118 -149 -179q76 0 177 -30.5t168 -70.5l-28 -36q-204 100 -354 98
q-20 -22 -79 -64q-133 -95 -135 -19q-1 56 63 92.5t151 33.5q50 54 146 177q-16 -2 -31 -0.5t-35 0t-34 -7.5q-15 13 -19 21.5t3 12.5t19 5.5t31 1.5q38 -2 87 -6q48 57 107.5 139.5t65.5 106.5q5 17 -8 37t-38 37.5t-66.5 25.5t-88.5 1q-80 -12 -134.5 -47t-34.5 -67
q13 -23 49 -26q35 -3 51 18q14 18 -8 26q-6 2 -14 3q-24 3 -32 -10q-6 -10 14 -13q7 -2 17 -1q13 3 14 -1q-1 -6 -15 -6q-45 -5 -51 14q-4 16 20 25q10 4 22 5q34 2 48 -12.5t2 -33t-41 -25.5q-33 -9 -66 2t-44 32q-13 28 8.5 65.5t59.5 62.5q81 46 165.5 45t151 -36.5
t74.5 -82.5q4 -26 -42 -94q41 -10 96 -2q-2 116 24 177q30 68 86 5q28 -30 29.5 -81.5t-33.5 -83.5q-28 -20 -62 -32l-3 -220q62 90 139 99q53 6 74 -30q23 -37 -16 -88q-17 -18 -42 -13t-31 33q-5 25 16 35q20 9 32 -13q5 -8 6 -19q3 -11 -2 -12q-3 -1 -4.5 2.5t-1.5 7.5
q-5 22 -18 21q-13 -2 -13 -16q0 -6 3 -12q12 -20 30 -14.5t23 24.5q6 24 -19 39.5t-48 9.5q-37 -11 -74 -45.5t-50 -72.5q18 4 24 3q51 -4 81 -27.5t42 -59t19 -72t22 -74t41 -58.5q8 -6 17 -3t10 10.5t-6 14.5q-11 8 -15 -1q-3 -7 9 -12q6 -3 5 -5h-6q-20 7 -16 20.5
t21 7.5q15 -7 15 -21t-11 -20t-27 2q-28 17 -48 48.5t-32 63t-26 61.5t-38.5 50.5t-59.5 23.5q-18 0 -26 -3q-1 -12 -1 -36v-22q-5 -63 -49 -10q4 14 5 22v20q-1 -1 -7 -8t-9 -11q-23 28 17 66q4 302 4 303q-63 -11 -112 4q-40 -56 -131 -169zM669 645q46 16 64 40
q14 22 8.5 57.5t-23.5 55.5q-45 50 -49 -142v-11zM148 205q-81 -4 -124 -40q-30 -22 -23 -37q3 -7 13 -7q43 0 134 84z" />
    <glyph glyph-name="Z_l" unicode="Zl" horiz-adv-x="803" 
d="M382 444q128 -8 163 8q11 4 12.5 14.5t-6.5 16.5t-20 1q-11 -5 -6 -14q5 -11 19 1q3 7 7 3q1 -2 0 -4t-3 -2q-19 -17 -31 -4q-11 11 4 24q14 11 29.5 3.5t16.5 -22t-15 -26.5q-51 -29 -190 -25q-88 -118 -149 -179q76 0 177 -30.5t168 -70.5l-28 -36q-204 100 -354 98
q-20 -22 -79 -64q-133 -95 -135 -19q-1 56 63 92.5t151 33.5q50 54 146 177q-16 -2 -31 -0.5t-35 0t-34 -7.5q-15 13 -19 21.5t3 12.5t19 5.5t31 1.5q38 -2 87 -6q48 57 107.5 139.5t65.5 106.5q5 17 -8 37t-38 37.5t-66.5 25.5t-88.5 1q-80 -12 -134.5 -47t-34.5 -67
q13 -23 49 -26q35 -3 51 18q14 18 -8 26q-6 2 -14 3q-24 3 -32 -10q-6 -10 14 -13q7 -2 17 -1q13 3 14 -1q-1 -6 -15 -6q-45 -5 -51 14q-4 16 20 25q10 4 22 5q34 2 48 -12.5t2 -33t-41 -25.5q-33 -9 -66 2t-44 32q-13 28 8.5 65.5t59.5 62.5q81 46 165.5 45t151 -36.5
t74.5 -82.5q4 -29 -59 -120q42 -9 93 2q2 128 16 173q26 81 91 11q27 -30 29.5 -80.5t-31.5 -84.5q-22 -17 -61 -33q-1 -65 -0.5 -199t0.5 -165q0 -1 1 -4q33 15 70.5 12t67.5 -30t30 -66q-2 -32 -34.5 -40t-43.5 26q-4 16 6.5 27t24 6t18.5 -27q0 -10 -4 -11q-5 0 -5 8
q-5 22 -18 17t-9 -20l2 -4q18 -21 37.5 -3t6.5 42q-11 18 -39 28q-27 8 -51 4t-41 -13t-34 -9t-31 17l4 26q-1 122 -1 366q-61 -13 -111 1q-17 -23 -113 -144zM649 623q48 20 62 42q14 24 7.5 58.5t-24.5 53.5q-46 44 -45 -154zM148 205q-81 -4 -124 -40q-30 -22 -23 -37
q3 -7 13 -7q43 0 134 84z" />
    <glyph glyph-name="V_t" unicode="Ct" horiz-adv-x="663" 
d="M141 574q20 -176 52 -259q33 -88 79 -63q49 28 78 158q12 53 18 114q6 74 -4 143.5t-33 107.5t-51 25q-28 -15 -44 -64q-14 -46 4 -75q13 -22 29 -2q7 9 12 25q11 34 -2 47q-10 10 -18 -15q-4 -10 -6 -25q-4 -18 -7 -19q-4 2 -1 22q7 65 30 69q13 2 20 -19q5 -19 1 -47
q-8 -45 -28 -61t-37 3t-17 62q1 49 23.5 93t48.5 53q35 12 69.5 -27t51.5 -98q41 -155 -11 -333q-39 -135 -102 -190q-51 -44 -91 -4q-34 35 -53 133q-14 -6 -23 14.5t-14 60.5q-3 22 -10.5 126.5t-19 183.5t-30.5 109q-9 15 -24.5 14.5t-21.5 -12.5t2 -28q9 -16 20 -9
q13 8 0 24l-5 5q-7 7 -5 10q5 3 10 -4q26 -20 14 -41q-10 -17 -29 -9q-4 2 -8 6q-20 18 -13 42.5t28.5 29.5t42.5 -17q32 -41 48 -103.5t27 -155.5zM510 570q-4 60 -43 81q-19 10 -38 15q-12 39 17 41q33 2 69 -36q44 -47 41 -111v-3q31 -8 59.5 1t32.5 30q5 17 -6 30
q-7 9 -17.5 7.5t-14 -9.5t2.5 -18q9 -9 16 -2t-6 16q-6 3 -4 6q1 1 7 -2q20 -11 11 -25t-25 -3q-19 13 -7.5 32t31.5 13q15 -5 22.5 -21t2.5 -32q-6 -20 -28 -36t-44 -20q-18 -3 -35 0q-1 -12 -6.5 -70t-7.5 -88.5t-4 -77.5t1 -77.5t10 -48.5q6 -15 20 -17t23 8.5t2 26.5
q-6 15 -18 11q-13 -5 -4 -21l4 -6q6 -8 4 -10q-4 -3 -9 5q-22 23 -7 41q13 15 30 1q3 -2 5 -5q21 -27 -1 -51q-21 -22 -45 -9q-10 5 -17 18q-25 47 -29 118t1.5 163.5t3.5 134.5z" />
    <glyph glyph-name=".notdef" horiz-adv-x="199" 
 />
    <glyph glyph-name=".null" horiz-adv-x="0" 
 />
    <glyph glyph-name="nonmarkingreturn" horiz-adv-x="333" 
 />
    <glyph glyph-name="space" unicode=" " horiz-adv-x="199" 
 />
    <glyph glyph-name="exclam" unicode="!" horiz-adv-x="117" 
d="M95 826q-8 -23 -10 -43q-7 -73 -3.5 -139.5t0 -148t-21.5 -132.5q-11 -34 -18 -32q-5 1 -6 24q10 72 9 131t-6.5 160t-5.5 128q0 29 2.5 47.5t9 29.5t19.5 5t31 -30zM13 252q-6 24 5.5 38.5t26.5 9.5q30 -10 21 -49q-7 -30 -25 -34q-16 -5 -25 24q-2 5 -3 11z" />
    <glyph glyph-name="quotedbl" unicode="&#x22;" horiz-adv-x="175" 
d="M35 813q-13 -20 -25 -12.5t-9 24.5q3 20 25 20q26 1 35 -23q2 -7 2 -15q0 -20 -24 -53q-23 -31 -32 -11l5 6q6 6 12.5 14.5t12 18.5t5.5 18t-7 13zM133 811q-13 -20 -25 -12.5t-9 24.5q3 20 25 20q26 1 35 -23q2 -7 2 -15q0 -20 -24 -53q-23 -31 -32 -11l5 6
q6 6 12.5 14.5t12 18.5t5.5 18t-7 13z" />
    <glyph glyph-name="numbersign" unicode="#" horiz-adv-x="582" 
d="M40 190q-22 17 -27.5 29.5t4.5 19t27.5 9t44.5 2.5q5 0 19 -0.5t23 -0.5q22 45 44 99q-37 0 -70 -3q-17 -2 -40 -10q-22 17 -27.5 29.5t4.5 19t27.5 9t44.5 2.5q32 0 80 -3q54 136 53 186q0 20 -14 29t-27.5 0.5t-13.5 -30.5q1 -19 14 -20q11 -1 14 13q1 8 -2 19
q-4 11 0 12q3 1 5 -2t3 -7q13 -36 -10 -50q-19 -11 -31 9q-3 5 -5 11q-10 37 20 56q27 17 49 -2q13 -11 16 -34q9 -75 -31 -193q112 -5 140 -5q58 140 57 192q0 20 -14.5 28.5t-28.5 0t-14 -29.5q1 -18 13.5 -20.5t15.5 13.5q1 8 -2 18q-4 11 0 13q5 1 8 -10q13 -36 -10 -50
q-18 -11 -31 7q-3 6 -5 13q-11 37 20 56q27 18 49 -2q12 -12 15 -34q9 -75 -31 -195q80 3 108 17q15 8 16.5 23t-9.5 24t-27 1q-15 -7 -11 -20q6 -14 22 -3q3 2 6 5q1 0 3.5 2t3.5 2.5t3 -1.5q2 -1 0 -4.5t-4 -4.5q-24 -25 -42 -9q-16 13 -3 32l6 6q25 22 50 2
q24 -19 15 -45q-5 -14 -20 -23q-49 -30 -129 -38l-44 -111q102 0 139 17q15 8 16.5 23t-9.5 24t-27 1q-15 -7 -11 -20q6 -14 22 -3q3 2 6 5q1 0 3.5 2t3.5 2.5t3 -1.5q2 -1 0 -4.5t-4 -4.5q-24 -25 -42 -9q-16 13 -3 32l6 6q25 22 50 2q24 -19 15 -45q-5 -14 -20 -23
q-57 -35 -163 -40q-27 -65 -43 -119q-7 -24 -7 -48q-60 -36 -60 3q0 24 22 77q7 18 37 85q-23 0 -67.5 1t-65.5 1q-30 -78 -42 -117q-7 -24 -7 -48q-61 -37 -59 7q1 24 21 73q9 24 36 84l-30 -2q-17 -2 -40 -10zM179 246q115 -6 132 -6l48 107q-20 -1 -43.5 -1t-52.5 0.5
t-44 0.5q-12 -33 -40 -101z" />
    <glyph glyph-name="dollar" unicode="$" horiz-adv-x="288" 
d="M166 130q-19 -25 -32 -31t-19.5 5t-9.5 30t-3 49v5q-51 -3 -82 15q-31 19 -11 44q23 27 72 25q12 -1 24 -4q0 15 2 50t3 55q-4 3 -12 9.5l-12.5 10l-11.5 9t-11 9l-10 8.5t-9.5 8.5t-7 7.5t-6 7.5t-3.5 6.5q-15 33 2.5 73t64.5 62l14 6q-5 38 -12 52q-8 17 -24.5 19
t-26 -10.5t-1.5 -30.5q8 -17 21 -13q14 5 7 22q-3 5 -7 10q-6 9 -4 11q4 4 10 -5q25 -25 9 -46q-13 -17 -32 -5q-5 2 -9 7q-24 28 -2 57q19 25 46 16q16 -4 27 -22q15 -28 23 -55q79 18 123 -9q31 -18 10 -44q-23 -27 -72 -24q-15 1 -29 5q-12 3 -18 9q5 -45 7 -107
l30 -23.5l30 -23.5t20.5 -19t14.5 -18q14 -33 -3.5 -73t-63.5 -63q-18 -8 -28 -11l2 -22q1 -21 10 -44zM218 556q-36 11 -48 -2q-9 -10 8 -17q6 -2 15 -3q42 -5 55 16q12 17 -11 29q-9 4 -23 6q-38 5 -75 -7q2 -9 4 -23q8 12 30 15t53 -7q11 -5 11 -7q0 -1 -1 -2
q-5 -5 -18 2zM153 336v-37.5v-42.5v-35q82 38 0 115zM51 229q-11 7 -12 9q5 5 19 -2q31 -10 45 0q0 10 1 15q-7 5 -20 8q-43 5 -57 -17q-11 -18 13 -30q9 -4 23 -6q12 -2 39 0v15q-24 -3 -51 8zM113 463q1 51 -2 102q-63 -35 2 -102z" />
    <glyph glyph-name="percent" unicode="%" horiz-adv-x="417" 
d="M219 551q39 22 43.5 3t-15.5 -58q-8 -18 -45 -93t-61 -134.5t-24 -88.5q0 -14 11 -20t21 0t10 21q-1 14 -12 14q-12 0 -9 -17q0 -3 1 -6q4 -7 0 -9q-3 -1 -6 7q-10 26 8 35q16 8 25 -9l2 -4q8 -28 -17 -41q-25 -12 -39 8q-5 7 -7 18q-6 45 12.5 103.5t51.5 131t44 106.5
q6 16 6 33zM39 507q17 36 36 33q5 0 8 -4.5t4 -10t0.5 -11t-4 -9t-8.5 -3.5q-9 2 -8 13t12 5q4 -4 5 0q0 3 -4 5q-15 11 -19.5 -6t8.5 -24q16 -9 22 14q7 27 -9 40q-3 2 -6 3q-22 7 -40.5 -16.5t-26.5 -57.5q-13 -59 4 -103.5t55 -48.5q20 -2 33.5 23t13.5 64q1 27 -8 50.5
t-25 26.5q-10 2 -15.5 -8t-2 -21.5t12.5 -11.5q6 0 9 6.5t-0.5 13t-10.5 5.5q-4 0 -4 -2t4 -2q8 0 7 -8.5t-8 -5.5q-12 5 -5 20q5 10 12 6q13 -5 18 -37q2 -9 2 -31q-1 -62 -29 -68q-22 -5 -38 29q-18 39 -6 94q4 20 11 38zM241 337q16 35 35 34q8 -1 11 -11t0 -19t-11 -8
t-8 11q2 10 12 6q4 -4 5 0q0 4 -4 6q-14 10 -19 -6q-5 -18 8 -25q16 -9 22 14q7 27 -9 40q-3 2 -6 3q-22 7 -40.5 -16.5t-25.5 -58.5q-13 -58 3.5 -103t54.5 -48q20 -2 33.5 23t13.5 64q1 27 -8 50.5t-25 27.5q-10 2 -15 -9t-2 -22.5t12 -11.5q6 0 9 6.5t-0.5 13t-10.5 5.5
q-4 0 -4 -2t4 -2q10 0 7 -10q-2 -6 -8 -4q-6 3 -6.5 11t3.5 13.5t10 3.5q13 -8 18 -38q2 -9 2 -31q-1 -63 -29 -69q-23 -4 -38 30q-18 39 -5 94q4 20 11 38z" />
    <glyph glyph-name="ampersand" unicode="&#x26;" horiz-adv-x="716" 
d="M522 131q-44 24 -106 42q-157 47 -274 1q-73 -29 -87 -78q-15 -53 52 -88q51 -26 137 -34q48 -4 89 -1q91 10 110 45q12 21 -17 35q-31 15 -51 -2q-4 -3 -7 -8q-8 -15 11 -22q20 -7 28 11q2 3 2 8q0 10 6 9t6 -11q0 -22 -19 -29.5t-38 1.5t-18 27q2 27 36 32.5t63 -11
t22 -45.5q-13 -45 -82.5 -65.5t-146.5 -13.5q-113 9 -181.5 53t-59.5 101q14 83 99 126t206 35v23q0 11 1 18q-22 -2 -37 0q-69 1 -69 20q-1 12 27 32q22 -8 36 -9q16 -2 46 -4l4 39q-111 21 -156.5 117t-4.5 216q26 77 88 128.5t136 34.5q49 -11 57 -55q7 -40 -22 -63
q-24 -20 -57 -8q-32 11 -31 41q0 26 26 33q18 5 42 -5q14 -7 13 -12q-2 -7 -17 0q-32 11 -39 -9q-7 -17 11 -27q6 -3 14 -4q28 -2 38.5 18.5t-1.5 42.5t-39 24q-31 2 -63.5 -21.5t-52.5 -54.5q-24 -34 -41 -83q-41 -120 19 -206q42 -60 105 -67q67 -7 101 55q22 38 23 97
q1 36 -7 68q-6 26 -22.5 51t-39.5 31q-18 6 -32 -6t-12 -29t22 -23q19 -6 25 10q6 15 -13 20q-5 1 -12 1q-11 -3 -11 4q1 3 11 6q37 2 42 -23q5 -22 -17 -32q-7 -3 -16 -3q-35 0 -43 32q-7 31 17 51q17 14 43 11q55 -8 85 -60t29 -112q-3 -87 -49 -141.5t-114 -50.5h-8
l-3 -37q17 0 65.5 -0.5t72.5 -2t61.5 -5t64.5 -12.5t49 -22q22 -14 18.5 -35t-22.5 -27.5t-39 6.5q-17 16 -4 30q14 17 36 -1l5 -5q7 -6 4 -9q-2 -1 -3 -0.5t-4 2.5l-2 2q-18 15 -25 3q-7 -11 8 -18t25.5 0.5t9.5 20t-15 19.5q-33 17 -133.5 19t-171.5 -3q0 -17 1 -25
q0 -1 3 -19q56 -6 107 -22q61 -19 111.5 -49t77.5 -72.5t10 -83.5q-19 -44 -81 -44q-54 0 -80 29q-18 20 -2 45q18 28 59 23q35 -5 39 -28q3 -15 -11 -32q-9 -12 -17 -9q-8 2 1 14q17 24 -6 33q-21 8 -36 -6q-6 -5 -7 -13q-4 -24 22 -34.5t55 -2.5t33 31q5 26 -24 55.5
t-67 50.5z" />
    <glyph glyph-name="quotesingle" unicode="'" horiz-adv-x="93" 
d="M54 813q-13 -20 -25 -12.5t-9 24.5q3 20 25 20q26 1 35 -23q2 -7 2 -15q0 -20 -24 -53q-23 -31 -32 -11l6 6l11.5 14.5t12 18.5t5.5 18t-7 13z" />
    <glyph glyph-name="parenleft" unicode="(" horiz-adv-x="411" 
d="M239 30q35 -13 64 -1t33 47q5 36 -10 73q-15 31 -36 23q-20 -7 -13 -37q2 -8 6 -17q11 -22 22 -16q12 8 -1 31q-3 5 -7 10q-1 2 -3.5 5.5t-3 5.5t0.5 5q1 1 3 0t4.5 -3.5l3.5 -3.5q28 -33 18 -61q-8 -20 -27 -8q-5 4 -11 11q-28 38 -13 76q12 30 36 22q7 -2 13 -7
q36 -30 38 -92t-29 -97q-29 -31 -63 -36.5t-64.5 10.5t-56.5 39.5t-45 53.5q-65 101 -81 241t13.5 270.5t92.5 222.5q22 32 56 58t71 39t70 -5t49 -71q11 -29 4.5 -71.5t-28.5 -62.5q-25 -23 -45 2q-22 28 -7 69q3 8 8 16q17 28 32 14q17 -15 5 -48q-4 -11 -11 -21
q-1 -2 -2.5 -4t-3 -3.5t-2.5 -2t-2 0.5q-5 5 3 16q17 27 7 40q-8 9 -17 -5q-3 -4 -5 -10q-13 -35 5 -50q17 -14 32 7q4 7 7 16q14 35 5 73q-22 87 -95 44q-50 -29 -88 -90q-9 -15 -14 -27q-29 -73 -44.5 -168t-15 -196.5t36 -191.5t105.5 -135z" />
    <glyph glyph-name="parenright" unicode=")" horiz-adv-x="387" 
d="M136 848q-35 13 -64 1t-33 -47q-5 -36 10 -73q15 -31 36 -23q20 7 13 37q-2 8 -6 17q-11 22 -22 16q-12 -8 1 -31q3 -5 7 -10q1 -2 3.5 -5.5t3 -5.5t-0.5 -5q-1 -1 -3 0t-4.5 3.5l-3.5 3.5q-28 33 -18 61q8 20 27 8q5 -4 11 -11q28 -38 13 -76q-12 -30 -36 -22
q-7 2 -13 7q-36 30 -38 92t29 97q29 31 63 36.5t64.5 -10.5t56.5 -39.5t45 -53.5q65 -101 81 -241t-13.5 -270.5t-92.5 -222.5q-22 -32 -56 -58t-71 -39t-70 5t-49 71q-11 29 -4.5 71.5t28.5 62.5q25 23 45 -2q22 -28 7 -69q-3 -8 -8 -16q-17 -28 -32 -14q-17 15 -5 48
q4 11 11 21q1 2 2.5 4t3 3.5t2.5 2t2 -0.5q5 -5 -3 -16q-17 -27 -7 -40q8 -9 17 5q3 4 5 10q13 35 -5 50q-17 14 -32 -7q-4 -7 -7 -16q-14 -35 -5 -73q22 -87 95 -44q50 29 88 90q9 15 14 27q29 73 44.5 168t15 196.5t-36 191.5t-105.5 135z" />
    <glyph glyph-name="asterisk" unicode="*" horiz-adv-x="477" 
d="M260 237q-45 -60 -47 29v10q0 39 5 117q-113 -52 -138 -82q-9 -11 -5 -22.5t15 -13t22 8.5q10 13 -1 19t-19 -12q-4 -8 -6 -7q-3 2 0 9q9 26 28 21q16 -4 13 -21l-2 -6q-9 -20 -29 -20.5t-29.5 14.5t1.5 36q34 51 135 102q-89 38 -104 46q-20 10 -32 18t-17 16.5t3.5 15
t31.5 10.5q15 -15 26 -21q28 -18 110 -57q4 132 -12 168q-11 21 -30 13t-9 -30q6 -13 16 -8q12 7 -2 23q-4 8 -3 9q2 2 8 -4q19 -19 7 -35q-11 -14 -26 -2l-4 4q-14 17 -5.5 35.5t26 20t32.5 -17.5q32 -55 32 -180q95 45 120 61q13 8 26 21q77 -15 -15 -60q-20 -10 -104 -46
q101 -51 135 -102q11 -21 2 -36t-29 -14.5t-29 20.5q-8 19 8 26q18 8 29 -15q1 -2 2 -5q3 -7 0 -9q-2 -1 -6 7q-8 18 -19 12t-1 -19q9 -11 21 -8.5t15.5 13t-4.5 22.5q-25 30 -151 88q-2 -91 2 -130q1 -15 7 -32z" />
    <glyph glyph-name="plus" unicode="+" horiz-adv-x="416" 
d="M29 365q12 -5 31 -7q23 -2 116 -2q10 124 -3 157q-8 19 -25.5 12t-10.5 -26q6 -14 15.5 -7.5t-1.5 20.5q-7 3 -3 7q2 2 7 -3q18 -20 4 -33q-13 -12 -26 4q-12 16 -3.5 32.5t24 17t28.5 -17.5q26 -50 22 -163q125 0 174 -29q26 -15 13 -39q-12 -20 -33 -15q-7 2 -13 7
q-16 13 -3 26q13 14 32 -5q7 -3 3 -7l-7 3q-15 13 -21 1q-4 -8 8 -14t20.5 0.5t7 17.5t-12.5 16q-37 16 -169 10q-6 -90 -4 -129q0 -16 5 -29q-14 -16 -23 -20t-13 3.5t-5.5 20.5t-0.5 33q1 21 11 119q-86 -4 -107 -4q-59 0 -59 17q1 10 22 26z" />
    <glyph glyph-name="comma" unicode="," horiz-adv-x="93" 
d="M40 280q-13 -20 -25 -12.5t-9 24.5q3 20 25 20q26 1 35 -23q2 -7 2 -15q0 -20 -24 -53q-23 -31 -32 -11l6 6l11.5 14.5t12 18.5t5.5 18t-7 13z" />
    <glyph glyph-name="hyphen" unicode="-" horiz-adv-x="341" 
d="M12 327q4 -2 25 -7q25 -2 84 1.5t102.5 -1.5t72.5 -27q23 -16 10 -43q-11 -22 -28 -15q-5 2 -9 7q-13 15 -2 29t26 -5q4 -7 3 -8q-2 -2 -7 3q-10 11 -15 3q-5 -11 5 -18q16 -10 21.5 9.5t-9.5 28.5t-50.5 10.5t-68.5 -1.5l-74 -7t-55 -5q-17 0 -27.5 2t-16.5 6.5t-3 14
t16 23.5z" />
    <glyph glyph-name="period" unicode="." horiz-adv-x="74" 
d="M8 251q-6 24 5.5 38.5t26.5 9.5q30 -10 21 -49q-7 -30 -25 -34q-16 -5 -25 24q-2 5 -3 11z" />
    <glyph glyph-name="slash" unicode="/" horiz-adv-x="270" 
d="M190 776q71 41 71 -4q-1 -26 -26 -86q-13 -31 -71.5 -151t-98 -218t-38.5 -145q0 -23 17 -33t33.5 0t16.5 34q-1 21 -16 23t-18 -16q-1 -9 3 -20q3 -14 -1 -15q-2 -1 -9 10q-15 39 9 56q21 14 37 -5q6 -6 9 -16q10 -34 -13.5 -56t-53 -13.5t-34.5 47.5q-9 73 20.5 167.5
t82.5 213t71 174.5q9 27 9 53z" />
    <glyph glyph-name="zero" unicode="0" horiz-adv-x="230" 
d="M67 505q-15 -33 -22 -67q-25 -110 18 -181q28 -45 61 -38q42 10 50 97q1 12 1 25q0 34 -4 54q-7 55 -32 67q-14 6 -21 -15q-7 -25 9 -33q10 -5 14 8q1 15 -13 16q-6 0 -6 4t6 4q13 1 18.5 -10t1 -23t-15.5 -12q-16 0 -21.5 20.5t3.5 39.5t27 15q29 -6 45 -48t15 -89
q-1 -70 -25.5 -114t-59.5 -41q-68 6 -97.5 86t-5.5 184q13 61 46 102.5t71 28.5q30 -11 30 -55q0 -37 -20 -48q-10 -5 -21 2q-20 11 -16 39q5 24 23 21q6 -2 12 -6q7 -7 7 -10q-1 -4 -9 0q-17 10 -21 -6q-4 -17 9 -24q2 -1 5 -1q15 -1 20 15t-1 34t-20 19q-16 1 -33 -17.5
t-28 -42.5z" />
    <glyph glyph-name="one" unicode="1" horiz-adv-x="155" 
d="M124 205q-29 -21 -45 -20.5t-20 15.5t-2 44q1 19 9 70l14.5 93.5t5.5 87.5t-13 64t-40 13q-24 -6 -20 -21q1 -3 3 -6q9 -13 24 -8q16 4 2 18l-3 3q-3 1 -4.5 3t0.5 4q1 0 11 -3q26 -18 8 -32q-17 -14 -39 -1q-3 2 -5 4q-24 19 -1 38q24 20 56 10q14 -5 23 -16
q32 -37 36.5 -93t-3.5 -129.5t-6 -106.5q1 -17 9 -31z" />
    <glyph glyph-name="two" unicode="2" horiz-adv-x="307" 
d="M104.5 497q-18.5 3 -18.5 8q0 2 1 3q2 8 21 5q53 -5 61 -42q7 -30 -20 -48q-19 -13 -44 -8q-28 5 -44.5 22t-18 38.5t5.5 42.5t26 36t44 18q48 6 88 -31t45 -87q8 -66 -27 -123t-95 -95q-16 -10 -25 -15q59 0 100 4q22 1 44 8q76 -52 -54 -53q-30 0 -100.5 2.5t-71.5 5.5
v4q-1 2 -0.5 28t0.5 27q92 19 144.5 83.5t39.5 131.5q-11 53 -56 76q-39 19 -69 -11q-26 -26 -12 -55q7 -16 26 -25q27 -15 43 6q14 17 -5 33q-10 8 -28.5 11z" />
    <glyph glyph-name="three" unicode="3" horiz-adv-x="300" 
d="M57 343q-8 -19 4 -23q10 -4 14 11v2q2 15 -7.5 21.5t-21 2t-13.5 -18.5q-6 -41 25.5 -76.5t77.5 -35.5q63 1 92 43q25 38 -3 69q-30 32 -105 30q-11 2 -14 4q1 5 11 12q4 2 6 2q107 28 99 101q-3 28 -38 44t-70.5 15.5t-58.5 -8.5q-19 -10 -13 -31q8 -19 27 -11
q14 7 7 18q-6 12 -20 -2q-5 -5 -7 -3q-2 3 4 9q12 13 23 10t12.5 -14.5t-7.5 -22.5q-20 -20 -39 1t-6 44q5 8 13 13q36 23 79.5 27t82.5 -18q29 -18 38.5 -47.5t-6.5 -65.5q-12 -21 -48 -59l27 -18q26 -23 29 -27q41 -44 6 -97q-31 -47 -89 -58q-64 -12 -109 33
q-23 22 -34.5 62.5t-0.5 65.5q8 20 26 22t29.5 -13.5t3.5 -35.5q-9 -18 -25 -13q-18 6 -11 30q2 4 4 9q4 7 7 6q3 -2 -1 -9z" />
    <glyph glyph-name="four" unicode="4" horiz-adv-x="308" 
d="M63 305l-46 -1q23 243 -1 301q-7 18 -23.5 20.5t-27 -10t-2.5 -31.5q6 -17 20 -13q15 4 7 22q-2 5 -6 10q-7 10 -4 12t11 -6q24 -27 8 -47q-14 -18 -34 -5q-5 3 -9 9q-23 30 1 58q22 26 50 14q14 -6 24 -24q44 -83 33 -275h94q10 84 8 121q-2 16 -10 29q29 23 44 20
t19 -16.5t2 -40.5q-1 -15 -7.5 -56.5t-8.5 -55.5h5q20 1 40 8q61 -41 -10 -48q-16 -1 -40 -1h-1q-15 -115 6 -148q12 -19 39 -13q23 6 17 22l-2 4q-8 12 -23 8q-14 -5 -1 -17q1 -2 3 -3l2 -2q3 -2 3 -2.5t-1 -2.5q-5 -3 -11 3q-24 17 -9 30q16 13 38 2l6 -4q24 -19 0 -37
q-26 -19 -56 -8q-12 4 -20 14q-41 47 -35 156q-24 1 -92 5v-1z" />
    <glyph glyph-name="five" unicode="5" horiz-adv-x="295" 
d="M30 506q3 34 8 38t42 -2q-1 -18 13.5 -27t36 -9t39.5 2t30 6q52 16 51 52q0 24 -21 31q-16 6 -29 -8q-11 -15 2 -25q12 -10 22 10l2 6q3 10 8 9q4 -2 1 -12q-8 -33 -32 -31q-19 3 -22 23q-2 7 1 16q8 24 29 28t38 -10t17 -36q-1 -33 -21.5 -58t-49 -35.5t-61.5 -9.5
t-57 16q-1 -14 -2.5 -42t-2.5 -42q60 56 123 19q50 -30 65 -94q18 -80 -39 -132q-10 -9 -21 -16q-28 -19 -69.5 -25.5t-75.5 6.5q-24 11 -35.5 32.5t-0.5 40.5q9 16 30 20t37 -7t12 -31q-3 -15 -17.5 -19.5t-25.5 5t-5 28.5q0 8 6 8q2 -1 2 -9q-4 -21 12 -21q13 -1 15 12v5
q-1 9 -8 14.5t-15 5.5t-16 -3t-12.5 -10t-3.5 -16q5 -23 28 -34q37 -19 84.5 9t62.5 74q21 60 -16 105q-32 39 -74 29q-58 -14 -77 -113q-1 -3 -1 -6q0 -2 -2 -6q-3 0 -5 -0.5t-3.5 1.5t-2 2.5t-0.5 3.5v5v6v6q1 108 6 215z" />
    <glyph glyph-name="six" unicode="6" horiz-adv-x="224" 
d="M152 315q0 14 3 14q3 -1 3 -14q-2 -40 -20 -45q-14 -4 -18 16q-1 8 0 17q6 56 29 55q20 -2 31 -38q19 -58 -19 -106q-14 -18 -36 -31q-25 -15 -53.5 1t-43.5 46q-20 40 -22 92t11 98.5t34 85t48 56t51 6.5q18 -8 33 -33q19 -30 9 -74q-12 18 -18 30q-33 60 -71 32
q-41 -31 -53 -129q-3 -21 -3 -43q-1 -43 10.5 -80.5t31 -55t39.5 -3.5q39 26 37 85q-2 38 -15 42q-8 2 -14 -13q-2 -5 -4 -12q-6 -20 3 -26q9 -5 14 14q2 6 3 13z" />
    <glyph glyph-name="seven" unicode="7" horiz-adv-x="222" 
d="M84 591q-20 -15 -12.5 -24.5t22.5 6.5q18 21 3 32.5t-34 -7.5l-2 -2q-19 -20 -17 -44q0 -32 40 -38.5t84 16.5l1 -2q22 5 24 -14.5t-10 -50.5q-6 -18 -39.5 -95.5t-53 -138.5t-12.5 -89q3 -14 18 -18t27 3t9 22q-4 15 -18 12q-15 -6 -5 -23q3 -8 1 -9q-4 -1 -9 6
q-18 22 2 34q19 11 34 -4q2 -2 4 -5q15 -24 -12 -40q-28 -17 -52 -1q-9 6 -14 18q-9 33 -8.5 60.5t11.5 68t22.5 71l25.5 71t20 67.5q-16 -3 -29 -2q-29 1 -53.5 20t-26.5 48q-2 21 12 45.5t35 33.5q18 8 30.5 -1t10.5 -27t-21 -32q-21 -15 -31 -2q-10 14 11 33q4 4 9 7
q9 6 11 3q1 -1 -0.5 -2.5t-4 -3t-3.5 -2.5z" />
    <glyph glyph-name="eight" unicode="8" horiz-adv-x="259" 
d="M163 332q0 -2 1 -4t4 -1q2 1 2 7q-5 20 -27 18q-18 -2 -19 -15q0 -3 1 -6q8 -22 38.5 -18t32.5 25q1 15 -16.5 25.5t-40.5 11.5q-30 1 -61.5 -12.5t-47.5 -32.5q-26 -31 -18.5 -64t37 -53t67.5 -30t75 6q44 19 39 72q-4 36 -22 46q-5 2 -9 1q0 -3 1 -4q28 -74 -18 -95
q-35 -17 -79 7q-37 22 -43 58q-6 33 21 62t63 26q25 -2 36 -15t-6 -23q-21 -12 -34 4q-8 10 4 14q14 6 19 -10zM117 543q-3 -6 -4 -6q-1 1 -1.5 3.5t0.5 3.5q4 21 19 18q14 -5 11 -21q-5 -21 -26 -17t-22 24q-1 15 11.5 26.5t28.5 12.5q19 1 40 -14t31 -33q17 -30 12.5 -63
t-24 -53t-45 -29.5t-50.5 6.5q-32 19 -25 78q4 38 17 40h2v-4q-20 -79 15 -97q26 -14 54 13q21 21 25 54t-14 61.5t-42 25.5q-17 -2 -25 -15q-8 -14 5 -23.5t23 5.5q6 10 -3.5 14t-12.5 -10z" />
    <glyph glyph-name="nine" unicode="9" horiz-adv-x="296" 
d="M184 493q-25 44 -70 66q-40 13 -57 -9q-16 -22 13 -45q36 -29 124 -35q-6 16 -10 23zM206 434q-104 -1 -158 52q-37 37 -18 69q14 25 58 30q30 4 61 -10q41 -14 71 -54.5t40 -87.5q21 -91 -12 -159.5t-105 -83.5q-30 -6 -63.5 5.5t-49.5 35.5q-22 34 7 65.5t64 3.5
q23 -20 11 -43q-12 -22 -39 -11q-9 4 -18 12q-9 9 -7 13q4 4 13 -5q21 -18 32 -3q10 12 -4 24q-3 3 -8 5q-20 8 -33.5 -4.5t-10 -32t22.5 -27.5q41 -16 75.5 2.5t51.5 55t24.5 77.5t-5.5 71z" />
    <glyph glyph-name="colon" unicode=":" horiz-adv-x="74" 
d="M8 251q-6 24 5.5 38.5t26.5 9.5q30 -10 21 -49q-7 -30 -25 -34q-16 -5 -25 24q-2 5 -3 11zM9 405q-6 24 5.5 38.5t26.5 9.5q30 -10 21 -49q-7 -30 -25 -34q-16 -5 -25 24q-2 5 -3 11z" />
    <glyph glyph-name="semicolon" unicode=";" horiz-adv-x="79" 
d="M7 417q-6 24 5.5 38.5t26.5 9.5q30 -10 21 -49q-7 -30 -25 -34q-16 -5 -25 24q-2 5 -3 11zM40 280q-13 -20 -25 -12.5t-9 24.5q3 20 25 20q26 1 35 -23q2 -7 2 -15q0 -20 -24 -53q-23 -31 -32 -11l6 6l11.5 14.5t12 18.5t5.5 18t-7 13z" />
    <glyph glyph-name="less" unicode="&#x3c;" horiz-adv-x="504" 
d="M11 355q9 -8 22 -14q32 -17 106.5 -44.5t128.5 -55.5t82 -64q14 -19 4 -36t-28 -16.5t-30 18.5q-10 18 6 27q18 9 30 -12q2 -2 3 -5q3 -8 0 -9q-1 -1 -7 5q-9 19 -20 11q-9 -7 1 -18t22 -7.5t14.5 14t-6.5 21.5q-20 21 -79.5 46t-138 51t-96.5 34q-29 12 -49 33l13 29
l-8 18q21 21 50 32q18 8 96 34t138 51.5t80 46.5q9 10 6 21.5t-14 14t-22 -7.5q-11 -12 -1 -18.5t21 10.5q0 2 2 4.5t4 1.5q1 -1 1 -3.5t-2 -4.5q-11 -26 -30 -20q-17 5 -11 23q0 3 2 6q10 19 30.5 18t28.5 -16.5t-5 -36.5q-28 -36 -82 -64t-128.5 -55.5t-105.5 -43.5
q-16 -8 -28 -19z" />
    <glyph glyph-name="equal" unicode="=" horiz-adv-x="379" 
d="M340 356q-14 9 -27 10q-30 3 -96.5 -1.5t-117 2.5t-82.5 38q-24 23 -12 59q9 27 26 25q9 -1 17 -11q14 -21 3 -40q-11 -18 -27 2q-2 2 -4 5q-4 8 -3 10q2 2 7 -4q13 -16 19 -4q6 15 -7 25q-16 11 -23 -10q-9 -26 7 -41q2 -1 3 -2q17 -13 57 -15.5t78.5 2l84.5 10t63 6.5
q19 0 30.5 -2t18.5 -9t3.5 -20.5t-18.5 -34.5zM21 276q13 -9 28 -11q30 -4 95 1t116 -1.5t84 -37.5q24 -23 12 -59q-9 -27 -26 -25q-8 0 -16 11q-16 19 -4 39q10 18 25 1q3 -3 5 -7q5 -8 4 -11q-2 -2 -4 -0.5t-3 4.5q-12 17 -18 4q-6 -14 6 -25q16 -12 23 11q7 28 -10 43
q-17 12 -57 14.5t-78 -1.5t-84 -9.5t-63 -6.5q-26 -1 -39.5 3.5t-14.5 20t19 42.5z" />
    <glyph glyph-name="greater" unicode="&#x3e;" horiz-adv-x="511" 
d="M451 422q-16 14 -35 23q-40 21 -134.5 56t-162.5 70.5t-103 80.5q-19 24 -6.5 45.5t36 21t39.5 -22.5q12 -23 -6 -34q-19 -12 -37 10q-4 5 -7 12q-6 8 -1 10t8 -7q12 -21 25 -14q12 6 3 20q-1 2 -3 4q-13 14 -28 9.5t-18 -18t8 -27.5q25 -27 101 -58.5t174 -64.5t122 -43
q36 -14 63 -41l-10 -22l16 -37q-24 -27 -62 -42q-22 -9 -121.5 -42.5t-175 -65t-100.5 -57.5q-12 -13 -8 -28t17.5 -17.5t28.5 9.5q13 13 2 23t-23 -8q-2 -2 -3 -5q-6 -9 -9 -7q-5 2 1 11q13 30 36 24q19 -5 17 -25q-1 -5 -4 -11q-13 -25 -38.5 -23.5t-35.5 21t6 45.5
q35 45 103.5 80.5t162 70.5t134.5 56q17 9 28 18z" />
    <glyph glyph-name="question" unicode="?" horiz-adv-x="306" 
d="M62 722q6 -9 4 -11q-6 -3 -12 6q-26 26 -7 45q15 16 36 2q4 -3 8 -7q16 -19 7.5 -39.5t-28.5 -26.5t-41 5q-22 15 -25.5 44.5t11.5 52.5q20 30 63 45.5t81 10.5q64 -8 93.5 -45.5t23.5 -85t-39 -91.5q-160 -215 -122 -305q-31 30 -34.5 68.5t14.5 80.5t41 82l48 86t32 78
q9 42 -30 68.5t-88.5 22.5t-66.5 -36q-15 -27 -3 -51q8 -17 25 -19t28 9.5t3 28.5q-8 18 -22.5 12.5t-4.5 -23.5q2 -3 5 -7zM68 247q-6 24 5.5 38.5t26.5 9.5q30 -10 21 -49q-7 -30 -25 -34q-16 -5 -25 24q-2 5 -3 11z" />
    <glyph glyph-name="at" unicode="@" horiz-adv-x="550" 
d="M54 352q-7 0 -16.5 18t-16.5 50.5t-4 65.5q17 182 132 255q89 57 192 26q95 -29 140 -115q24 -46 26 -102q7 -182 -74 -245q-44 -33 -84 -17q-23 9 -25 28q-3 14 -3 26q-24 -40 -53 -58.5t-74 -16.5q-44 3 -74.5 34.5t-37.5 78t2 96.5t44 95.5t88 68.5q22 10 48 16
t53.5 5.5t46 -16.5t19.5 -47q2 -43 -35 -56q-32 -11 -53 11q-13 14 -11 37q2 27 25 32t32 -18q4 -12 1 -28q0 -12 -6 -12q-4 0 -4 12q3 28 -14 29q-14 0 -18 -16q-1 -5 0 -10q4 -21 21.5 -25t31.5 9t11 33q-4 24 -19.5 33t-35.5 5t-38.5 -12.5t-33.5 -19.5q-67 -53 -84 -149
q-15 -86 23 -130q29 -34 80 -19q19 8 32.5 24.5t20.5 33t10.5 43.5t4.5 41.5t1 41.5q1 28 35 43q6 1 9.5 -3t4.5 -11q1 -22 -6 -91t-8 -77q-4 -26 13 -24q25 3 50 48q38 66 35 163q-3 100 -79 154q-71 51 -154 26q-93 -27 -139 -139q-37 -91 -32 -225z" />
    <glyph glyph-name="A" unicode="A" horiz-adv-x="629" 
d="M57 377q-16 -46 -4 -52q9 -4 19 19q4 10 7 22q11 49 -9 51q-19 1 -35 -34q-8 -16 -12 -35q-11 -52 2 -86q26 -67 96 24q37 47 74 122q-42 0 -62 -7q-20 17 -24 28.5t4.5 16.5t26 6.5t41.5 -0.5q20 -2 33 -3q0 1 2 5q71 172 63 274q-5 63 -42 59q-62 -6 -178 -194
q-1 -4 -3 -10l-3 -6q-14 5 17.5 67.5t85.5 128t93 73.5q50 10 66 -66q21 -101 -25 -262q-10 -38 -24 -75q135 -13 162 -15q-10 46 -29 163t-33 171q-7 28 -20 50q47 97 72 -1q5 -19 10 -47q6 -34 20 -153.5t24 -184.5q61 -2 93 9q14 6 16 19.5t-8 22t-25 1.5q-13 -4 -11 -15
q2 -13 18 -7q4 1 9 5q7 7 9 3q1 -1 -1 -4t-4 -4q-23 -20 -39 -5q-15 13 0 29l4 4q26 19 49 -3q22 -20 8 -42q-6 -10 -18 -16q-39 -19 -95 -24q24 -136 52 -178q12 -19 30.5 -16.5t25 19t-4.5 37.5q-11 17 -25 9q-14 -9 -1 -27q3 -5 9 -10q9 -9 7 -13q-4 -4 -13 4
q-32 23 -21 51q9 21 30 17q8 -2 16 -9q31 -27 15 -64q-13 -31 -41 -33q-23 -2 -41 21q-51 62 -80 189q-27 0 -184 10q-23 -54 -77 -127q-104 -139 -156 -78q-5 6 -9 14q-15 23 -11 78.5t27 100.5q25 50 51 47q23 -3 20 -47q-1 -23 -11 -51q-16 -47 -36 -49q-16 -2 -14 29
q2 23 15 57q8 20 11 19q2 -1 -4 -22z" />
    <glyph glyph-name="B" unicode="B" horiz-adv-x="488" 
d="M112 593q13 0 13 -3q0 -5 -12 -7q-37 -9 -46 16q-9 21 11 36q8 5 18 7q29 4 44 -15.5t8.5 -44.5t-30.5 -36q-27 -13 -57.5 1.5t-43.5 43.5q-16 41 -5.5 89.5t37.5 83.5q37 45 89.5 65t102.5 11t92.5 -34.5t64 -71.5t11.5 -100q-8 -45 -61.5 -73t-107.5 -29v-34
q61 4 123.5 -20.5t79.5 -73.5q16 -46 0 -92.5t-56 -78.5t-90.5 -49t-109 -5t-105.5 54q-36 32 -57.5 85.5t-9.5 96.5q9 33 39.5 55t63.5 13q27 -7 38 -33.5t-1.5 -50.5t-44.5 -24q-31 -1 -39 24q-7 25 17 37q12 6 30 5q14 0 14 -5t-14 -5q-29 -1 -29 -19q0 -15 17 -18
q7 -2 14 1q23 8 25 27.5t-14.5 33.5t-38.5 6q-32 -9 -47 -45q-18 -56 29 -124.5t118 -75.5q90 -9 155 51q54 51 47 108q-9 65 -96 87q-26 7 -58 9q0 -109 -32 -163q-12 -20 -31 -17t-25.5 19.5t5.5 34.5q14 16 27 4q16 -14 -2 -34l-2 -2q-5 -5 -8 -4q-2 2 3 8q13 15 3 22
q-10 5 -17 -8q-6 -13 1 -22t18.5 -8t16.5 14q16 33 14 157q-12 0 -18 -1q-7 0 -10 1q0 15 28 21q0 7 -0.5 20t-1.5 20q-21 5 -23 16q4 3 10 3q2 1 6 1t6 1q-4 72 -4 92q0 22 2.5 35.5t7 22t14 3.5t23.5 -23q-4 -10 -8 -32q-3 -28 -3 -92q109 26 124 94q13 53 -37 98
q-57 51 -137 38q-10 -1 -20 -4q-64 -17 -106.5 -82.5t-18.5 -110.5q7 -13 20.5 -23t27.5 -11q21 -3 33.5 12t8 32.5t-25.5 20.5t-26 -13q-4 -15 14 -19q7 -1 15 0z" />
    <glyph glyph-name="C" unicode="C" horiz-adv-x="437" 
d="M311 241q40 9 45 49q5 38 -22 57q-20 14 -47 6q-28 -8 -29 -33q-1 -22 20 -26q17 -3 39 12q1 1 3.5 2.5t4.5 3t5 2.5t5 0.5t4 -3.5q3 -7 -13 -20q-49 -37 -82 -10q-26 20 -16 54q7 21 28 35q31 20 61.5 13t45.5 -31t18.5 -54.5t-19.5 -57.5q-30 -38 -91 -51t-106 3
q-57 18 -97.5 64.5t-58 106.5t-16 129t23.5 133q22 65 62.5 119t102.5 86t129 17q63 -14 76 -69q12 -49 -20 -85q-33 -37 -85 -18q-40 15 -42 51q-2 34 28 47q27 12 64 -5q19 -9 17 -17q-2 -6 -23 0q-40 15 -52 -8q-10 -19 8 -34q10 -9 26 -10q45 -3 56 35q10 34 -18 61
q-16 15 -40 18q-107 13 -180 -96q-66 -98 -68 -230q-2 -139 70 -208q68 -65 183 -38z" />
    <glyph glyph-name="D" unicode="D" horiz-adv-x="445" 
d="M171 687q16 17 26 20.5t13.5 -4.5t4.5 -23t-1 -36t-9.5 -77t-12 -99t-7 -96t6.5 -68q5 -13 17 -15t19.5 6.5t2.5 22.5q-5 13 -15 10q-12 -3 -4 -18q1 -3 3 -5q4 -8 3 -9q-2 -1 -3 -0.5t-2.5 2.5t-2.5 2q-17 21 -4 35t27 -1q2 -1 3 -3q13 -18 3 -35.5t-27.5 -17.5
t-30.5 20q-20 40 -21 101.5t7.5 139.5t7.5 114q0 14 -4 34zM81 790q-35 -8 -44.5 -40.5t11 -57t57.5 -13.5q29 9 29 34q0 21 -21 24q-16 3 -38 -12q-18 -11 -22 -4t13 20q49 37 82 10q25 -21 15 -54q-7 -21 -28 -35q-31 -20 -61 -13.5t-45.5 31t-19 55t19.5 57.5
q30 38 91 51t107 -3q76 -24 121 -96.5t48.5 -159.5t-22.5 -177q-35 -104 -115 -174t-179 -48q-63 14 -76 70q-12 48 20 83q34 37 86 18q40 -15 42 -51q2 -34 -28 -47q-27 -12 -64 5q-19 11 -18 17q3 10 23 0q42 -15 53 10q9 19 -10 34q-10 8 -24 9q-45 3 -56 -34
q-10 -35 17 -62q16 -15 40 -18q108 -13 181 97q65 97 68 230q2 138 -70 207q-68 65 -183 37z" />
    <glyph glyph-name="E" unicode="E" horiz-adv-x="499" 
d="M339 463q-14 -3 -15 4q1 5 15 8q42 6 52 -23q9 -25 -12 -40q-10 -7 -24 -7q-39 0 -54.5 23.5t-4.5 51t39 38.5q33 12 67 -6.5t48 -52.5q16 -49 0 -104.5t-50 -93.5q-45 -50 -105 -68.5t-114.5 -6.5t-100 41t-67.5 76t-10 96q10 44 53.5 72.5t99.5 41.5v55q-91 -4 -123 46
q-23 34 -19.5 76t28.5 76t64 60t88 27.5t100 -21.5q36 -19 65.5 -58t29.5 -77q0 -30 -20.5 -54t-49.5 -24q-25 0 -39.5 19t-9 41.5t31.5 30.5t37 -13q12 -22 -10 -37q-8 -5 -20 -7q-11 -3 -13 2q-1 4 10 7q25 6 20 22q-3 14 -19 11q-5 -1 -10 -4q-23 -19 -5.5 -43t43.5 -7
q24 15 28 48q4 48 -54.5 87.5t-120.5 29.5q-77 -13 -114 -74q-33 -53 -8 -96q23 -40 90 -41q0 76 1 100q4 112 53 41q-8 -22 -9 -36q-6 -31 -8 -102q23 1 60 13q8 2 9 2q4 -11 -16.5 -23t-53.5 -18l-3 -52q78 7 78 -20q-4 -2 -10 -2q-29 -1 -70 -9q-7 -116 -43 -171
q-18 -28 -44 -14q-23 12 -20 36q1 12 10 21q15 16 29 4q16 -13 0 -34q-2 -3 -5 -6q-8 -5 -9 -4q-3 3 1 7q2 1 2 2q14 15 5 23q-9 10 -18 -3q-1 -1 -2 -3q-11 -22 9.5 -32t31.5 11q17 35 21 154q-96 -31 -106 -99q-9 -57 44 -104q63 -56 155 -42l12 2q75 16 128.5 91
t29.5 128q-18 36 -54 43q-24 5 -40 -11t-11.5 -36t29.5 -26q23 -5 29 13q7 16 -13 22q-8 3 -19 2z" />
    <glyph glyph-name="F" unicode="F" horiz-adv-x="445" 
d="M168 496q26 11 26 24q0 11 -14 7q-6 -2 -13 -6q-12 -8 -17.5 -17.5t-4 -16.5t7.5 -11.5t16.5 -3t22.5 9.5q29 21 40 50q14 39 -25.5 58t-98.5 6q2 -77 3.5 -145t-10 -137.5t-37.5 -115.5q-23 -40 -60 -27q-29 11 -34 41q-4 23 12 43q19 23 40 10q22 -12 11 -40
q-4 -10 -13 -20q-8 -11 -13 -6q-4 3 5 12q18 22 5 34q-11 11 -24 -3q-3 -3 -5 -8q-9 -21 2.5 -35.5t30.5 -12.5t28 22q15 32 17.5 108t-2 148.5t-10.5 159.5t-7 120q-1 18 1 46q-2 0 -5 -0.5t-4 -0.5q-25 -3 -48 -12q-26 20 -33 34t5 21.5t32.5 11t53.5 3.5q27 0 147.5 -6.5
t213 -4t130.5 20.5q29 14 16.5 41.5t-42.5 13.5q-19 -9 -12 -23q7 -15 27 -3q3 2 7 5q10 6 11 5q5 -5 -5 -11q-26 -27 -48 -12q-19 13 -8 34q3 6 9 11q29 25 59 3q28 -19 20 -48q-5 -18 -25 -30q-37 -22 -91 -34t-109 -13.5t-117.5 -2t-116.5 -0.5q-5 -30 -6 -38
q-2 -33 -2 -108q53 15 94 2q31 -9 50 -39t8 -66q-7 -26 -34 -52.5t-55 -32.5q-32 -6 -37 20q-6 27 25 49q8 6 18 10q28 13 35 -3q6 -18 -21 -37q-9 -6 -21 -10q-12 -3 -12 0q-1 4 11 8z" />
    <glyph glyph-name="G" unicode="G" horiz-adv-x="556" 
d="M381 688q-2 40 -26 43q-19 3 -28 -17q-6 -14 0 -30q13 -34 43 -35.5t50 24t8 58.5q-7 23 -27.5 41t-44.5 26q-33 7 -69 4t-71.5 -25.5t-64 -54t-46.5 -81t-18 -106.5q-3 -79 18 -141t56.5 -95.5t77.5 -47t84 -1t73 47.5q2 58 -11 79q-100 0 -130 -11q-27 22 15 42
q50 24 115 15q77 -10 79 -65v-3q0 -16 -11 -89.5t-10.5 -129t21.5 -76.5q16 -17 50 -7q26 7 20 21q-1 2 -4 5q-11 11 -29 5q-17 -7 0 -17q1 -2 4 -3l5 -2.5t0 -4.5q-5 -1 -14 3q-30 13 -13 28q19 15 46 6q5 -1 9 -3q28 -15 4 -34q-28 -22 -68 -17q-17 3 -29 12
q-57 46 -53 163q-15 -11 -33 -18q-38 -14 -78 -14.5t-76 15t-69.5 40t-59 60t-44 75t-25.5 86t-3 92t23.5 93.5t54.5 90q47 56 126 91t145 19q51 -12 85 -56.5t22 -93.5q-9 -42 -48 -60.5t-75.5 -1t-39.5 65.5q-3 43 31 59q31 14 54 -12q17 -19 17 -54q0 -22 -8 -22
q-3 0 -5.5 2t-3 5t-1 7t-0.5 5z" />
    <glyph glyph-name="H" unicode="H" horiz-adv-x="769" 
d="M405 421q-28 -86 -86 -148.5t-123.5 -80t-129.5 19.5q-52 33 -71.5 102.5t-11 136t29 118.5t41.5 57q0 -3 -2 -15q-63 -217 1 -320q40 -66 112 -54q74 11 127 94q38 60 52 143q13 83 -3.5 162t-58 127t-95.5 43q-24 -2 -48 -15.5t-37 -34.5q-23 -37 4 -71q24 -30 56 -20
q18 6 30 25q16 26 -1 44q-17 17 -35 1q-10 -9 -16 -30q0 -1 -1 -4.5t-2 -5.5t-2 -4.5t-3 -3.5t-5 0q-6 3 -3 24q10 53 48 59q31 5 48 -24q13 -21 5 -48q-13 -47 -52 -56.5t-73.5 16.5t-35.5 69q-1 50 41 86.5t94 38.5q69 1 110.5 -28t72.5 -93q63 -131 34 -264
q113 -13 178 -13q-2 59 -10 164.5t-8 136.5q0 36 2.5 58t10 35t23 6t38.5 -36q-9 -24 -11 -51q-5 -24 -1.5 -151t3.5 -162q42 3 66 12q19 7 22.5 24.5t-10 29t-33.5 3.5q-19 -7 -15 -22q5 -15 24 -7q6 2 11 6q2 3 5.5 4.5t6.5 -0.5q2 -3 -6 -11q-28 -25 -50 -8q-18 13 -6 34
q3 6 10 11q32 23 61 -1q26 -21 17 -49q-6 -18 -28 -30q-26 -14 -75 -25q-5 -147 -47 -218q-22 -40 -59 -27q-30 12 -35 42q-4 23 12 43q19 23 41 9q21 -14 9 -41q-4 -10 -13 -19t-12 -7q-4 5 5 14q18 22 5 34q-11 11 -24 -3q-3 -4 -5 -9q-9 -21 2.5 -35.5t30 -12t27.5 22.5
q22 49 18 200q-60 -5 -191 3z" />
    <glyph glyph-name="I" unicode="I" horiz-adv-x="314" 
d="M101 823q-28 -13 -27 -29q0 -13 16 -7q5 1 11 6q29 23 22 45q-6 20 -31 11q-7 -3 -14 -8q-30 -22 -43 -59q-15 -46 21 -71t95 -13q64 72 67 -28q0 -17 -1 -40q-1 -32 -9.5 -116.5t-15 -155.5t-6 -144.5t13.5 -105.5q8 -20 26.5 -23t30 11t3.5 35q-7 18 -22 14.5
t-10 -20.5q2 -7 8 -15q6 -12 5 -13q-4 -3 -13 6q-25 29 -9 52q14 19 35 7q7 -4 12 -11q25 -33 0 -63q-22 -27 -51 -18q-19 6 -31 28q-32 60 -37 151.5t3.5 213.5t6.5 175q-55 -18 -96 0q-31 13 -48.5 50.5t-5.5 80.5q9 33 37 63t57 36q31 6 36 -23q6 -32 -25 -60
q-9 -8 -21 -14q-29 -14 -34 7q-6 22 22 43q9 7 21 12q12 6 13 1q0 -3 -12 -11z" />
    <glyph glyph-name="J" unicode="J" horiz-adv-x="434" 
d="M436 764q-49 28 -83.5 -13t-41.5 -96q-7 -59 -9 -194.5t-15 -237.5t-51 -166q-24 -41 -60 -26q-28 13 -33 47q-3 25 14 46q20 23 40 8q21 -15 9 -44q-5 -11 -15 -22q-11 -7 -12 -6q-6 6 5 14q20 25 7 38q-12 11 -24 -4q-3 -3 -5 -7q-10 -23 0 -39.5t29 -15t29 22.5
q21 44 27 152.5t3.5 251t-1.5 173.5q3 82 49 140q-52 2 -97.5 -0.5t-88.5 -10.5t-64.5 -26.5t-14.5 -46.5q9 -29 33 -50q24 -20 36 -4.5t-10 38.5q-2 2 -5 4q-15 13 -21 4q-7 -10 13 -25q3 -2 7 -4q10 -3 9 -9q-1 -2 -4 -1t-6 3q-32 15 -34 39q-1 17 14 17q6 0 15 -5
q35 -19 36 -54q0 -27 -21 -28q-5 -1 -11 1q-24 6 -45.5 33t-27.5 55q-15 66 73 106q87 40 198 28q116 -12 150 -76z" />
    <glyph glyph-name="K" unicode="K" horiz-adv-x="589" 
d="M58 674q0 -21 -4 -21q-6 1 -6 22q-4 65 21 78q18 8 30 -19q7 -16 7 -39q1 -50 -19 -72.5t-43.5 -8t-31.5 56.5q-9 50 7.5 99.5t46.5 68.5q70 44 137 -83q51 -96 59 -214.5t-19 -201.5l5 -3l50 78t47 67.5t56.5 72.5t53 50t62.5 43q35 17 58.5 -3t18 -52t-39.5 -42
q-29 -9 -40 14q-10 24 14 41q10 7 24 10q13 3 14 -2q1 -6 -11 -9q-28 -8 -25 -25q2 -14 18 -13q6 1 13 5q20 13 19 32.5t-17.5 27t-37.5 -2.5q-30 -18 -75.5 -79t-76.5 -111l-83 -138q212 -179 283 -195q23 -5 36.5 9t8.5 32.5t-29 24.5q-22 5 -26 -12q-4 -15 15 -20
q7 -2 16 -2q13 0 14 -4q0 -6 -13 -6q-41 -5 -51 22q-8 22 13 35q8 4 19 5q35 1 51 -27t0.5 -55t-54.5 -23q-41 5 -83.5 22.5t-93 51t-81.5 57l-89 69.5q-27 -66 -61.5 -98.5t-66.5 -17.5q-28 13 -49 59t-30.5 102.5t-12.5 111t2 91t16 36.5q1 -4 1 -16q3 -251 66 -307
q37 -34 77 19q50 67 55 199q2 41 -2 83q-6 74 -31.5 139.5t-59.5 96t-63 8.5q-32 -23 -39 -78q-7 -50 18 -72q20 -18 35 6q6 11 9 30q5 34 -11 44q-12 9 -18 -16q-4 -12 -3 -31z" />
    <glyph glyph-name="L" unicode="L" horiz-adv-x="424" 
d="M31 233v6q3 63 2.5 146t-2.5 157t10 150t40 125q24 41 63 27q31 -12 36 -44q5 -23 -12 -43q-20 -24 -42 -11t-12 40q4 12 15 24q11 7 12 6q3 -3 -4 -14q-19 -22 -6 -35q11 -11 24 2q3 3 6 9q10 22 -2 37.5t-32 13t-29 -23.5q-19 -43 -19.5 -148.5t8.5 -239t9 -167.5v-15
q110 4 189 -4t136 -40q41 -22 29 -60q-10 -30 -40 -37q-25 -6 -47 11q-24 19 -10 42q13 22 41 12q11 -4 21 -14q11 -8 6 -13q-3 -5 -13 5q-24 19 -36 4q-10 -12 5 -25q3 -2 7 -4q23 -9 38.5 3t12.5 31.5t-24 28.5q-66 27 -318 9q-12 -73 -69 -6q-4 0 -10 -0.5t-10 -0.5l3 55
q8 1 24 1z" />
    <glyph glyph-name="M" unicode="M" horiz-adv-x="657" 
d="M143 840q17 -21 30.5 -42t22 -35.5t18.5 -38.5t14.5 -36t15 -43t16.5 -47q132 133 273 243q27 17 37 -12t8 -93q-1 -37 -8.5 -135.5t-13 -180.5t-2.5 -167t19 -122q10 -24 31.5 -26.5t34.5 14t3 40.5q-9 20 -25.5 16.5t-11.5 -23.5q2 -9 10 -19q10 -10 6 -15q-7 -4 -14 7
q-32 33 -13 60q14 21 38 11q9 -4 17 -14q29 -36 4 -71q-21 -30 -56 -24q-25 4 -42 31q-34 52 -46.5 136.5t-9 160t7.5 176t0 158.5v1q-12 -10 -101.5 -77t-132.5 -106q58 -152 95 -185q13 -12 27 -7.5t16.5 17.5t-9.5 27q-13 11 -22 1q-10 -11 9 -23l4 -2q8 -5 7 -8
q-4 -5 -10 1q-30 12 -24 35q5 18 24 14q5 0 10 -3q24 -11 23.5 -36.5t-19 -36.5t-44.5 4q-57 42 -116 175q-31 -29 -42 -53q-7 -15 1 -27t22 -11.5t21 16.5q8 16 -4 21.5t-18 -11.5q-1 -3 -2 -7q-3 -10 -5 -10q-3 1 -3 11q3 29 24 32q17 3 23 -15q2 -6 0 -14q-5 -31 -36 -33
q-30 -3 -40 21q-6 14 0 32q10 32 47 74q-71 167 -79 181q-1 0 -1 2q-6 -53 -8.5 -179t-15 -218.5t-47.5 -151.5q-22 -38 -57 -25q-28 10 -33 39q-4 26 17 48t40 6q19 -17 2 -45q-5 -7 -11 -13q-7 -10 -11 -6t5 13q19 23 5 35q-12 10 -23 -6q-2 -2 -3 -5q-9 -21 0.5 -36.5
t27 -14t26.5 21.5q20 41 26 153.5t2.5 212t0.5 173.5q3 100 27 100q9 0 21 -11z" />
    <glyph glyph-name="N" unicode="N" horiz-adv-x="649" 
d="M529 326q0 41 -4 127t-5 140t8.5 120t33.5 109q17 31 47 29.5t41.5 -26.5t-6.5 -58q-16 -24 -38 -11t-13 40q4 11 13 21q10 7 13 6q1 -2 -5 -14q-18 -22 -4 -33q12 -10 23 5q2 3 4 7q9 21 -2.5 35t-29.5 11.5t-27 -22.5q-13 -32 -14.5 -106.5t4 -145t13.5 -157t9 -117.5
q1 -39 -14 -67t-32 -30q-1 -1 -5 4t-10.5 17.5t-11.5 27.5q-44 137 -127.5 279t-148.5 198q0 -29 7 -159.5t-1 -206.5t-38 -132q-30 -45 -66 -30q-27 11 -30 43q-2 22 13 41q19 24 40 10.5t10 -40.5q-4 -10 -12 -19q-9 -9 -13 -6q-2 3 5 13q18 22 4 34q-12 10 -23 -5
q-2 -3 -4 -7q-8 -21 3.5 -35.5t29.5 -11.5t27 23q13 32 14.5 106.5t-4.5 145t-14 156.5t-9 117v12q-56 43 -96 38.5t-38 -65.5q-4 -48 33 -116q30 -58 62 -69q22 -7 22 17q0 21 -18 56q-19 38 -37 43q-9 3 -9 -8q0 -19 28 -60q1 -2 5.5 -9.5t7 -12.5t0.5 -7q-2 -1 -8.5 6.5
t-11.5 14.5q-51 72 -44 106q5 21 31 2q17 -13 36 -41q52 -78 39 -121q-9 -30 -43 -12q-19 10 -40 34q-42 50 -68.5 120t-21.5 113q7 56 60.5 61.5t107.5 -32.5q1 0 3 -2t3 -2q10 70 69 -1q-8 -21 -9 -45q89 -80 165.5 -202.5t120.5 -243.5z" />
    <glyph glyph-name="O" unicode="O" horiz-adv-x="542" 
d="M78 605q-47 -142 26 -252q51 -79 132 -100q86 -22 140 37q48 52 50 155q1 64 -19.5 123.5t-70.5 73.5q-25 8 -43 -8t-15.5 -38.5t28.5 -30.5q24 -7 33 13q8 18 -14 25q-7 3 -18 3q-16 0 -15 5q1 7 16 7q44 3 53 -27q7 -25 -16 -40q-11 -8 -27 -8q-44 0 -55 39
q-11 37 17 65q23 24 61 19q72 -10 111 -78t37 -147q-2 -115 -62.5 -186.5t-150.5 -66.5q-84 5 -147.5 43.5t-95 99t-38 138t24.5 160.5q21 63 62 116t103 84t128 16q62 -14 74 -69q11 -47 -20 -81q-33 -35 -83 -17q-40 15 -41 52q-1 32 29 45q25 10 60 -6q19 -11 17 -17
q-1 -4 -4.5 -4.5t-10 2t-7.5 2.5q-40 16 -51 -8q-9 -20 11 -35q9 -7 23 -8q36 -2 50 25t-1.5 56t-50.5 31q-49 3 -99 -32.5t-82.5 -83t-48.5 -92.5z" />
    <glyph glyph-name="P" unicode="P" horiz-adv-x="607" 
d="M148 515q19 0 19 -7q-1 -5 -20 -8q-51 -3 -62 30q-9 28 16 47q14 11 35 10q31 0 49 -19.5t18.5 -43.5t-14.5 -47t-42 -31q-42 -12 -82 15.5t-53 71.5q-16 57 11 127.5t75 112.5q39 35 85.5 55t90.5 22t89 -6.5t81.5 -29.5t68 -48.5t48.5 -63t23 -72t-8 -76.5
q-26 -72 -120.5 -104.5t-171.5 -20.5q-1 -67 -3 -108t-13 -91.5t-31 -83.5q-17 -27 -42.5 -23t-33.5 26.5t8 46.5q17 19 35 6t5 -37q-3 -7 -10 -13q-7 -8 -11 -4q-1 1 5 11q16 18 5 28q-10 9 -21 -6q-2 -2 -3 -4q-8 -17 0.5 -29.5t24.5 -11t24 18.5q28 57 18 289q-9 7 -8 15
q1 0 3.5 0.5t4.5 0.5q-4 114 -4 142q0 30 3 48t9.5 28.5t19.5 4t32 -30.5q-10 -21 -11 -42q-5 -37 -5 -149q175 4 223 89q35 60 -9 129q-45 70 -136 92q-44 10 -91 5q-96 -11 -170 -93.5t-49 -151.5q7 -19 24 -35.5t38 -23.5q28 -9 49.5 9.5t19 44.5t-32.5 36q-27 8 -38 -12
q-10 -19 10 -30q10 -5 25 -5z" />
    <glyph glyph-name="Q" unicode="Q" horiz-adv-x="508" 
d="M236 151q42 -2 130 -2.5t142.5 -2.5t120.5 -16t107 -42q40 -27 27 -64q-10 -29 -42 -33q-23 -2 -46 15t-10.5 38t38.5 14q12 -4 24 -16q10 -10 7 -13q-4 -5 -14 5q-21 19 -34 7q-12 -11 2 -24q3 -4 8 -6q22 -10 37.5 1t13.5 30.5t-22 28.5q-42 20 -145 24t-235 0t-164 -3
q-36 1 -58.5 5t-35.5 12t-5 23t38 37q24 -10 77 -16q0 14 5 99q-126 29 -176.5 142.5t-2.5 253.5q20 57 57.5 105.5t94 76.5t116.5 15q57 -13 68 -63q10 -45 -20 -76q-29 -29 -74 -13q-37 13 -38 47q0 30 28 41q23 8 54 -6q18 -6 15 -15q-2 -7 -20 0q-38 14 -47 -9
q-7 -20 12 -32q8 -5 19 -6q34 -2 46.5 22.5t-1.5 51t-46 28.5q-65 5 -121 -55.5t-81 -130.5q-47 -139 21 -242q48 -72 124 -88q79 -16 126 45q37 48 39 134q1 39 -8 83q-8 32 -28 61.5t-47 36.5q-22 7 -38.5 -8t-14.5 -35t26 -27q22 -6 30 11q7 15 -11 23q-7 3 -18 3
q-14 0 -14 5q1 4 15 6q40 3 48 -24q7 -24 -15 -38q-10 -6 -24 -6q-42 0 -53 37q-10 36 16 60q22 20 57 15q67 -9 102.5 -71.5t34.5 -133.5q-3 -106 -58 -171.5t-137 -60.5l-25 3q-1 -17 1 -49.5t2 -46.5z" />
    <glyph glyph-name="R" unicode="R" horiz-adv-x="495" 
d="M255 709q-10 -25 -12 -43q-4 -53 -4 -130q130 -9 167 57q28 49 -12 108q-45 66 -132 80q-13 2 -27 3q-77 4 -143.5 -49t-56.5 -111q10 -40 41 -55q22 -11 42 2t20 32t-22 33q-21 10 -31 -6q-11 -15 7 -26q7 -3 17 -5q12 -3 13 -5v-3q-2 -4 -16 -4q-40 4 -43 33
q-3 24 20 36q12 6 26 3q25 -5 36 -23t8.5 -37.5t-17 -35.5t-37.5 -19q-35 -4 -63 23t-32 63q-6 48 24 100t73 80q41 26 85.5 35t84 1.5t76.5 -26t62.5 -47t42.5 -60.5t16 -67.5t-16 -68.5q-26 -48 -97 -65q43 -37 45 -90q0 -20 -4.5 -106.5t-3 -153.5t15.5 -94q7 -13 21 -14
t22.5 9t0.5 24q-6 13 -17 8q-13 -4 -3 -20l4 -4l2 -2q4 -5 1 -7t-9 4q-22 20 -8 37q13 15 31 2l4 -4q21 -22 3 -46q-18 -22 -43 -12q-11 5 -20 17q-28 39 -36.5 109t-4.5 132t-3 127q-7 56 -46 72t-68 -29q0 -191 -46 -266q-16 -27 -42.5 -24t-34.5 25.5t10 48.5q16 19 34 7
q19 -14 5 -39q-3 -6 -9 -12q-9 -5 -10 -4q-2 3 -1.5 4t2.5 3.5t2 3.5q17 18 5 28q-10 9 -20 -3q-2 -3 -3 -6q-8 -17 0.5 -29.5t24.5 -11t24 18.5q25 51 16 303q-31 11 -26 26q2 2 25 -3q-3 70 -3 117q0 29 3 47.5t9.5 29t19.5 4t31 -29.5z" />
    <glyph glyph-name="S" unicode="S" horiz-adv-x="717" 
d="M551 596q24 5 24 22q-1 15 -16 17q-7 1 -15 -3q-19 -13 -18.5 -32t17.5 -31t36 -1q28 16 35 54q10 56 -48 109.5t-125 49.5q-49 -3 -88 -30.5t-55.5 -63t-11 -73t38.5 -57.5q28 -18 86 -24t107 -7t94 -25.5t58 -75.5q3 -79 -54.5 -138t-156 -85t-213.5 -14q-66 7 -124 29
t-94.5 61.5t-25.5 86.5q12 55 71 69q51 12 84 -13q27 -21 15 -54q-12 -32 -51 -36q-36 -4 -47 20q-7 15 4 38q3 13 15 13q9 -1 1 -15q-11 -29 14 -35q22 -4 35 13q5 7 5 16q-1 31 -40.5 33.5t-62.5 -22.5q-10 -12 -10 -26q1 -46 80 -85t149 -46q164 -17 274 56q72 49 77 108
q3 34 -21 58q-27 27 -78.5 35t-98.5 6t-94 15.5t-69 61.5q-14 32 -15.5 66t13.5 65.5t37 59t54.5 45t66.5 25.5t73 -1t74 -34q37 -27 63.5 -77.5t21.5 -96.5q-4 -35 -28.5 -60.5t-55.5 -22.5t-44.5 27.5t-2.5 50.5t40 32q28 5 38 -19q11 -25 -11 -41q-11 -7 -26 -9
q-11 0 -13 5q-1 6 12 6z" />
    <glyph glyph-name="T" unicode="T" horiz-adv-x="752" 
d="M40 855q29 -10 58 -11q63 -4 202 3.5t245.5 0.5t174.5 -43q48 -26 35 -66q-10 -30 -43 -39q-29 -8 -55 12t-11 44q14 23 43 14q13 -4 25 -15q8 -12 7 -14q-3 -3 -15 5q-25 20 -38 5q-12 -12 3 -25q4 -4 10 -6q24 -10 40 3t13 34t-26 30q-70 29 -317 10q-1 -49 -6 -347
q45 -17 71 -41q39 -39 35 -98t-38 -93q-96 -98 -116 76q-5 54 -3 141q-48 11 -97 5t-71 -29q-21 -22 -15.5 -50t27.5 -36.5t47 10.5q20 19 9 38q-11 18 -29 7q-11 -6 -19 -20q-10 -16 -15 -12q-4 3 2 20q23 46 58 38q25 -6 31 -34q3 -19 -8 -38q-28 -44 -74 -33
q-39 9 -53 46q-14 40 17 83q23 32 79 40.5t112 -5.5q3 73 5 327q-34 -3 -84 -7l-85.5 -7t-57.5 -4q-40 -1 -65 1.5t-40 10.5t-7 25.5t39 43.5zM434 240q22 22 30.5 63t-7.5 67q-20 32 -72 51q-6 -213 38 -190q5 3 11 9z" />
    <glyph glyph-name="U" unicode="U" horiz-adv-x="501" 
d="M281 692q-3 -21 -6 -20q-5 2 -2 22q6 65 30 70q13 3 19 -19q6 -19 2 -46q-6 -47 -26 -63.5t-38 3t-18 61.5q0 51 21.5 95t47.5 53q34 13 70 -25.5t53 -97.5q44 -151 -7 -332q-39 -136 -104 -195q-54 -48 -96 -8q-32 31 -55 88.5t-31 109.5q-11 -123 -47 -176
q-30 -44 -66 -28q-27 12 -29 45q-2 23 14 41q19 22 40 9t10 -39q-4 -10 -14 -20q-7 -10 -12 -6q-2 2 5 13q19 22 5 34q-12 11 -24 -4q-2 -3 -4 -7q-9 -21 2 -35.5t29.5 -12.5t27.5 22q18 41 20 141.5t-5 228t-7 158.5q0 35 3 57.5t11 35t23 5.5t37 -36q-15 -17 -12 -192
t0 -192q50 -204 118 -213q48 -6 86 85q35 88 45 225q9 129 -27 221q-28 72 -65 53q-28 -14 -43 -65q-14 -47 5 -75q13 -21 28 -1q7 9 12 26q10 34 -2 47q-10 10 -19 -16q-3 -10 -5 -25z" />
    <glyph glyph-name="V" unicode="V" horiz-adv-x="473" 
d="M141 574q20 -176 52 -259q33 -88 79 -63q49 28 78 158q12 53 18 114q6 74 -4 143.5t-33 107.5t-51 25q-28 -15 -44 -64q-14 -46 4 -75q13 -22 29 -2q7 9 12 25q11 34 -2 47q-10 10 -18 -15q-4 -10 -6 -25q-4 -18 -7 -19q-4 2 -1 22q7 65 30 69q13 2 20 -19q5 -19 1 -47
q-8 -45 -28 -61t-37 3t-17 62q1 49 23.5 93t48.5 53q35 12 69.5 -27t51.5 -98q41 -155 -11 -333q-39 -135 -102 -190q-51 -44 -91 -4q-34 35 -53 133q-14 -6 -23 14.5t-14 60.5q-3 22 -10.5 126.5t-19 183.5t-30.5 109q-9 15 -24.5 14.5t-21.5 -12.5t2 -28q9 -16 20 -9
q13 8 0 24l-5 5q-7 7 -5 10q5 3 10 -4q26 -20 14 -41q-10 -17 -29 -9q-4 2 -8 6q-20 18 -13 42.5t28.5 29.5t42.5 -17q32 -41 48 -103.5t27 -155.5z" />
    <glyph glyph-name="W" unicode="W" horiz-adv-x="795" 
d="M-445 585q3 23 -14 57q-17 25 -34 14t-3 -38q1 -3 3 -6q14 -19 22 -10q9 11 -10 33q-4 1 -7 5t-2 6q0 2 1 2q5 0 9 -7q27 -24 21 -48q-5 -18 -23 -8q-5 3 -9 7q-27 30 -17 63q8 26 30 19q4 -1 8 -4q19 -12 32 -44.5t11 -60.5q-7 -72 -63 -77q-55 -4 -113 51
q-71 67 -70 158q0 24 6 48q19 73 75 115.5t126 51t141 -3t126 -41.5q93 -51 153 -140q100 110 233 -202q49 -117 110 -319q59 25 96 69.5t46.5 91t0.5 92t-36 76.5l63 27q61 -69 19 -179q39 -135 89 -134q42 0 70 93q23 79 25 191q1 74 -15 143t-42 105.5t-52 21.5
q-28 -19 -39 -68q-10 -49 10 -76q17 -20 31 4q5 9 8 24q7 33 -5 46q-10 11 -17 -13q-4 -11 -5 -28q0 -1 -0.5 -4.5t-0.5 -6t-0.5 -5t-1.5 -4t-2 -0.5q-3 2 -3 22q2 63 24 71q16 5 23 -23q5 -17 3 -41q-3 -49 -21.5 -66t-36.5 2.5t-22 61.5q-4 49 14.5 94.5t44.5 56.5
q34 15 71.5 -21t58.5 -94q53 -152 16 -335q-29 -138 -88 -196q-47 -47 -89 -10q-42 36 -69 146q-62 -107 -177 -152l-9 -3q-21 -3 -65 22q-10 66 -51.5 188t-97 220t-89.5 76l12 -20.5t11.5 -20.5t9.5 -18t9.5 -19.5l7 -17.5t6.5 -21l4 -21q8 -53 -18.5 -58.5t-51.5 46.5
q-19 39 -25 87.5t3 76.5q-71 101 -179 151.5t-219 21.5q-124 -32 -151 -128q-20 -71 19 -135q35 -57 84 -56q30 1 57 26zM-35 671q-12 -35 -1 -84q11 -53 34 -66q15 -8 16 16q1 13 -3 34q-8 41 -46 100z" />
    <glyph glyph-name="X" unicode="X" horiz-adv-x="556" 
d="M120 683q0 -21 -6 -21q-1 1 -1 22q5 63 27 69q15 4 22 -21q4 -18 1 -42q-6 -48 -25.5 -64.5t-37 3.5t-17.5 62q-1 49 19.5 92.5t46.5 53.5q34 14 69.5 -24t52.5 -96q0 -1 1 -3v-1q27 80 67 114.5t78 3.5q54 -42 86 -191q23 -108 11 -139q-3 -6 -7 -5q-1 3 -1 15
q-20 100 -45 164.5t-48.5 85.5t-46 12t-38.5 -46t-25.5 -99t-7.5 -137q3 -129 47 -215q35 -69 70 -47q26 16 36 67q9 49 -13 75q-16 20 -28 -3q-5 -10 -8 -25q-7 -34 7 -46q10 -9 16 16q3 10 3 26q0 21 5 20q3 -1 3 -22q0 -63 -21 -71q-16 -5 -25 24q-5 16 -4 38q2 49 20 67
t37 -0.5t24 -60.5q5 -49 -12 -94t-42 -58q-32 -16 -71 19t-61 91q-13 30 -18 55q-34 -101 -83.5 -148.5t-90.5 -7.5q-50 47 -69 200q-13 109 2 138q3 6 7 4q0 -8 -1 -15q10 -88 26 -149.5t34 -89.5t37.5 -35t38 12.5t34.5 54.5t27 89.5t15 118.5q5 73 -7 142t-36 106.5
t-51 23.5q-28 -16 -41 -64t6 -76q15 -21 30 3q5 8 9 22q9 32 -3 46q-10 11 -18 -13q-4 -10 -6 -26z" />
    <glyph glyph-name="Y" unicode="Y" horiz-adv-x="510" 
d="M393 734q-7 1 -12 3t-3 6q1 4 18 4q45 -6 49 -36q4 -26 -21 -39q-15 -8 -34 -4q-37 8 -46.5 38t9.5 58t53 30q41 3 71.5 -28t33.5 -72q4 -53 -33 -109.5t-87 -84.5q-46 -28 -107 -37q0 -1 -1.5 -6t-1.5 -8q-7 -36 -7 -98.5v-109.5t-15.5 -100t-49.5 -88q-31 -32 -78 -20
q-33 8 -36 30q-2 15 16 28q26 19 52 6q22 -11 5 -30q-5 -5 -14 -11q-7 -7 -14 -5q-1 2 -1.5 2.5t3.5 3.5l3 3q22 16 9 25q-14 9 -31 -4q-3 -2 -5 -5q-16 -20 11 -30q29 -10 52 6q5 4 8 8q24 30 27 101.5t-4.5 164.5t-7.5 112q0 11 2 27q-121 21 -188.5 120.5t-13.5 189.5
q41 69 165 73q89 3 138 -24q23 -13 19 -26q-10 0 -12 1q-178 39 -244 -29q-46 -47 -18 -118q28 -69 104 -105q40 -18 85 -22q57 -5 114.5 21.5t91.5 70.5t28 86q-7 42 -44 63q-24 13 -47.5 -0.5t-24.5 -35t23 -37.5q24 -12 37 6q13 16 -8 28q-7 5 -18 7z" />
    <glyph glyph-name="Z" unicode="Z" horiz-adv-x="589" 
d="M382 444q128 -8 163 8q11 4 12.5 14.5t-6.5 16.5t-20 1q-11 -5 -6 -14q5 -11 19 1q3 7 7 3q1 -2 0 -4t-3 -2q-19 -17 -31 -4q-11 11 4 24q14 11 29.5 3.5t16.5 -22t-15 -26.5q-51 -29 -190 -25q-88 -118 -149 -179q76 0 177 -30.5t168 -70.5l-28 -36q-204 100 -354 98
q-20 -22 -79 -64q-133 -95 -135 -19q-1 56 63 92.5t151 33.5q50 54 146 177q-16 -2 -31 -0.5t-35 0t-34 -7.5q-15 13 -19 21.5t3 12.5t19 5.5t31 1.5q38 -2 87 -6q48 57 107.5 139.5t65.5 106.5q5 17 -8 37t-38 37.5t-66.5 25.5t-88.5 1q-80 -12 -134.5 -47t-34.5 -67
q13 -23 49 -26q35 -3 51 18q14 18 -8 26q-6 2 -14 3q-24 3 -32 -10q-6 -10 14 -13q7 -2 17 -1q13 3 14 -1q-1 -6 -15 -6q-45 -5 -51 14q-4 16 20 25q10 4 22 5q34 2 48 -12.5t2 -33t-41 -25.5q-33 -9 -66 2t-44 32q-13 28 8.5 65.5t59.5 62.5q81 46 165.5 45t151 -36.5
t74.5 -82.5q2 -16 -12 -45t-43 -69.5l-54.5 -73.5l-62.5 -78q-12 -14 -17 -21zM148 205q-81 -4 -124 -40q-30 -22 -23 -37q3 -7 13 -7q43 0 134 84z" />
    <glyph glyph-name="bracketleft" unicode="[" horiz-adv-x="318" 
d="M200 177q4 25 5 25q3 -1 3.5 -10.5t-1.5 -15.5q-3 -81 -24 -94q-12 -7 -19 18q-5 20 -3 52q7 87 36 101q21 10 32 -29q6 -18 7 -44q2 -61 -16 -121t-42 -82q-31 -27 -64.5 7t-51.5 97q-38 140 -33 385t49 389q18 63 53 96t65 4q24 -21 40 -82t12 -122q-4 -65 -28 -73
q-20 -7 -34 34q-9 27 -11 69q-3 60 15 70q11 6 20 -20q9 -27 10 -75q0 -25 -3 -26q-1 0 -2 2.5t-1.5 7.5t-0.5 8.5v7.5q-2 58 -15 59q-11 0 -11 -35q0 -11 2 -23q7 -54 25 -51q17 3 21 49q2 22 -2 47q-8 64 -34 94q-40 46 -67 -67q-37 -153 -43 -492v-2q-4 -162 32 -259
q29 -73 62 -40q26 26 36 94q11 63 -8 89q-13 19 -26 -11q-5 -13 -9 -34q-7 -44 4 -55q7 -6 13 13q5 16 7 45z" />
    <glyph glyph-name="backslash" unicode="\" horiz-adv-x="276" 
d="M82 710q0 -26 9 -53q18 -56 71 -174.5t82.5 -213t20.5 -167.5q-5 -39 -34.5 -47.5t-53 13.5t-13.5 56q8 28 32 26q23 -2 27 -27q3 -15 -4 -34l-2 -3q-2 -4 -3.5 -5.5t-3.5 -1.5q-4 1 -1 15q9 28 -7 35q-14 6 -21 -10q-3 -5 -3 -12q0 -24 16.5 -34t33.5 0t17 33
q1 47 -38.5 145t-98 218t-71.5 151q-46 109 -8 110q18 0 53 -20z" />
    <glyph glyph-name="bracketright" unicode="]" horiz-adv-x="833" 
d="M55 766q0 -2 -0.5 -9t-1 -12t-2.5 -5q-3 1 -4 10.5t1 15.5q0 83 21 95q12 7 19 -18q6 -19 5 -51q-4 -85 -32 -101q-20 -12 -33 25q-7 18 -9 45q-4 61 12 121.5t39 83.5q30 28 65 -4.5t55 -95.5q43 -139 46 -384t-36 -390q-16 -64 -49.5 -98t-64.5 -6q-25 20 -43.5 81
t-15.5 121q1 66 26 74q20 7 35 -35q10 -26 13 -66q5 -62 -13 -71q-11 -5 -21 20q-10 27 -12 74q-3 25 2 26q2 0 3 -4.5t1.5 -12.5t0.5 -9q4 -57 17 -57q11 0 10 34q-1 11 -3 23q-9 52 -26 50t-20 -46q-2 -24 3 -50q10 -63 37 -93q41 -44 64 64q33 150 27 500q-1 161 -41 257
q-30 73 -61 41l-2 -2q-25 -26 -33 -95q-8 -62 11 -88q13 -19 25 9q6 13 9 36q6 45 -6 55q-7 6 -12 -12q-5 -16 -6 -46z" />
    <glyph glyph-name="asciicircum" unicode="^" horiz-adv-x="479" 
d="M223 741q-7 -9 -14 -22q-16 -32 -43 -107t-54.5 -129.5t-62.5 -82.5q-19 -15 -36 -5t-16.5 28t17.5 30q18 11 27 -5q10 -18 -11 -31q-3 -2 -5 -3q-8 -3 -9 0q-1 1 5 7q19 10 11 20q-8 9 -18 -1q-11 -10 -7.5 -22t14 -14t21.5 7q20 20 44.5 79.5t50 138.5t32.5 97
q12 30 32 50l30 -13l17 8q22 -21 33 -49q8 -19 35.5 -96.5t53.5 -137t47 -79.5q10 -9 21.5 -5.5t14 14t-7.5 22.5q-12 11 -18.5 0.5t10.5 -20.5q2 0 4.5 -2t1.5 -4q-1 -1 -3.5 -1t-4.5 2q-26 10 -20 30q5 16 23 11l6 -2q19 -10 18.5 -30.5t-16 -28.5t-37.5 4q-36 27 -65 81
t-57.5 128t-44.5 105q-7 17 -19 28z" />
    <glyph glyph-name="underscore" unicode="_" horiz-adv-x="457" 
d="M27 151q13 -6 35 -10q36 -4 118 1.5t144.5 -1.5t102.5 -38q29 -22 16 -58q-10 -27 -32 -27q-11 1 -21 12q-17 20 -5 39t32 2q3 -3 6 -7q6 -9 4 -11q-2 -3 -9 4q-15 16 -22 4q-8 -13 5 -23l2 -2q20 -12 30 10q9 23 -7 39l-6 4q-21 12 -70.5 14.5t-97 -1.5t-104.5 -9.5
t-78 -6.5q-32 -1 -48 4t-19 19.5t24 41.5z" />
    <glyph glyph-name="grave" unicode="`" horiz-adv-x="71" 
d="M37 666q-13 -20 -25 -12.5t-9 24.5q3 20 26 20q27 -1 35 -26q2 -6 2 -14q0 -19 -21.5 -47t-35.5 -15l5 6q6 6 12.5 14.5t12 18.5t5.5 18t-7 13z" />
    <glyph glyph-name="a" unicode="a" horiz-adv-x="310" 
d="M124 451q-55 -47 -62 -129q-6 -73 29 -101q23 -19 58 -5q24 10 36.5 36.5t12 55t-0.5 55.5q1 24 27 36q10 0 11 -11q1 -22 0 -40t-3 -50t-2 -43q-2 -17 2.5 -33t14.5 -17q14 -2 24 7.5t4 25.5q-7 17 -20 11q-14 -5 -3 -23q1 -1 2 -3q8 -8 4 -10q-3 -2 -10 5q-22 24 -5 40
q16 15 33 0q3 -2 5 -5q15 -23 2.5 -42t-36.5 -18q-44 0 -48 55q-34 -64 -98 -64q-36 0 -61 24t-32 61t-1.5 77t31.5 77.5t67 57.5q18 9 38.5 14t42.5 6t37 -11t17 -37q2 -36 -29 -46q-28 -10 -44 11q-7 10 -6 25q1 23 21 26q20 4 25 -18q2 -8 1 -18q0 -9 -5 -9q-3 0 -3 10
q1 20 -11 22q-12 1 -14 -12q-1 -4 0 -9q5 -24 28 -20q20 5 22 24q1 6 0 11q-4 19 -16.5 26t-28.5 3.5t-30.5 -11t-25.5 -17.5z" />
    </font>
</defs>
</svg>
